SplineFontDB: 3.0
FontName: LinLibertineOI
FullName: Linux Libertine O Italic
FamilyName: Linux Libertine O
Weight: Book
Copyright: Linux Libertine by Philipp H. Poll, Open Font under Terms of following Free Software Licenses:\nGPL (General Public License) with font-exception and OFL (Open Font License).\nCreated with FontForge (http://fontforge.sf.net) Sept 2003, 2004, 2005, 2006, 2007, 2008
UComments: "2003-08-29: Created.+AAoA-2004-07-25: v(1.0) release candidate+AAoA-2005-12-28: v(1.1.0)stable+AAoA-2006-05-01: v(2.0.0)stable+AAoA-2007-01-10: v(2.3.0)stable" 
Version: 4.0.9
ItalicAngle: -12.5
UnderlinePosition: -98
UnderlineWidth: 40
Ascent: 754
Descent: 246
LayerCount: 2
Layer: 0 0 "Back"  1
Layer: 1 0 "Fore"  0
XUID: [1021 975 16237491 13016554]
FSType: 0
OS2Version: 0
OS2_WeightWidthSlopeOnly: 0
OS2_UseTypoMetrics: 0
CreationTime: 1155510122
ModificationTime: 1241978109
PfmFamily: 17
TTFWeight: 400
TTFWidth: 5
LineGap: 0
VLineGap: 0
OS2TypoAscent: 894
OS2TypoAOffset: 0
OS2TypoDescent: -246
OS2TypoDOffset: 0
OS2TypoLinegap: 0
OS2WinAscent: 894
OS2WinAOffset: 0
OS2WinDescent: 246
OS2WinDOffset: 0
HheadAscent: 894
HheadAOffset: 0
HheadDescent: -246
HheadDOffset: 0
OS2FamilyClass: 261
OS2Vendor: 'PfEd'
Lookup: 3 0 0 "LinLibertine-'aalt' Alle Alternativen zeigen"  {"LinLibertine-'aalt' Alle Alternativen zeigen 1"  } ['aalt' ('DFLT' <'dflt' > 'cyrl' <'dflt' > 'grek' <'dflt' > 'latn' <'AZE ' 'CRT ' 'DEU ' 'MOL ' 'ROM ' 'TRK ' 'dflt' > ) ]
Lookup: 1 0 0 "LinLibertine-'locl' Localized Forms Romaenisch"  {"LinLibertine-'locl' Localized Forms Romaenisch 1"  } ['locl' ('latn' <'MOL ' 'ROM ' > ) ]
Lookup: 1 0 0 "'smcp' Gemeine nach Kapitaelchen i > idotaccent.sc"  {"'smcp' Gemeine nach Kapitaelchen i > idotaccent.sc"  } ['smcp' ('latn' <'AZE ' 'CRT ' 'TRK ' > ) ]

StartChar: exclam
Encoding: 33 33 0
Width: 227
VWidth: 999
Flags: HW
HStem: -13 106<105 179> 655 10G<241 264>
LayerCount: 2
Fore
SplineSet
88 40 m 0
 94 69 122 93 151 93 c 0
 177 93 196 74 196 49 c 0
 196 46 195 43 195 40 c 0
 190 11 162 -13 132 -13 c 0
 106 -13 87 6 87 31 c 0
 87 34 88 37 88 40 c 0
252 665 m 0
 275 665 297 647 297 611 c 0
 297 605 297 599 295 592 c 0
 284 527 261 484 235 398 c 1
 204 291 191 231 188 217 c 0
 185 206 180 197 170 197 c 0
 160 197 158 202 158 208 c 2
 158 208 158 209 158 210 c 0
 160 230 170 321 176 398 c 0
 178 425 179 447 179 466 c 0
 179 482 178 496 178 510 c 0
 178 535 179 559 185 592 c 0
 195 646 230 665 252 665 c 0
EndSplineSet
EndChar

StartChar: quotedbl
Encoding: 34 34 1
Width: 336
VWidth: 999
Flags: HW
HStem: 426 219<164 354>
LayerCount: 2
Fore
SplineSet
291 427 m 1
 291 427 292 586 294 595 c 0
 297 617 324 645 354 645 c 0
 376 645 383 632 383 619 c 0
 383 616 383 614 383 612 c 0
 380 596 318 431 318 431 c 1
 291 427 l 1
164 426 m 1
 164 426 166 585 167 594 c 0
 171 616 197 644 228 644 c 0
 250 644 257 631 257 618 c 0
 257 615 257 613 256 611 c 0
 253 595 191 430 191 430 c 1
 164 426 l 1
EndSplineSet
EndChar

StartChar: numbersign
Encoding: 35 35 2
Width: 438
VWidth: 487
Flags: HMW
HStem: 183 49<72 146 196 290 339 414> 341 49<125 199 249 343 392 466>
DStem2: 90 13 123 13 0.318258 0.948004<10.4118 178.958 241.098 346.336 408.321 576.558> 233 13 266 13 0.316736 0.948514<10.362 178.959 240.893 346.337 408.272 576.406>
LayerCount: 2
Fore
SplineSet
376 341 m 1
 339 231 l 1
 429 231 l 1
 414 183 l 1
 324 183 l 1
 266 13 l 1
 233 13 l 1
 290 183 l 1
 180 183 l 1
 123 13 l 1
 90 13 l 1
 146 183 l 1
 56 183 l 1
 72 231 l 1
 163 231 l 1
 199 341 l 1
 109 341 l 1
 125 390 l 1
 216 390 l 1
 272 560 l 1
 306 560 l 1
 249 390 l 1
 359 390 l 1
 416 560 l 1
 449 560 l 1
 392 390 l 1
 482 390 l 1
 466 341 l 1
 376 341 l 1
307 231 m 1
 343 341 l 1
 233 341 l 1
 196 231 l 1
 307 231 l 1
EndSplineSet
EndChar

StartChar: dollar
Encoding: 36 36 3
Width: 438
VWidth: 999
Flags: HW
HStem: -12 33<148 291> 542 30<257 387>
VStem: 69 27<77 146> 422 27<421 435>
DStem2: 181 -81 215 -81 0.191033 0.981584<6.52945 72.6973 106.022 349.693 423.51 637.583 667.847 720.796>
LayerCount: 2
Fore
SplineSet
92 10 m 0
 77 10 77 -1 56 -1 c 1
 63 36 66 90 69 146 c 1
 96 149 l 1
 101 88 134 30 201 22 c 1
 248 264 l 1
 194 291 111 336 129 434 c 0
 146 520 241 565 308 571 c 1
 319 627 l 1
 353 627 l 1
 342 572 l 1
 391 570 431 560 457 564 c 1
 450 519 450 470 449 421 c 1
 422 417 l 1
 420 435 l 2
 414 501 391 536 336 541 c 1
 295 327 l 1
 347 306 449 258 430 156 c 0
 423 123 390 -3 229 -11 c 1
 215 -81 l 1
 181 -81 l 1
 195 -12 l 1
 141 -8 112 10 92 10 c 0
280 251 m 1
 235 22 l 1
 276 28 337 54 352 127 c 0
 368 207 317 235 280 251 c 1
263 341 m 1
 302 541 l 1
 254 533 206 497 194 438 c 0
 185 391 228 359 263 341 c 1
EndSplineSet
EndChar

StartChar: percent
Encoding: 37 37 4
Width: 637
VWidth: 999
Flags: HW
HStem: -19 29<449 527> 218 31<488 555> 297 29<192 271> 478 37<399 486> 533 32<230 309>
VStem: 131 51<334 473> 318 31<399 499> 388 51<18 158> 575 30<84 208>
LayerCount: 2
Fore
SplineSet
439 77 m 0
 439 25 466 10 484 10 c 0
 540 10 575 102 575 157 c 0
 575 209 544 218 530 218 c 0
 481 218 439 134 439 77 c 0
388 91 m 0
 388 167 446 250 520 250 c 0
 560 250 605 231 605 159 c 0
 605 91 561 -19 478 -19 c 0
 417 -19 388 39 388 91 c 0
436 515 m 0
 478 515 545 525 586 569 c 1
 619 548 l 1
 139 -14 l 1
 102 -5 l 1
 530 497 l 1
 491 481 456 478 427 478 c 0
 403 478 365 488 346 499 c 1
 348 491 349 482 349 474 c 0
 349 409 306 297 222 297 c 0
 159 297 131 354 131 406 c 0
 131 482 190 565 263 565 c 0
 291 565 319 552 329 540 c 1
 383 515 418 515 436 515 c 0
182 392 m 0
 182 340 209 326 228 326 c 0
 282 326 318 415 318 473 c 0
 318 522 291 533 273 533 c 0
 225 533 182 450 182 392 c 0
EndSplineSet
EndChar

StartChar: parenleft
Encoding: 40 40 5
Width: 295
VWidth: 999
Flags: HW
VStem: 80 74<80 194>
LayerCount: 2
Fore
SplineSet
102 0 m 1
 87 50 80 102 80 154 c 0
 80 187 83 219 88 252 c 0
 104 343 138 425 191 503 c 1
 221 549 280 632 381 707 c 1
 396 689 l 1
 311 610 268 533 247 492 c 0
 208 417 181 338 166 252 c 0
 158 205 153 159 153 115 c 0
 153 79 156 44 162 11 c 0
 169 -32 185 -108 241 -187 c 1
 220 -204 l 1
 163 -145 124 -80 102 0 c 1
EndSplineSet
Substitution2: "'case' Versalformen 1" parenleft.sc
Substitution2: "'c2sc' Versale nach Kapitaelchen 1" parenleft.sc
Substitution2: "'sinf' Wissenschaftliche Indices 1" parenleft.inferior
Substitution2: "'sups' Hochgestellte 1" parenleft.superior
AlternateSubs2: "LinLibertine-'aalt' Alle Alternativen zeigen 1" parenleft.sc
EndChar

StartChar: parenright
Encoding: 41 41 6
Width: 312
VWidth: 999
Flags: HW
VStem: 266 74<310 424>
LayerCount: 2
Fore
SplineSet
317 504 m 1
 332 454 339 402 339 350 c 0
 339 317 336 285 331 252 c 1
 314 161 281 79 228 0 c 0
 198 -45 139 -128 38 -203 c 1
 23 -186 l 1
 108 -106 151 -29 172 12 c 0
 211 87 238 166 253 252 c 0
 261 299 266 345 266 389 c 0
 266 425 263 459 257 493 c 0
 250 536 234 612 178 691 c 1
 199 708 l 1
 256 649 295 583 317 504 c 1
EndSplineSet
Substitution2: "'case' Versalformen 1" parenright.sc
Substitution2: "'c2sc' Versale nach Kapitaelchen 1" parenright.sc
Substitution2: "'sinf' Wissenschaftliche Indices 1" parenright.inferior
Substitution2: "'sups' Hochgestellte 1" parenright.superior
AlternateSubs2: "LinLibertine-'aalt' Alle Alternativen zeigen 1" parenright.sc
EndChar

StartChar: asterisk
Encoding: 42 42 7
Width: 433
VWidth: 999
Flags: HW
HStem: 571 67<185 265 382 420>
VStem: 308 57<596 704>
LayerCount: 2
Fore
SplineSet
298 567 m 1
 286 570 271 571 256 571 c 0
 211 571 182 577 182 602 c 0
 182 604 182 606 182 608 c 0
 185 622 197 638 220 638 c 0
 254 638 267 605 308 587 c 1
 308 590 308 594 308 598 c 0
 308 626 299 648 299 668 c 0
 299 672 300 675 300 679 c 0
 304 700 320 718 338 718 c 0
 354 718 365 709 365 691 c 0
 365 688 365 686 365 683 c 0
 360 656 336 616 328 586 c 1
 377 606 399 638 433 638 c 0
 456 638 461 623 461 612 c 0
 461 610 461 609 461 608 c 0
 456 578 420 571 386 571 c 0
 366 571 349 570 331 567 c 1
 355 533 399 521 399 488 c 0
 399 485 399 483 398 480 c 0
 395 462 378 451 364 451 c 0
 325 451 329 516 311 555 c 1
 278 510 260 451 223 451 c 0
 208 451 198 462 198 475 c 0
 198 477 198 478 198 479 c 0
 206 522 258 530 298 567 c 1
EndSplineSet
EndChar

StartChar: plus
Encoding: 43 43 8
Width: 527
VWidth: 999
Flags: HMW
HStem: 207 49<111 276 334 498>
DStem2: 245 34 294 34 0.173647 0.984808<8.56362 175.567 234.224 402.105>
LayerCount: 2
Fore
SplineSet
334 256 m 1
 507 256 l 1
 498 207 l 1
 325 207 l 1
 294 34 l 1
 245 34 l 1
 276 207 l 1
 103 207 l 1
 111 256 l 1
 285 256 l 1
 315 430 l 1
 364 430 l 1
 334 256 l 1
EndSplineSet
Substitution2: "'sinf' Wissenschaftliche Indices 1" plus.inferior
Substitution2: "'sups' Hochgestellte 1" plus.superior
AlternateSubs2: "LinLibertine-'aalt' Alle Alternativen zeigen 1" plus.superior plus.inferior uni2098
EndChar

StartChar: slash
Encoding: 47 47 9
Width: 291
VWidth: 999
Flags: HMW
HStem: 672 10G<356 402>
DStem2: 0 -21 42 -21 0.45658 0.889682<18.9498 790.312>
LayerCount: 2
Fore
SplineSet
402 682 m 1
 42 -21 l 1
 0 -21 l 1
 361 682 l 1
 402 682 l 1
EndSplineSet
Ligature2: "'frac' Brueche 1" uni2215
AlternateSubs2: "LinLibertine-'aalt' Alle Alternativen zeigen 1" uni2215
EndChar

StartChar: one
Encoding: 49 49 10
Width: 438
VWidth: 999
Flags: HW
HStem: -1 30<124 232 311 397> 460 32<205 252> 568 10G<364 411>
VStem: 122 290
DStem2: 242 75 313 75 0.21644 0.976296<-25.4992 382.251> 309 419 411 578 0.190615 0.981665<-360.87 32.2433>
LayerCount: 2
Fore
SplineSet
297 474 m 0
 279 474 228 471 205 460 c 1
 202 492 l 1
 294 517 335 542 392 578 c 1
 411 578 l 1
 313 75 l 2
 312 65 310 57 310 51 c 0
 310 34 318 29 342 29 c 2
 395 29 l 2
 398 29 403 27 401 21 c 2
 397 -1 l 1
 260 1 l 1
 122 -1 l 1
 125 21 l 1
 127 24 128 29 135 29 c 2
 194 29 l 2
 232 29 236 46 242 75 c 2
 309 419 l 2
 311 432 312 443 312 451 c 0
 312 466 308 474 297 474 c 0
EndSplineSet
Substitution2: "LinLibertine-'onum' Minuskelziffern 1" one.taboldstyle
Substitution2: "LinLibertine-'pnum' Proportionalziffern 1" one.fitted
Substitution2: "'sinf' Wissenschaftliche Indices 1" one.inferior
Substitution2: "'sups' Hochgestellte 1" one.superior
AlternateSubs2: "LinLibertine-'aalt' Alle Alternativen zeigen 1" one.oldstyle one.superior one.fitted
EndChar

StartChar: two
Encoding: 50 50 11
Width: 438
VWidth: 487
Flags: HW
HStem: 0 58<137 356> 547 31<254 360>
VStem: 143 75<412 491> 395 78<383 519>
DStem2: 57 0 137 58 0.199368 0.979925<72.4253 99.6416 425.337 477.657 477.657 528.408> 196 194 231 176 0.773957 0.633238<-108.884 235.665>
LayerCount: 2
Fore
SplineSet
144 443 m 0
 155 500 226 578 331 578 c 0
 399 578 473 548 473 462 c 0
 473 374 393 308 344 268 c 2
 231 176 l 2
 226 171 146 103 137 58 c 1
 306 58 l 2
 340 58 361 75 386 130 c 1
 411 126 l 1
 366 0 l 1
 57 0 l 1
 67 56 85 99 196 194 c 2
 281 267 l 2
 337 315 395 370 395 454 c 0
 395 519 348 547 318 547 c 0
 249 547 223 511 219 487 c 0
 217 479 218 471 218 464 c 0
 219 457 220 450 218 442 c 0
 213 416 191 406 175 406 c 0
 156 406 143 419 143 436 c 0
 143 439 143 441 144 443 c 0
EndSplineSet
Substitution2: "LinLibertine-'onum' Minuskelziffern 1" two.taboldstyle
Substitution2: "LinLibertine-'pnum' Proportionalziffern 1" two.fitted
Substitution2: "'sinf' Wissenschaftliche Indices 1" two.inferior
Substitution2: "'sups' Hochgestellte 1" two.superior
AlternateSubs2: "LinLibertine-'aalt' Alle Alternativen zeigen 1" two.oldstyle two.superior two.fitted
EndChar

StartChar: three
Encoding: 51 51 12
Width: 438
VWidth: 487
Flags: HW
HStem: -12 31<146 248> 298 30<219 250> 547 31<257 358>
VStem: 144 65<431 500> 358 76<138 273> 380 67<426 532>
LayerCount: 2
Fore
SplineSet
95 83 m 0
 141 83 115 19 196 19 c 0
 259 19 358 95 358 213 c 0
 358 289 297 302 250 302 c 0
 240 302 230 300 218 298 c 1
 219 328 l 1
 289 339 380 411 380 483 c 0
 380 526 349 547 313 547 c 0
 289 547 221 533 209 472 c 0
 206 454 193 423 167 423 c 0
 147 423 144 440 144 449 c 0
 144 479 195 578 339 578 c 0
 423 578 447 532 447 494 c 0
 447 456 433 403 331 345 c 1
 379 338 434 305 434 228 c 0
 434 116 337 -12 178 -12 c 0
 124 -12 54 11 54 46 c 0
 54 65 76 83 95 83 c 0
EndSplineSet
Substitution2: "LinLibertine-'onum' Minuskelziffern 1" three.taboldstyle
Substitution2: "LinLibertine-'pnum' Proportionalziffern 1" three.fitted
Substitution2: "'sinf' Wissenschaftliche Indices 1" three.inferior
Substitution2: "'sups' Hochgestellte 1" three.superior
AlternateSubs2: "LinLibertine-'aalt' Alle Alternativen zeigen 1" three.oldstyle three.superior three.fitted
EndChar

StartChar: four
Encoding: 52 52 13
Width: 438
VWidth: 487
Flags: HW
HStem: -1 29<191 261 336 391> 153 46<139 288 364 431> 568 10G<368 370>
DStem2: 270 70 337 70 0.199368 0.979925<-6.32403 85.4219 146.064 322.895>
LayerCount: 2
Fore
SplineSet
329 355 m 2
 331 362 333 370 342 375 c 0
 355 383 375 392 390 392 c 0
 398 392 401 388 401 380 c 0
 401 375 400 369 398 361 c 2
 364 200 l 1
 446 200 l 1
 431 153 l 1
 355 153 l 1
 337 70 l 2
 336 62 335 56 335 50 c 0
 335 35 342 28 363 28 c 2
 389 28 l 2
 395 28 396 23 395 21 c 2
 391 -1 l 1
 391 -1 326 1 285 1 c 0
 247 1 188 -1 188 -1 c 1
 192 21 l 2
 192 23 194 28 200 28 c 2
 228 28 l 2
 259 28 264 41 270 70 c 2
 288 153 l 1
 91 153 l 2
 87 153 86 155 84 159 c 2
 78 170 l 1
 70 191 l 2
 69 191 70 192 70 193 c 0
 70 194 71 195 72 196 c 0
 151 268 310 491 361 573 c 0
 364 577 366 578 370 578 c 0
 371 578 390 569 402 567 c 1
 333 446 235 316 139 200 c 1
 297 200 l 1
 329 355 l 2
EndSplineSet
Substitution2: "LinLibertine-'onum' Minuskelziffern 1" four.taboldstyle
Substitution2: "LinLibertine-'pnum' Proportionalziffern 1" four.fitted
Substitution2: "'sinf' Wissenschaftliche Indices 1" four.inferior
Substitution2: "'sups' Hochgestellte 1" four.superior
AlternateSubs2: "LinLibertine-'aalt' Alle Alternativen zeigen 1" four.oldstyle four.superior four.fitted
EndChar

StartChar: five
Encoding: 53 53 14
Width: 438
VWidth: 487
Flags: HMW
HStem: -12 34<161 266> 323 47<190 309> 510 68<238 314 318 349 352 451>
VStem: 347 75<119 284>
DStem2: 129 300 189 355 0.297205 0.954814<70.3872 239.065>
LayerCount: 2
Fore
SplineSet
206 22 m 0
 290 22 347 106 347 205 c 0
 347 280 306 323 254 323 c 0
 208 323 171 316 129 300 c 1
 214 573 l 1
 247 570 280 568 315 568 c 0
 365 568 418 572 474 578 c 1
 479 575 l 1
 451 510 l 1
 411 506 379 505 351 505 c 0
 306 505 272 509 238 513 c 1
 189 355 l 1
 211 363 249 370 288 370 c 0
 378 370 422 295 422 216 c 0
 422 107 342 -12 197 -12 c 0
 143 -12 62 17 62 54 c 0
 62 71 78 91 102 91 c 0
 143 91 139 22 206 22 c 0
EndSplineSet
Substitution2: "LinLibertine-'onum' Minuskelziffern 1" five.taboldstyle
Substitution2: "LinLibertine-'pnum' Proportionalziffern 1" five.fitted
Substitution2: "'sinf' Wissenschaftliche Indices 1" five.inferior
Substitution2: "'sups' Hochgestellte 1" five.superior
AlternateSubs2: "LinLibertine-'aalt' Alle Alternativen zeigen 1" five.oldstyle five.superior five.fitted
EndChar

StartChar: six
Encoding: 54 54 15
Width: 438
VWidth: 487
Flags: HW
HStem: -12 29<197 288> 307 33<230 328> 547 31<406 486>
VStem: 82 70<57 264> 365 74<116 278>
LayerCount: 2
Fore
SplineSet
244 17 m 0
 322 17 365 124 365 198 c 0
 365 247 351 307 275 307 c 0
 254 307 215 305 167 262 c 1
 161 239 152 193 152 147 c 0
 152 45 203 17 244 17 c 0
439 210 m 0
 439 124 376 -12 228 -12 c 0
 165 -12 82 19 82 150 c 0
 82 183 86 351 239 481 c 0
 316 546 389 573 488 578 c 1
 486 547 l 1
 419 541 360 526 303 479 c 0
 248 434 202 370 175 290 c 1
 204 318 263 339 301 339 c 0
 417 339 439 264 439 210 c 0
EndSplineSet
Substitution2: "LinLibertine-'onum' Minuskelziffern 1" six.taboldstyle
Substitution2: "LinLibertine-'pnum' Proportionalziffern 1" six.fitted
Substitution2: "'sinf' Wissenschaftliche Indices 1" six.inferior
Substitution2: "'sups' Hochgestellte 1" six.superior
AlternateSubs2: "LinLibertine-'aalt' Alle Alternativen zeigen 1" six.oldstyle six.superior six.fitted
EndChar

StartChar: seven
Encoding: 55 55 16
Width: 438
VWidth: 487
Flags: HMW
HStem: -12 10G<115 182> 439 10G<132 172> 508 59<205 428> 568 10G<176 205 488 510>
LayerCount: 2
Fore
SplineSet
249 508 m 2
 205 508 187 490 158 439 c 1
 132 443 l 1
 152 484 169 522 183 578 c 1
 205 578 l 1
 205 573 209 567 232 567 c 2
 423 567 l 2
 458 567 480 568 497 573 c 1
 510 566 l 1
 354 308 268 152 182 -9 c 1
 117 -12 l 1
 115 -6 l 1
 206 138 319 324 428 508 c 1
 249 508 l 2
EndSplineSet
Substitution2: "LinLibertine-'onum' Minuskelziffern 1" seven.taboldstyle
Substitution2: "LinLibertine-'pnum' Proportionalziffern 1" seven.fitted
Substitution2: "'sinf' Wissenschaftliche Indices 1" seven.inferior
Substitution2: "'sups' Hochgestellte 1" seven.superior
AlternateSubs2: "LinLibertine-'aalt' Alle Alternativen zeigen 1" seven.oldstyle seven.superior seven.fitted
EndChar

StartChar: nine
Encoding: 57 57 17
Width: 438
VWidth: 487
Flags: HW
HStem: -12 31<59 139> 227 33<217 315> 549 29<257 347>
VStem: 105 74<288 450> 392 70<302 509>
LayerCount: 2
Fore
SplineSet
300 549 m 0
 222 549 179 442 179 368 c 0
 179 319 193 259 269 259 c 0
 290 259 329 261 377 304 c 1
 383 327 392 373 392 419 c 0
 392 521 341 549 300 549 c 0
105 356 m 0
 105 442 168 578 316 578 c 0
 379 578 462 547 462 416 c 0
 462 383 458 215 305 85 c 0
 228 20 155 -7 56 -12 c 1
 58 19 l 1
 125 25 184 40 241 87 c 0
 296 132 342 196 369 276 c 1
 340 248 281 227 243 227 c 0
 127 227 105 302 105 356 c 0
EndSplineSet
Substitution2: "LinLibertine-'onum' Minuskelziffern 1" nine.taboldstyle
Substitution2: "LinLibertine-'pnum' Proportionalziffern 1" nine.fitted
Substitution2: "'sinf' Wissenschaftliche Indices 1" nine.inferior
Substitution2: "'sups' Hochgestellte 1" nine.superior
AlternateSubs2: "LinLibertine-'aalt' Alle Alternativen zeigen 1" nine.oldstyle nine.superior nine.fitted
EndChar

StartChar: colon
Encoding: 58 58 18
Width: 219
VWidth: 999
Flags: HW
HStem: 39 106<96 171> 300 106<143 218>
VStem: 80 108<56 130> 126 108<317 391>
LayerCount: 2
Fore
SplineSet
188 407 m 0
 214 407 234 388 234 363 c 0
 234 333 207 301 172 301 c 0
 146 301 126 321 126 347 c 0
 126 374 152 407 188 407 c 0
142 145 m 0
 168 145 188 126 188 101 c 0
 188 71 161 39 126 39 c 0
 100 39 80 59 80 85 c 0
 80 112 106 145 142 145 c 0
EndSplineSet
EndChar

StartChar: semicolon
Encoding: 59 59 19
Width: 219
VWidth: 999
Flags: HW
HStem: -118 25<54 79> 4 90<75 131> 301 106<142 217>
VStem: 125 108<317 391> 132 50<-56 51>
LayerCount: 2
Fore
SplineSet
71 45 m 0
 71 76 100 95 130 95 c 0
 161 95 184 71 184 31 c 0
 184 -21 156 -111 40 -132 c 1
 32 -126 29 -118 32 -109 c 1
 84 -97 136 -50 136 -22 c 0
 136 -4 121 0 105 4 c 0
 86 9 71 21 71 45 c 0
187 407 m 0
 213 407 233 388 233 363 c 0
 233 333 206 301 171 301 c 0
 145 301 125 321 125 347 c 0
 125 374 151 407 187 407 c 0
EndSplineSet
EndChar

StartChar: less
Encoding: 60 60 20
Width: 487
VWidth: 999
Flags: HMW
DStem2: 164 239 87 215 0.931794 -0.362988<0 318.177> 95 263 164 239 0.946433 0.322901<57.4341 414.129>
LayerCount: 2
Fore
SplineSet
164 239 m 1
 460 123 l 1
 452 73 l 1
 87 215 l 1
 95 263 l 1
 510 404 l 1
 501 354 l 1
 164 239 l 1
EndSplineSet
EndChar

StartChar: equal
Encoding: 61 61 21
Width: 527
VWidth: 999
Flags: HMW
HStem: 144 49<100 487> 269 49<122 509>
LayerCount: 2
Fore
SplineSet
496 193 m 1
 487 144 l 1
 91 144 l 1
 100 193 l 1
 496 193 l 1
518 318 m 1
 509 269 l 1
 113 269 l 1
 122 318 l 1
 518 318 l 1
EndSplineSet
Substitution2: "'sinf' Wissenschaftliche Indices 1" equal.inferior
Substitution2: "'sups' Hochgestellte 1" equal.superior
AlternateSubs2: "LinLibertine-'aalt' Alle Alternativen zeigen 1" equal.superior
EndChar

StartChar: greater
Encoding: 62 62 22
Width: 487
VWidth: 999
Flags: HMW
DStem2: 70 121 62 71 0.946433 0.322901<0 356.233> 120 402 111 352 0.931958 -0.362567<9.86646 328.044>
LayerCount: 2
Fore
SplineSet
407 236 m 1
 111 352 l 1
 120 402 l 1
 485 260 l 1
 477 212 l 1
 62 71 l 1
 70 121 l 1
 407 236 l 1
EndSplineSet
EndChar

StartChar: question
Encoding: 63 63 23
Width: 405
VWidth: 487
Flags: HW
HStem: -11 106<181 256> 629 29<257 367>
VStem: 146 73<505 579> 165 108<5 79> 408 78<459 596>
DStem2: 224 184 250 184 0.21644 0.976296<-7.6044 123.866>
LayerCount: 2
Fore
SplineSet
146 520 m 0
 146 568 207 659 338 659 c 0
 428 659 486 612 486 539 c 0
 486 398 326 355 289 301 c 0
 271 276 262 252 257 228 c 1
 250 184 l 2
 249 177 243 174 235 174 c 0
 228 174 223 177 224 184 c 2
 232 230 l 1
 267 419 408 390 408 530 c 0
 408 584 373 629 323 629 c 0
 254 629 219 593 219 563 c 0
 219 557 221 551 224 546 c 0
 226 542 227 537 227 532 c 0
 227 512 211 487 180 487 c 0
 166 487 146 493 146 520 c 0
227 95 m 0
 253 95 273 76 273 51 c 0
 273 21 246 -11 211 -11 c 0
 185 -11 165 9 165 35 c 0
 165 62 191 95 227 95 c 0
EndSplineSet
EndChar

StartChar: at
Encoding: 64 64 24
Width: 829
VWidth: 999
Flags: HW
LayerCount: 2
Fore
SplineSet
596 316 m 0
 604 354 581 379 548 379 c 0
 532 379 491 370 456 339 c 0
 397 288 368 224 355 162 c 0
 345 114 350 70 408 70 c 0
 440 70 499 127 542 200 c 1
 562 231 588 282 596 316 c 0
557 74 m 0
 555 64 562 62 564 62 c 0
 660 62 729 109 764 275 c 0
 808 481 666 581 549 581 c 0
 408 581 230 478 179 241 c 0
 147 91 172 -125 412 -125 c 0
 491 -125 554 -102 613 -59 c 1
 622 -77 l 1
 556 -123 492 -158 387 -158 c 0
 166 -158 56 10 101 223 c 0
 147 438 355 611 565 611 c 0
 765 611 879 469 839 282 c 0
 814 168 719 27 517 27 c 0
 491 27 489 52 493 68 c 0
 496 83 507 106 520 131 c 1
 518 132 l 1
 461 58 405 29 373 29 c 0
 280 29 277 113 285 153 c 0
 315 296 458 410 557 410 c 0
 587 410 615 393 619 367 c 1
 629 391 l 1
 681 404 l 1
 693 399 l 1
 583 141 l 2
 572 114 559 83 557 74 c 0
EndSplineSet
EndChar

StartChar: A
Encoding: 65 65 25
Width: 667
VWidth: 999
Flags: HW
HStem: -2 29<4.6875 68.791 190 217 421.688 459 648 660> 241 42<283.8 474> 638 20G<469 483>
DStem2: 437 622 286 296 0.518119 0.855308<-607.433 -412.453 -363.359 -357.067> 496 628 433 550 0.167348 -0.985898<66.3571 336.453 379.2 559.216>
AnchorPoint: "unten_punkt" 308 -108 basechar 0
AnchorPoint: "unten_anhang" 116 5 basechar 0
AnchorPoint: "top_akzent" 365 850 basechar 0
LayerCount: 2
Fore
SplineSet
307 283 m 2
 474 283 l 1
 433 550 l 1
 431 550 l 1
 286 296 l 2
 285 294 284 292 284 290 c 0
 284 285 291 283 307 283 c 2
161 79 m 2
 156 70 154 63 154 56 c 0
 154 41 165 31 190 29 c 2
 217 27 l 2
 221 27 224 24 223 19 c 2
 220 0 l 1
 217 -2 l 1
 182 -1 131 0 92 0 c 0
 55 0 39 -1 3 -2 c 1
 2 0 l 1
 6 19 l 2
 7 24 10 27 15 27 c 0
 57 30 85 40 122 102 c 2
 437 622 l 2
 453 649 462 658 476 658 c 0
 490 658 493 647 496 628 c 2
 588 86 l 2
 594 47 610 32 648 28 c 2
 658 27 l 2
 663 27 667 24 666 19 c 2
 662 0 l 1
 660 -2 l 1
 625 -1 587 0 548 0 c 0
 511 0 456 -1 420 -2 c 1
 419 0 l 1
 423 19 l 2
 424 24 427 27 431 27 c 2
 459 29 l 2
 492 32 508 41 508 63 c 0
 508 66 508 69 507 72 c 2
 482 241 l 1
 282 241 l 2
 259 241 252 237 245 224 c 2
 161 79 l 2
EndSplineSet
Position2: "'cpsp' Versalabstaende 1" dx=2 dy=0 dh=5 dv=0
Substitution2: "'c2sc' Versale nach Kapitaelchen 1" a.sc
EndChar

StartChar: B
Encoding: 66 66 26
Width: 557
VWidth: 999
Flags: HW
HStem: -2 34<19.1875 57 196.354 372.124> 332 34<250 399.612> 613 34<144 171 298.263 442.673>
VStem: 470 89<131.913 275.098> 486 76<448.468 580.368>
DStem2: 115 71 194 78 0.191235 0.981544<8.11854 280.852 315.372 530.003>
AnchorPoint: "unten_punkt" 268 -108 basechar 0
AnchorPoint: "unten_anhang" 250 0 basechar 0
AnchorPoint: "top_akzent" 267 850 basechar 0
LayerCount: 2
Fore
SplineSet
290 570 m 2
 250 366 l 1
 321 366 l 2
 401 366 465 396 482 481 c 0
 485 494 486 505 486 516 c 0
 486 590 429 613 382 613 c 0
 298 613 296 603 290 570 c 2
244 332 m 1
 194 78 l 2
 193 73 193 68 193 64 c 0
 193 41 208 32 265 32 c 0
 411 32 451 92 466 165 c 0
 468 178 470 190 470 202 c 0
 470 275 423 332 310 332 c 2
 244 332 l 1
20 19 m 2
 21 24 23 27 28 27 c 2
 57 29 l 2
 98 32 108 36 115 71 c 2
 213 574 l 2
 214 581 215 587 215 592 c 0
 215 610 203 614 171 616 c 2
 143 618 l 2
 138 618 137 621 137 625 c 2
 141 645 l 1
 144 647 l 1
 189 646 228 645 265 645 c 0
 304 645 348 647 382 647 c 0
 528 647 562 588 562 530 c 0
 562 517 560 505 558 493 c 0
 548 439 496 387 443 362 c 1
 443 360 l 1
 511 338 559 294 559 221 c 0
 559 209 557 197 555 184 c 0
 538 98 468 -2 277 -2 c 0
 191 -2 178 0 140 0 c 0
 102 0 63 -1 18 -2 c 1
 16 0 l 1
 20 19 l 2
EndSplineSet
Position2: "'cpsp' Versalabstaende 1" dx=2 dy=0 dh=5 dv=0
Substitution2: "'c2sc' Versale nach Kapitaelchen 1" b.sc
EndChar

StartChar: C
Encoding: 67 67 27
Width: 616
VWidth: 999
Flags: HW
HStem: -10 41<263.539 442.931> 621 37<378.333 542.55>
VStem: 89 86<134.194 369.83> 632 29<458 520.049>
AnchorPoint: "unten_punkt" 333 -110 basechar 0
AnchorPoint: "unten_anhang" 356 -7 basechar 0
AnchorPoint: "top_akzent" 340 850 basechar 0
LayerCount: 2
Fore
SplineSet
338 -10 m 0
 164 -10 89 108 89 241 c 0
 89 266 91 290 96 315 c 0
 134 512 310 658 469 658 c 0
 587 658 616 616 670 613 c 1
 664 559 662 510 661 458 c 1
 632 454 l 1
 624 540 584 621 451 621 c 0
 375 621 223 537 183 334 c 0
 178 306 175 277 175 250 c 0
 175 133 225 31 345 31 c 0
 434 31 506 62 589 140 c 1
 600 140 605 134 608 125 c 1
 526 36 431 -10 338 -10 c 0
EndSplineSet
Position2: "'cpsp' Versalabstaende 1" dx=2 dy=0 dh=5 dv=0
Substitution2: "'c2sc' Versale nach Kapitaelchen 1" c.sc
EndChar

StartChar: D
Encoding: 68 68 28
Width: 667
VWidth: 999
Flags: HW
HStem: -2 34<18.5312 57 194.19 406.662> 613 34<144 171 303.002 473.006>
VStem: 603 91<255.103 483.837>
AnchorPoint: "unten_punkt" 279 -107 basechar 0
AnchorPoint: "unten_anhang" 279 4 basechar 0
AnchorPoint: "top_akzent" 306 850 basechar 0
LayerCount: 2
Fore
SplineSet
19 18 m 2
 20 23 24 27 28 27 c 2
 57 29 l 2
 91 31 110 42 116 74 c 2
 213 572 l 2
 214 579 215 585 215 590 c 0
 215 610 202 614 171 616 c 2
 145 618 l 2
 140 618 137 621 138 626 c 2
 141 645 l 1
 144 647 l 1
 189 646 228 645 265 645 c 0
 304 645 361 647 422 647 c 0
 583 647 694 530 694 375 c 0
 694 354 691 331 687 308 c 0
 639 62 449 -2 313 -2 c 0
 214 -2 177 0 140 0 c 0
 101 0 63 -1 18 -2 c 1
 16 0 l 1
 19 18 l 2
193 73 m 2
 192 68 192 64 192 60 c 0
 192 39 210 32 290 32 c 0
 425 32 555 82 594 284 c 0
 600 314 603 344 603 374 c 0
 603 499 546 613 379 613 c 0
 332 613 298 609 291 574 c 2
 193 73 l 2
EndSplineSet
Position2: "'cpsp' Versalabstaende 1" dx=2 dy=0 dh=5 dv=0
Substitution2: "'c2sc' Versale nach Kapitaelchen 1" d.sc
EndChar

StartChar: E
Encoding: 69 69 29
Width: 526
VWidth: 999
Flags: HW
HStem: -2 29<13.5 53> 0 39<187.07 414.098> 323 38<245 398.75> 416 20G<437 463> 605 40<289.999 488.076> 618 29<139 167>
VStem: 398 31<255 293.293> 517 28<501 562.787>
DStem2: 111 72 188 72 0.190817 0.981626<4.37501 270.431 309.259 522.297>
AnchorPoint: "unten_punkt" 269 -107 basechar 0
AnchorPoint: "unten_anhang" 279 4 basechar 0
AnchorPoint: "top_akzent" 273 850 basechar 0
LayerCount: 2
Fore
SplineSet
553 646 m 0
 553 638 549 542 545 501 c 1
 517 496 l 1
 509 565 499 605 427 605 c 2
 327 605 l 2
 304 605 290 595 285 571 c 2
 245 361 l 1
 367 361 l 2
 400 361 414 375 423 403 c 1
 430 428 l 2
 431 432 435 436 439 436 c 2
 460 436 l 1
 463 432 l 1
 452 392 445 362 442 342 c 0
 438 322 433 295 429 255 c 1
 424 252 l 1
 403 252 l 2
 398 252 397 257 398 260 c 2
 400 285 l 2
 400 288 400 291 400 293 c 0
 400 316 389 323 359 323 c 2
 237 323 l 1
 188 72 l 2
 187 68 187 65 187 62 c 0
 187 43 199 39 217 39 c 2
 347 39 l 2
 420 39 469 98 502 170 c 1
 531 165 l 1
 509 113 484 50 463 -2 c 1
 463 -2 387 0 341 0 c 2
 135 0 l 2
 98 0 58 -1 13 -2 c 1
 11 0 l 1
 15 20 l 2
 16 23 18 27 24 27 c 2
 53 29 l 2
 91 32 105 44 111 72 c 2
 208 571 l 2
 209 576 210 581 210 585 c 0
 210 606 197 614 167 616 c 2
 139 618 l 2
 132 618 132 622 133 625 c 2
 137 645 l 1
 139 647 l 1
 184 646 223 645 260 645 c 2
 503 645 l 2
 526 645 532 646 549 649 c 0
 552 649 553 648 553 646 c 0
EndSplineSet
Position2: "'cpsp' Versalabstaende 1" dx=2 dy=0 dh=5 dv=0
Substitution2: "'c2sc' Versale nach Kapitaelchen 1" e.sc
EndChar

StartChar: F
Encoding: 70 70 30
Width: 457
VWidth: 999
Flags: HW
HStem: -2 29<14.6875 51 233 258> 323 38<245 398.75> 416 20G<437 463> 605 40<289.999 488.076> 618 29<139 167>
VStem: 398 31<255 293.293> 517 28<501 562.787>
DStem2: 80.969 -2 164.525 -2 0.21644 0.976296<389.898 601.349> 94.1512 -2 172.151 -2 0.21644 0.976296<81.4519 94.7275 387.045 479.158>
AnchorPoint: "unten_punkt" 131 -111 basechar 0
AnchorPoint: "unten_anhang" 145 -1 basechar 0
AnchorPoint: "top_akzent" 276 850 basechar 0
LayerCount: 2
Fore
SplineSet
359 323 m 2
 237 323 l 1
 189 74 l 2
 188 69 188 65 188 61 c 0
 188 40 201 32 233 29 c 2
 257 27 l 2
 262 27 265 24 264 19 c 2
 260 0 l 1
 258 -2 l 1
 213 -1 174 0 135 0 c 0
 98 0 59 -1 14 -2 c 1
 12 0 l 1
 16 19 l 2
 17 24 20 27 25 27 c 2
 51 29 l 2
 92 32 106 46 111 74 c 2
 208 571 l 2
 209 576 210 581 210 586 c 0
 210 606 197 614 167 616 c 2
 139 618 l 2
 132 618 132 622 133 625 c 2
 137 645 l 1
 139 647 l 1
 184 646 223 645 260 645 c 2
 504 645 l 2
 527 645 532 646 550 649 c 0
 552 649 553 648 553 646 c 0
 553 638 548 542 545 501 c 1
 517 496 l 1
 509 565 499 605 427 605 c 2
 327 605 l 2
 304 605 290 595 285 571 c 2
 245 361 l 1
 367 361 l 2
 400 361 414 375 423 403 c 1
 430 428 l 2
 431 432 435 436 439 436 c 2
 460 436 l 1
 463 432 l 1
 452 392 445 362 442 342 c 0
 438 322 433 295 429 255 c 1
 424 252 l 1
 403 252 l 2
 398 252 397 257 398 260 c 2
 400 285 l 2
 400 288 400 291 400 293 c 0
 400 316 389 323 359 323 c 2
EndSplineSet
Position2: "'cpsp' Versalabstaende 1" dx=2 dy=0 dh=5 dv=0
Substitution2: "'c2sc' Versale nach Kapitaelchen 1" f.sc
EndChar

StartChar: G
Encoding: 71 71 31
Width: 664
VWidth: 999
Flags: HW
HStem: -10 36<300.134 477.835> 271 36<494 517 649.459 700.951> 621 37<384.045 560.462>
VStem: 84 88<154.492 358.027> 649 30<459 522.487>
DStem2: 513.378 -10 590.175 -10 0.21644 0.976296<115.709 254.496>
AnchorPoint: "unten_punkt" 345 -110 basechar 0
AnchorPoint: "unten_anhang" 365 2 basechar 0
AnchorPoint: "top_akzent" 363 850 basechar 0
LayerCount: 2
Fore
SplineSet
487 658 m 0
 604 658 630 613 688 613 c 1
 681 541 679 501 679 459 c 1
 649 453 l 1
 641 539 606 621 467 621 c 0
 337 621 211 502 177 327 c 0
 173 308 172 288 172 268 c 0
 172 149 236 26 382 26 c 0
 434 26 493 42 532 74 c 1
 562 227 l 2
 563 232 563 236 563 240 c 0
 563 260 549 266 517 269 c 2
 493 271 l 2
 489 271 486 274 487 279 c 2
 492 305 l 1
 494 307 l 1
 539 306 578 305 615 305 c 0
 654 305 675 306 704 307 c 1
 706 305 l 1
 701 279 l 2
 700 274 696 272 691 271 c 0
 663 268 646 262 640 227 c 2
 617 111 l 2
 615 100 618 92 627 83 c 1
 550 25 466 -10 353 -10 c 0
 184 -10 84 100 84 243 c 0
 84 264 86 285 90 307 c 0
 133 527 322 658 487 658 c 0
EndSplineSet
Position2: "'cpsp' Versalabstaende 1" dx=2 dy=0 dh=5 dv=0
Substitution2: "'c2sc' Versale nach Kapitaelchen 1" g.sc
EndChar

StartChar: grave
Encoding: 96 96 32
Width: 392
VWidth: 999
Flags: HMW
LayerCount: 2
Fore
SplineSet
301 698 m 1
 349 573 l 2
 351 567 352 562 352 558 c 0
 352 555 352 552 351 549 c 0
 350 544 342 538 335 538 c 0
 328 538 322 543 309 558 c 2
 214 667 l 1
 218 677 l 1
 229 683 251 701 287 701 c 0
 292 701 298 700 301 698 c 1
EndSplineSet
Substitution2: "'case' Versalformen 1" uni0358
EndChar

StartChar: ograve
Encoding: 242 242 33
Width: 447
VWidth: 999
Flags: HW
HStem: -12 36<200 296> 409 33<249 355>
VStem: 78 84<61 275> 384 81<165 381>
AnchorPoint: "komb_OR" 420 396 basechar 0
LayerCount: 2
Fore
SplineSet
162 170 m 0
 162 42 212 25 243 25 c 0
 355 25 384 205 384 270 c 0
 384 334 384 406 306 406 c 0
 192 406 162 260 162 170 c 0
78 162 m 0
 78 282 157 439 324 439 c 0
 447 439 465 349 465 277 c 0
 465 119 346 -10 218 -10 c 0
 91 -10 78 109 78 162 c 0
343 671 m 1
 412 545 l 2
 418 535 419 528 419 521 c 0
 419 516 412 510 404 510 c 0
 398 510 391 515 375 530 c 2
 261 639 l 1
 263 650 l 1
 271 656 294 673 328 673 c 0
 333 673 339 672 343 671 c 1
EndSplineSet
Substitution2: "'smcp' Gemeine nach Kapitaelchen 1" ograve.sc
AlternateSubs2: "LinLibertine-'aalt' Alle Alternativen zeigen 1" ograve.sc
EndChar

StartChar: oacute
Encoding: 243 243 34
Width: 447
VWidth: 999
Flags: HW
HStem: -12 36<200 296> 409 33<249 355>
VStem: 78 84<61 275> 384 81<165 381>
AnchorPoint: "komb_OR" 420 396 basechar 0
LayerCount: 2
Fore
SplineSet
162 170 m 0
 162 42 212 25 243 25 c 0
 355 25 384 205 384 270 c 0
 384 334 384 406 306 406 c 0
 192 406 162 260 162 170 c 0
78 162 m 0
 78 282 157 439 324 439 c 0
 447 439 465 349 465 277 c 0
 465 119 346 -10 218 -10 c 0
 91 -10 78 109 78 162 c 0
348 658 m 1
 350 658 353 659 356 659 c 0
 393 659 410 630 414 627 c 1
 415 616 l 1
 286 525 l 2
 269 514 262 510 256 510 c 0
 246 510 241 518 241 522 c 0
 241 527 243 537 251 545 c 2
 348 658 l 1
EndSplineSet
Substitution2: "'smcp' Gemeine nach Kapitaelchen 1" oacute.sc
AlternateSubs2: "LinLibertine-'aalt' Alle Alternativen zeigen 1" oacute.sc
EndChar

StartChar: ocircumflex
Encoding: 244 244 35
Width: 447
VWidth: 999
Flags: HW
HStem: -12 36<200 296> 409 33<249 355>
VStem: 78 84<61 275> 384 81<165 381>
AnchorPoint: "komb_OR" 420 396 basechar 0
LayerCount: 2
Fore
SplineSet
162 170 m 0
 162 42 212 25 243 25 c 0
 355 25 384 205 384 270 c 0
 384 334 384 406 306 406 c 0
 192 406 162 260 162 170 c 0
78 162 m 0
 78 282 157 439 324 439 c 0
 447 439 465 349 465 277 c 0
 465 119 346 -10 218 -10 c 0
 91 -10 78 109 78 162 c 0
380 653 m 1
 398 606 425 563 451 523 c 1
 428 510 l 1
 396 539 368 564 342 600 c 1
 296 562 258 537 214 510 c 1
 198 523 l 1
 242 563 291 607 331 653 c 1
 380 653 l 1
EndSplineSet
Substitution2: "'smcp' Gemeine nach Kapitaelchen 1" ocircumflex.sc
AlternateSubs2: "LinLibertine-'aalt' Alle Alternativen zeigen 1" ocircumflex.sc
EndChar

StartChar: otilde
Encoding: 245 245 36
Width: 447
VWidth: 999
Flags: HW
HStem: -12 36<200 296> 409 33<249 355> 525 44<342 424> 574 46<220 306>
VStem: 78 84<61 275> 175 297 384 81<165 381>
AnchorPoint: "komb_OR" 420 396 basechar 0
LayerCount: 2
Fore
SplineSet
162 170 m 0
 162 42 212 25 243 25 c 0
 355 25 384 205 384 270 c 0
 384 334 384 406 306 406 c 0
 192 406 162 260 162 170 c 0
78 162 m 0
 78 282 157 439 324 439 c 0
 447 439 465 349 465 277 c 0
 465 119 346 -10 218 -10 c 0
 91 -10 78 109 78 162 c 0
388 570 m 0
 409 570 426 580 450 622 c 1
 472 616 l 1
 446 556 411 526 364 526 c 0
 342 526 325 538 307 552 c 1
 291 563 275 574 257 574 c 0
 231 574 215 559 198 526 c 1
 175 531 l 1
 203 590 232 620 275 620 c 0
 306 620 324 606 341 592 c 0
 354 580 369 570 388 570 c 0
EndSplineSet
Substitution2: "'smcp' Gemeine nach Kapitaelchen 1" otilde.sc
AlternateSubs2: "LinLibertine-'aalt' Alle Alternativen zeigen 1" otilde.sc
EndChar

StartChar: odieresis
Encoding: 246 246 37
Width: 447
VWidth: 999
Flags: HW
HStem: -12 36<200 296> 409 33<249 355> 527 90<218 286 378 447>
VStem: 78 84<61 275> 205 93<538 606> 366 93<539 606> 384 81<165 381>
LayerCount: 2
Fore
SplineSet
205 564 m 0
 205 585 226 617 257 617 c 0
 279 617 298 601 298 580 c 0
 298 559 277 527 246 527 c 0
 224 527 205 543 205 564 c 0
366 564 m 0
 366 586 387 618 418 618 c 0
 440 618 459 602 459 581 c 0
 459 559 438 527 407 527 c 0
 385 527 366 543 366 564 c 0
162 170 m 0
 162 42 212 25 243 25 c 0
 355 25 384 205 384 270 c 0
 384 334 384 406 306 406 c 0
 192 406 162 260 162 170 c 0
78 162 m 0
 78 282 157 439 324 439 c 0
 447 439 465 349 465 277 c 0
 465 119 346 -10 218 -10 c 0
 91 -10 78 109 78 162 c 0
EndSplineSet
Substitution2: "'smcp' Gemeine nach Kapitaelchen 1" odieresis.sc
AlternateSubs2: "LinLibertine-'aalt' Alle Alternativen zeigen 1" odieresis.sc
EndChar

StartChar: divide
Encoding: 247 247 38
Width: 527
VWidth: 999
Flags: HW
HStem: 34 99<247 315> 219 49<128 512> 359 99<318 387>
VStem: 230 101<50 116> 302 101<376 442>
LayerCount: 2
Fore
SplineSet
230 72 m 0
 230 102 259 132 292 132 c 0
 315 132 331 116 331 94 c 0
 331 60 298 34 269 34 c 0
 246 34 230 50 230 72 c 0
302 397 m 0
 302 428 331 458 364 458 c 0
 387 458 403 441 403 419 c 0
 403 386 370 359 341 359 c 0
 317 359 302 375 302 397 c 0
523 268 m 1
 512 219 l 1
 116 219 l 1
 128 268 l 1
 523 268 l 1
EndSplineSet
EndChar

StartChar: ugrave
Encoding: 249 249 39
Width: 521
VWidth: 999
Flags: HW
HStem: -12 52<166 263 407 467> 385 57<169 241> 510 163<335 411>
VStem: 268 158<521 639>
DStem2: 127 135 206 149 0.247598 0.968863<33.0628 181.431> 376 96 452 125 0.218267 0.975889<44.7379 342.236>
LayerCount: 2
Fore
SplineSet
226 439 m 0
 260 439 267 426 267 402 c 0
 267 383 260 350 251 316 c 2
 208 151 l 2
 201 124 198 102 198 86 c 0
 198 53 211 42 229 42 c 0
 279 42 330 117 404 243 c 1
 448 433 l 1
 459 433 502 438 523 442 c 1
 450 127 l 2
 442 95 438 69 438 59 c 0
 438 48 449 45 451 45 c 0
 462 45 478 67 504 106 c 1
 527 90 l 1
 491 27 452 -10 406 -10 c 0
 372 -10 363 16 363 35 c 0
 363 47 366 70 374 98 c 2
 389 154 l 1
 386 156 l 1
 315 52 276 -10 187 -10 c 0
 149 -10 120 13 120 70 c 0
 120 89 123 111 130 137 c 2
 175 308 l 2
 184 341 186 358 186 368 c 0
 186 379 180 382 173 382 c 0
 162 382 143 363 112 327 c 1
 90 344 l 1
 125 392 181 439 226 439 c 0
350 671 m 1
 419 545 l 2
 425 535 426 528 426 521 c 0
 426 516 419 510 411 510 c 0
 405 510 398 515 382 530 c 2
 268 639 l 1
 270 650 l 1
 278 656 301 673 335 673 c 0
 340 673 346 672 350 671 c 1
EndSplineSet
Substitution2: "'smcp' Gemeine nach Kapitaelchen 1" ugrave.sc
AlternateSubs2: "LinLibertine-'aalt' Alle Alternativen zeigen 1" ugrave.sc
EndChar

StartChar: uacute
Encoding: 250 250 40
Width: 521
VWidth: 999
Flags: HW
HStem: -12 52<166 263 407 467> 385 57<169 241> 515 149<348 448>
VStem: 333 174<527 621>
DStem2: 127 135 206 149 0.247598 0.968863<33.0628 181.431> 376 96 452 125 0.218267 0.975889<44.7379 342.236>
LayerCount: 2
Fore
SplineSet
226 439 m 0
 260 439 267 426 267 402 c 0
 267 383 260 350 251 316 c 2
 208 151 l 2
 201 124 198 102 198 86 c 0
 198 53 211 42 229 42 c 0
 279 42 330 117 404 243 c 1
 448 433 l 1
 459 433 502 438 523 442 c 1
 450 127 l 2
 442 95 438 69 438 59 c 0
 438 48 449 45 451 45 c 0
 462 45 478 67 504 106 c 1
 527 90 l 1
 491 27 452 -10 406 -10 c 0
 372 -10 363 16 363 35 c 0
 363 47 366 70 374 98 c 2
 389 154 l 1
 386 156 l 1
 315 52 276 -10 187 -10 c 0
 149 -10 120 13 120 70 c 0
 120 89 123 111 130 137 c 2
 175 308 l 2
 184 341 186 358 186 368 c 0
 186 379 180 382 173 382 c 0
 162 382 143 363 112 327 c 1
 90 344 l 1
 125 392 181 439 226 439 c 0
431 658 m 1
 433 658 436 659 439 659 c 0
 476 659 493 630 497 627 c 1
 498 616 l 1
 369 525 l 2
 352 514 345 510 339 510 c 0
 329 510 324 518 324 522 c 0
 324 527 326 537 334 545 c 2
 431 658 l 1
EndSplineSet
Substitution2: "'smcp' Gemeine nach Kapitaelchen 1" uacute.sc
AlternateSubs2: "LinLibertine-'aalt' Alle Alternativen zeigen 1" uacute.sc
EndChar

StartChar: ucircumflex
Encoding: 251 251 41
Width: 521
VWidth: 999
Flags: HW
HStem: -12 52<166 263 407 467> 385 57<169 241> 510 143<428 476>
VStem: 246 253<523 523>
DStem2: 127 135 206 149 0.247598 0.968863<33.0628 181.431> 376 96 452 125 0.218267 0.975889<44.7379 342.236>
LayerCount: 2
Fore
SplineSet
226 439 m 0
 260 439 267 426 267 402 c 0
 267 383 260 350 251 316 c 2
 208 151 l 2
 201 124 198 102 198 86 c 0
 198 53 211 42 229 42 c 0
 279 42 330 117 404 243 c 1
 448 433 l 1
 459 433 502 438 523 442 c 1
 450 127 l 2
 442 95 438 69 438 59 c 0
 438 48 449 45 451 45 c 0
 462 45 478 67 504 106 c 1
 527 90 l 1
 491 27 452 -10 406 -10 c 0
 372 -10 363 16 363 35 c 0
 363 47 366 70 374 98 c 2
 389 154 l 1
 386 156 l 1
 315 52 276 -10 187 -10 c 0
 149 -10 120 13 120 70 c 0
 120 89 123 111 130 137 c 2
 175 308 l 2
 184 341 186 358 186 368 c 0
 186 379 180 382 173 382 c 0
 162 382 143 363 112 327 c 1
 90 344 l 1
 125 392 181 439 226 439 c 0
428 653 m 1
 446 606 473 563 499 523 c 1
 476 510 l 1
 444 539 416 564 390 600 c 1
 344 562 306 537 262 510 c 1
 246 523 l 1
 290 563 339 607 379 653 c 1
 428 653 l 1
EndSplineSet
Substitution2: "'smcp' Gemeine nach Kapitaelchen 1" ucircumflex.sc
AlternateSubs2: "LinLibertine-'aalt' Alle Alternativen zeigen 1" ucircumflex.sc
EndChar

StartChar: ebreve
Encoding: 277 277 42
Width: 411
VWidth: 999
Flags: HW
HStem: -12 49<195 327> 238 39<122 316> 408 34<193 288> 500 57<167 304>
VStem: 42 76<126 275 277 312> 101 27<598 636> 320 80<262 362> 344 26<597 636>
LayerCount: 2
Fore
SplineSet
365 370 m 0
 365 399 349 408 313 408 c 0
 265 408 206 377 171 226 c 1
 248 232 365 275 365 370 c 0
167 199 m 1
 166 191 166 170 166 165 c 0
 166 74 204 38 249 38 c 0
 297 38 330 66 384 124 c 1
 396 124 401 119 406 108 c 1
 350 31 294 -10 213 -10 c 0
 111 -10 83 57 83 142 c 0
 83 269 165 439 336 439 c 0
 417 439 435 404 435 369 c 0
 435 331 428 250 167 199 c 1
264 650 m 1
 263 644 263 639 263 634 c 0
 263 590 298 558 352 558 c 0
 398 558 464 588 481 650 c 1
 504 636 l 1
 471 535 389 501 339 501 c 0
 270 501 232 546 232 611 c 0
 232 619 233 627 234 636 c 1
 264 650 l 1
EndSplineSet
EndChar

StartChar: Edotaccent
Encoding: 278 278 43
Width: 526
VWidth: 999
Flags: HW
HStem: -2 29<14 97> 0 39<183 449> 327 34<182 361> 605 39<183 418> 618 29<14 98> 692 96<241 320>
VStem: 102 81<40 327 361 604> 232 96<700 779> 375 34<248 283 405 442>
LayerCount: 2
Fore
SplineSet
553 646 m 0
 553 638 549 542 545 501 c 1
 517 496 l 1
 509 565 499 605 427 605 c 2
 327 605 l 2
 304 605 290 595 285 571 c 2
 245 361 l 1
 367 361 l 2
 400 361 414 375 423 403 c 1
 430 428 l 2
 431 432 435 436 439 436 c 2
 460 436 l 1
 463 432 l 1
 452 392 445 362 442 342 c 0
 438 322 433 295 429 255 c 1
 424 252 l 1
 403 252 l 2
 398 252 397 257 398 260 c 2
 400 285 l 2
 400 288 400 291 400 293 c 0
 400 316 389 323 359 323 c 2
 237 323 l 1
 188 72 l 2
 187 68 187 65 187 62 c 0
 187 43 199 39 217 39 c 2
 347 39 l 2
 420 39 469 98 502 170 c 1
 531 165 l 1
 509 113 484 50 463 -2 c 1
 463 -2 387 0 341 0 c 2
 135 0 l 2
 98 0 58 -1 13 -2 c 1
 11 0 l 1
 15 20 l 2
 16 23 18 27 24 27 c 2
 53 29 l 2
 91 32 105 44 111 72 c 2
 208 571 l 2
 209 576 210 581 210 585 c 0
 210 606 197 614 167 616 c 2
 139 618 l 2
 132 618 132 622 133 625 c 2
 137 645 l 1
 139 647 l 1
 184 646 223 645 260 645 c 2
 503 645 l 2
 526 645 532 646 549 649 c 0
 552 649 553 648 553 646 c 0
436 788 m 0
 458 788 477 772 477 747 c 0
 477 717 450 692 422 692 c 0
 397 692 380 710 380 732 c 0
 380 760 404 788 436 788 c 0
EndSplineSet
Position2: "'cpsp' Versalabstaende 1" dx=2 dy=0 dh=5 dv=0
EndChar

StartChar: edotaccent
Encoding: 279 279 44
Width: 411
VWidth: 999
Flags: HW
HStem: -12 48<200 307> 411 31<262 358> 522 96<306 378>
VStem: 83 83<72 230> 294 97<534 606> 365 69<308 407>
LayerCount: 2
Fore
SplineSet
365 370 m 0
 365 399 349 408 313 408 c 0
 265 408 206 377 171 226 c 1
 248 232 365 275 365 370 c 0
167 199 m 1
 166 191 166 170 166 165 c 0
 166 74 204 38 249 38 c 0
 297 38 330 66 384 124 c 1
 396 124 401 119 406 108 c 1
 350 31 294 -10 213 -10 c 0
 111 -10 83 57 83 142 c 0
 83 269 165 439 336 439 c 0
 417 439 435 404 435 369 c 0
 435 331 428 250 167 199 c 1
350 619 m 0
 372 619 391 603 391 578 c 0
 391 548 364 523 336 523 c 0
 311 523 294 541 294 563 c 0
 294 591 318 619 350 619 c 0
EndSplineSet
EndChar

StartChar: Eogonek
Encoding: 280 280 45
Width: 526
VWidth: 999
Flags: HW
HStem: -224 40<383 473> -2 29<14 97> 0 25<436 485> 0 39<183 449> 327 34<182 361> 605 39<183 418> 618 29<14 98>
VStem: 102 81<40 327 361 604> 311 60<-173 -74> 375 34<248 283 405 442>
LayerCount: 2
Fore
SplineSet
404 -224 m 0
 351 -224 311 -193 311 -139 c 0
 311 -92 350 -34 410 -1 c 1
 387 -0 361 -0 341 0 c 2
 135 0 l 2
 98 0 58 -1 13 -2 c 1
 11 0 l 1
 15 20 l 2
 16 23 18 27 24 27 c 2
 53 29 l 2
 91 32 105 44 111 72 c 2
 208 571 l 2
 209 576 210 581 210 585 c 0
 210 606 197 614 167 616 c 2
 139 618 l 2
 132 618 132 622 133 625 c 2
 137 645 l 1
 139 647 l 1
 184 646 223 645 260 645 c 2
 503 645 l 2
 526 645 532 646 549 649 c 0
 552 649 553 648 553 646 c 0
 553 638 549 542 545 501 c 1
 517 496 l 1
 509 565 499 605 427 605 c 2
 327 605 l 2
 304 605 290 595 285 571 c 2
 245 361 l 1
 367 361 l 2
 400 361 414 375 423 403 c 1
 430 428 l 2
 431 432 435 436 439 436 c 2
 460 436 l 1
 463 432 l 1
 452 392 445 362 442 342 c 0
 438 322 433 295 429 255 c 1
 424 252 l 1
 403 252 l 2
 398 252 397 257 398 260 c 2
 400 285 l 2
 400 288 400 291 400 293 c 0
 400 316 389 323 359 323 c 2
 237 323 l 1
 188 72 l 2
 187 68 187 65 187 62 c 0
 187 43 199 39 217 39 c 2
 347 39 l 2
 420 39 469 98 502 170 c 1
 531 165 l 1
 473 23 l 1
 477 24 481 24 485 25 c 1
 506 0 l 1
 426 0 371 -75 371 -126 c 0
 371 -158 393 -185 429 -185 c 0
 459 -185 479 -170 499 -149 c 1
 514 -157 l 1
 490 -204 440 -224 404 -224 c 0
EndSplineSet
Position2: "'cpsp' Versalabstaende 1" dx=2 dy=0 dh=5 dv=0
Substitution2: "'c2sc' Versale nach Kapitaelchen 1" eogonek.sc
EndChar

StartChar: eogonek
Encoding: 281 281 46
Width: 437
VWidth: 999
Flags: HW
HStem: -208 39<240 322> -12 48<201 289> 411 31<276 393>
VStem: 75 83<82 212> 171 61<-162 -77> 398 69<311 404>
LayerCount: 2
Fore
SplineSet
164 211 m 1
 240 218 398 260 398 371 c 0
 398 400 373 411 338 411 c 0
 289 411 198 363 164 211 c 1
468 370 m 0
 468 332 433 219 159 185 c 1
 158 177 158 170 158 165 c 0
 158 74 212 36 257 36 c 0
 305 36 349 64 402 122 c 1
 424 106 l 1
 399 71 372 44 342 24 c 1
 302 -7 232 -69 232 -125 c 0
 232 -148 251 -170 284 -170 c 0
 314 -170 333 -156 358 -134 c 1
 372 -141 l 1
 335 -186 295 -208 254 -208 c 0
 206 -208 171 -186 171 -142 c 0
 171 -93 212 -46 255 -10 c 1
 244 -11 233 -12 221 -12 c 0
 119 -12 75 57 75 142 c 0
 75 269 189 442 360 442 c 0
 441 442 468 405 468 370 c 0
EndSplineSet
Substitution2: "'smcp' Gemeine nach Kapitaelchen 1" eogonek.sc
AlternateSubs2: "LinLibertine-'aalt' Alle Alternativen zeigen 1" eogonek.sc
EndChar

StartChar: Ecaron
Encoding: 282 282 47
Width: 526
VWidth: 999
Flags: HW
HStem: -2 29<14 97> 0 39<183 449> 327 34<182 361> 605 39<183 418> 618 29<14 98>
VStem: 102 81<40 327 361 604> 375 34<248 283 405 442>
LayerCount: 2
Fore
SplineSet
553 646 m 0
 553 638 549 542 545 501 c 1
 517 496 l 1
 509 565 499 605 427 605 c 2
 327 605 l 2
 304 605 290 595 285 571 c 2
 245 361 l 1
 367 361 l 2
 400 361 414 375 423 403 c 1
 430 428 l 2
 431 432 435 436 439 436 c 2
 460 436 l 1
 463 432 l 1
 452 392 445 362 442 342 c 0
 438 322 433 295 429 255 c 1
 424 252 l 1
 403 252 l 2
 398 252 397 257 398 260 c 2
 400 285 l 2
 400 288 400 291 400 293 c 0
 400 316 389 323 359 323 c 2
 237 323 l 1
 188 72 l 2
 187 68 187 65 187 62 c 0
 187 43 199 39 217 39 c 2
 347 39 l 2
 420 39 469 98 502 170 c 1
 531 165 l 1
 509 113 484 50 463 -2 c 1
 463 -2 387 0 341 0 c 2
 135 0 l 2
 98 0 58 -1 13 -2 c 1
 11 0 l 1
 15 20 l 2
 16 23 18 27 24 27 c 2
 53 29 l 2
 91 32 105 44 111 72 c 2
 208 571 l 2
 209 576 210 581 210 585 c 0
 210 606 197 614 167 616 c 2
 139 618 l 2
 132 618 132 622 133 625 c 2
 137 645 l 1
 139 647 l 1
 184 646 223 645 260 645 c 2
 503 645 l 2
 526 645 532 646 549 649 c 0
 552 649 553 648 553 646 c 0
389 697 m 1
 368 734 340 764 310 792 c 1
 330 812 l 1
 366 795 395 776 423 751 c 1
 465 777 502 796 544 812 c 1
 554 792 l 1
 510 763 470 731 432 697 c 1
 389 697 l 1
EndSplineSet
Position2: "'cpsp' Versalabstaende 1" dx=2 dy=0 dh=5 dv=0
Substitution2: "'c2sc' Versale nach Kapitaelchen 1" ecaron.sc
EndChar

StartChar: ecaron
Encoding: 283 283 48
Width: 411
VWidth: 999
Flags: HW
HStem: -12 48<200 307> 411 31<262 358>
VStem: 83 83<72 230> 365 69<308 407>
LayerCount: 2
Fore
SplineSet
365 370 m 0
 365 399 349 408 313 408 c 0
 265 408 206 377 171 226 c 1
 248 232 365 275 365 370 c 0
167 199 m 1
 166 191 166 170 166 165 c 0
 166 74 204 38 249 38 c 0
 297 38 330 66 384 124 c 1
 396 124 401 119 406 108 c 1
 350 31 294 -10 213 -10 c 0
 111 -10 83 57 83 142 c 0
 83 269 165 439 336 439 c 0
 417 439 435 404 435 369 c 0
 435 331 428 250 167 199 c 1
302 502 m 1
 284 548 257 594 231 631 c 1
 255 645 l 1
 287 616 313 590 339 554 c 1
 385 592 425 618 468 645 c 1
 484 631 l 1
 440 592 392 547 352 502 c 1
 302 502 l 1
EndSplineSet
Substitution2: "'smcp' Gemeine nach Kapitaelchen 1" ecaron.sc
AlternateSubs2: "LinLibertine-'aalt' Alle Alternativen zeigen 1" ecaron.sc
EndChar

StartChar: Gcircumflex
Encoding: 284 284 49
Width: 664
VWidth: 999
Flags: HW
HStem: -12 37<292 497> 271 36<453 535 624 672> 621 37<269 472>
VStem: 32 87<215 431> 540 81<97 266>
LayerCount: 2
Fore
SplineSet
487 658 m 0
 604 658 630 613 688 613 c 1
 681 541 679 501 679 459 c 1
 649 453 l 1
 641 539 606 621 467 621 c 0
 337 621 211 502 177 327 c 0
 173 308 172 288 172 268 c 0
 172 149 236 26 382 26 c 0
 434 26 493 42 532 74 c 1
 562 227 l 2
 563 232 563 236 563 240 c 0
 563 260 549 266 517 269 c 2
 493 271 l 2
 489 271 486 274 487 279 c 2
 492 305 l 1
 494 307 l 1
 539 306 578 305 615 305 c 0
 654 305 675 306 704 307 c 1
 706 305 l 1
 701 279 l 2
 700 274 696 272 691 271 c 0
 663 268 646 262 640 227 c 2
 617 111 l 2
 615 100 618 92 627 83 c 1
 550 25 466 -10 353 -10 c 0
 184 -10 84 100 84 243 c 0
 84 264 86 285 90 307 c 0
 133 527 322 658 487 658 c 0
533 805 m 1
 554 769 581 738 612 711 c 1
 591 690 l 1
 556 708 526 727 499 752 c 1
 456 725 420 707 378 690 c 1
 369 711 l 1
 412 739 452 771 490 805 c 1
 533 805 l 1
EndSplineSet
Position2: "'cpsp' Versalabstaende 1" dx=2 dy=0 dh=5 dv=0
EndChar

StartChar: gcircumflex
Encoding: 285 285 50
Width: 477
VWidth: 999
Flags: HW
HStem: -237 39<121 307> -12 56<140 299> 125 28<218 304> 415 27<245 330> 418 41<427 507>
VStem: 9 60<-160 -67> 81 56<49 114> 118 73<178 349> 361 72<218 390> 387 55<-133 -46>
LayerCount: 2
Fore
SplineSet
131 -9 m 1
 106 -27 74 -65 74 -113 c 0
 74 -165 138 -199 250 -199 c 0
 338 -199 392 -125 392 -87 c 0
 392 -52 373 -10 225 -10 c 1
 167 -12 l 2
 153 -12 144 -12 131 -9 c 1
438 305 m 0
 438 183 344 124 253 124 c 0
 216 124 195 131 174 145 c 1
 156 124 142 105 142 82 c 0
 142 54 163 43 193 43 c 0
 202 43 219 44 238 47 c 1
 262 49 289 51 305 51 c 0
 426 51 447 -24 447 -50 c 0
 447 -149 336 -238 199 -238 c 0
 118 -238 7 -217 7 -136 c 0
 7 -76 61 -30 114 -1 c 1
 88 14 86 40 86 50 c 0
 86 90 118 136 153 163 c 1
 132 196 123 228 123 271 c 0
 123 361 206 439 309 439 c 0
 355 439 376 424 397 407 c 1
 435 450 484 455 494 455 c 0
 517 455 533 440 533 421 c 0
 533 401 520 388 502 388 c 0
 484 388 479 397 474 405 c 0
 471 410 468 415 459 415 c 0
 451 415 432 403 416 386 c 1
 433 362 438 328 438 305 c 0
366 305 m 0
 366 365 347 412 296 412 c 0
 227 412 196 344 196 269 c 0
 196 219 199 152 263 152 c 0
 336 152 366 224 366 305 c 0
379 645 m 1
 397 598 424 555 450 515 c 1
 427 502 l 1
 395 531 367 556 341 592 c 1
 295 554 257 529 213 502 c 1
 197 515 l 1
 241 555 290 599 330 645 c 1
 379 645 l 1
EndSplineSet
EndChar

StartChar: Gbreve
Encoding: 286 286 51
Width: 664
VWidth: 999
Flags: HW
HStem: -12 37<292 497> 271 36<453 535 624 672> 621 37<269 472> 693 52<293 449>
VStem: 32 87<215 431> 236 28<766 804> 479 27<768 806> 540 81<97 266>
LayerCount: 2
Fore
SplineSet
487 658 m 0
 604 658 630 613 688 613 c 1
 681 541 679 501 679 459 c 1
 649 453 l 1
 641 539 606 621 467 621 c 0
 337 621 211 502 177 327 c 0
 173 308 172 288 172 268 c 0
 172 149 236 26 382 26 c 0
 434 26 493 42 532 74 c 1
 562 227 l 2
 563 232 563 236 563 240 c 0
 563 260 549 266 517 269 c 2
 493 271 l 2
 489 271 486 274 487 279 c 2
 492 305 l 1
 494 307 l 1
 539 306 578 305 615 305 c 0
 654 305 675 306 704 307 c 1
 706 305 l 1
 701 279 l 2
 700 274 696 272 691 271 c 0
 663 268 646 262 640 227 c 2
 617 111 l 2
 615 100 618 92 627 83 c 1
 550 25 466 -10 353 -10 c 0
 184 -10 84 100 84 243 c 0
 84 264 86 285 90 307 c 0
 133 527 322 658 487 658 c 0
503 693 m 0
 423 693 387 738 387 795 c 0
 387 799 387 803 387 806 c 1
 415 806 l 1
 415 802 417 745 512 745 c 0
 563 745 617 769 631 806 c 1
 658 806 l 1
 641 731 564 693 503 693 c 0
EndSplineSet
Position2: "'cpsp' Versalabstaende 1" dx=2 dy=0 dh=5 dv=0
Substitution2: "'c2sc' Versale nach Kapitaelchen 1" gbreve.sc
EndChar

StartChar: gbreve
Encoding: 287 287 52
Width: 477
VWidth: 999
Flags: HW
HStem: -237 39<121 307> -12 56<140 299> 125 28<218 304> 415 27<245 330> 418 41<427 507> 497 57<268 393>
VStem: 9 60<-160 -67> 81 56<49 114> 118 73<178 349> 212 30<578 636> 361 72<218 390> 387 55<-133 -46>
LayerCount: 2
Fore
SplineSet
131 -9 m 1
 106 -27 74 -65 74 -113 c 0
 74 -165 138 -199 250 -199 c 0
 338 -199 392 -125 392 -87 c 0
 392 -52 373 -10 225 -10 c 1
 167 -12 l 2
 153 -12 144 -12 131 -9 c 1
438 305 m 0
 438 183 344 124 253 124 c 0
 216 124 195 131 174 145 c 1
 156 124 142 105 142 82 c 0
 142 54 163 43 193 43 c 0
 202 43 219 44 238 47 c 1
 262 49 289 51 305 51 c 0
 426 51 447 -24 447 -50 c 0
 447 -149 336 -238 199 -238 c 0
 118 -238 7 -217 7 -136 c 0
 7 -76 61 -30 114 -1 c 1
 88 14 86 40 86 50 c 0
 86 90 118 136 153 163 c 1
 132 196 123 228 123 271 c 0
 123 361 206 439 309 439 c 0
 355 439 376 424 397 407 c 1
 435 450 484 455 494 455 c 0
 517 455 533 440 533 421 c 0
 533 401 520 388 502 388 c 0
 484 388 479 397 474 405 c 0
 471 410 468 415 459 415 c 0
 451 415 432 403 416 386 c 1
 433 362 438 328 438 305 c 0
366 305 m 0
 366 365 347 412 296 412 c 0
 227 412 196 344 196 269 c 0
 196 219 199 152 263 152 c 0
 336 152 366 224 366 305 c 0
244 646 m 1
 243 640 243 635 243 630 c 0
 243 586 278 554 332 554 c 0
 378 554 444 584 461 646 c 1
 484 632 l 1
 451 531 369 497 319 497 c 0
 250 497 212 542 212 607 c 0
 212 615 213 623 214 632 c 1
 244 646 l 1
EndSplineSet
Substitution2: "'smcp' Gemeine nach Kapitaelchen 1" gbreve.sc
AlternateSubs2: "LinLibertine-'aalt' Alle Alternativen zeigen 1" gbreve.sc
EndChar

StartChar: Gdotaccent
Encoding: 288 288 53
Width: 664
VWidth: 999
Flags: HW
HStem: -12 37<292 497> 271 36<453 535 624 672> 621 37<269 472> 706 96<335 415>
VStem: 32 87<215 431> 327 96<714 793> 540 81<97 266>
LayerCount: 2
Fore
SplineSet
487 658 m 0
 604 658 630 613 688 613 c 1
 681 541 679 501 679 459 c 1
 649 453 l 1
 641 539 606 621 467 621 c 0
 337 621 211 502 177 327 c 0
 173 308 172 288 172 268 c 0
 172 149 236 26 382 26 c 0
 434 26 493 42 532 74 c 1
 562 227 l 2
 563 232 563 236 563 240 c 0
 563 260 549 266 517 269 c 2
 493 271 l 2
 489 271 486 274 487 279 c 2
 492 305 l 1
 494 307 l 1
 539 306 578 305 615 305 c 0
 654 305 675 306 704 307 c 1
 706 305 l 1
 701 279 l 2
 700 274 696 272 691 271 c 0
 663 268 646 262 640 227 c 2
 617 111 l 2
 615 100 618 92 627 83 c 1
 550 25 466 -10 353 -10 c 0
 184 -10 84 100 84 243 c 0
 84 264 86 285 90 307 c 0
 133 527 322 658 487 658 c 0
531 801 m 0
 553 801 572 785 572 760 c 0
 572 730 545 705 517 705 c 0
 492 705 475 723 475 745 c 0
 475 773 499 801 531 801 c 0
EndSplineSet
Position2: "'cpsp' Versalabstaende 1" dx=2 dy=0 dh=5 dv=0
EndChar

StartChar: gdotaccent
Encoding: 289 289 54
Width: 477
VWidth: 999
Flags: HW
HStem: -237 39<121 307> -12 56<140 299> 125 28<218 304> 415 27<245 330> 418 41<427 507> 523 96<309 381>
VStem: 9 60<-160 -67> 81 56<49 114> 118 73<178 349> 296 97<535 607> 361 72<218 390> 387 55<-133 -46>
LayerCount: 2
Fore
SplineSet
131 -9 m 1
 106 -27 74 -65 74 -113 c 0
 74 -165 138 -199 250 -199 c 0
 338 -199 392 -125 392 -87 c 0
 392 -52 373 -10 225 -10 c 1
 167 -12 l 2
 153 -12 144 -12 131 -9 c 1
438 305 m 0
 438 183 344 124 253 124 c 0
 216 124 195 131 174 145 c 1
 156 124 142 105 142 82 c 0
 142 54 163 43 193 43 c 0
 202 43 219 44 238 47 c 1
 262 49 289 51 305 51 c 0
 426 51 447 -24 447 -50 c 0
 447 -149 336 -238 199 -238 c 0
 118 -238 7 -217 7 -136 c 0
 7 -76 61 -30 114 -1 c 1
 88 14 86 40 86 50 c 0
 86 90 118 136 153 163 c 1
 132 196 123 228 123 271 c 0
 123 361 206 439 309 439 c 0
 355 439 376 424 397 407 c 1
 435 450 484 455 494 455 c 0
 517 455 533 440 533 421 c 0
 533 401 520 388 502 388 c 0
 484 388 479 397 474 405 c 0
 471 410 468 415 459 415 c 0
 451 415 432 403 416 386 c 1
 433 362 438 328 438 305 c 0
366 305 m 0
 366 365 347 412 296 412 c 0
 227 412 196 344 196 269 c 0
 196 219 199 152 263 152 c 0
 336 152 366 224 366 305 c 0
347 618 m 0
 370 618 388 603 388 578 c 0
 388 548 362 523 334 523 c 0
 308 523 292 541 292 563 c 0
 292 591 315 618 347 618 c 0
EndSplineSet
EndChar

StartChar: Gcommaaccent
Encoding: 290 290 55
Width: 664
VWidth: 999
Flags: HW
HStem: -12 37<326 511> 271 36<523 595 687 741> 621 37<401 586>
VStem: 98 91<164 367> 678 31<448 521>
DStem2: 570 74 657 111 0.199368 0.979925<48.8994 167.574>
LayerCount: 2
Fore
SplineSet
487 658 m 0
 604 658 630 613 688 613 c 1
 681 541 679 501 679 459 c 1
 649 453 l 1
 641 539 606 621 467 621 c 0
 337 621 211 502 177 327 c 0
 173 308 172 288 172 268 c 0
 172 149 236 26 382 26 c 0
 434 26 493 42 532 74 c 1
 562 227 l 2
 563 232 563 236 563 240 c 0
 563 260 549 266 517 269 c 2
 493 271 l 2
 489 271 486 274 487 279 c 2
 492 305 l 1
 494 307 l 1
 539 306 578 305 615 305 c 0
 654 305 675 306 704 307 c 1
 706 305 l 1
 701 279 l 2
 700 274 696 272 691 271 c 0
 663 268 646 262 640 227 c 2
 617 111 l 2
 615 100 618 92 627 83 c 1
 550 25 466 -10 353 -10 c 0
 184 -10 84 100 84 243 c 0
 84 264 86 285 90 307 c 0
 133 527 322 658 487 658 c 0
320 -203 m 0
 328 -199 337 -192 349 -182 c 1
 357 -174 364 -165 370 -154 c 0
 375 -146 377 -140 378 -135 c 0
 379 -131 379 -128 379 -125 c 1
 366 -131 355 -134 348 -134 c 0
 334 -134 324 -132 317 -126 c 0
 309 -120 306 -112 306 -103 c 0
 306 -100 306 -96 307 -93 c 0
 310 -82 316 -74 325 -67 c 0
 337 -57 352 -53 368 -53 c 0
 378 -53 387 -55 393 -59 c 0
 401 -64 406 -72 410 -81 c 0
 414 -88 415 -97 415 -106 c 0
 415 -112 415 -119 413 -125 c 0
 410 -138 404 -149 398 -161 c 1
 389 -176 379 -188 369 -196 c 0
 356 -208 344 -215 332 -220 c 0
 312 -228 300 -230 281 -231 c 1
 281 -214 l 1
 288 -213 298 -213 320 -203 c 0
EndSplineSet
Position2: "'cpsp' Versalabstaende 1" dx=2 dy=0 dh=5 dv=0
EndChar

StartChar: gcommaaccent
Encoding: 291 291 56
Width: 477
VWidth: 999
Flags: HW
HStem: -237 39<121 307> -12 56<140 299> 125 28<218 304> 415 27<245 330> 418 41<427 507> 512 82<321 372> 681 10<361 408>
VStem: 9 60<-160 -67> 81 56<49 114> 118 73<178 349> 361 72<218 390> 387 55<-133 -46>
LayerCount: 2
Fore
SplineSet
131 -9 m 1
 106 -27 74 -65 74 -113 c 0
 74 -165 138 -199 250 -199 c 0
 338 -199 392 -125 392 -87 c 0
 392 -52 373 -10 225 -10 c 1
 167 -12 l 2
 153 -12 144 -12 131 -9 c 1
438 305 m 0
 438 183 344 124 253 124 c 0
 216 124 195 131 174 145 c 1
 156 124 142 105 142 82 c 0
 142 54 163 43 193 43 c 0
 202 43 219 44 238 47 c 1
 262 49 289 51 305 51 c 0
 426 51 447 -24 447 -50 c 0
 447 -149 336 -238 199 -238 c 0
 118 -238 7 -217 7 -136 c 0
 7 -76 61 -30 114 -1 c 1
 88 14 86 40 86 50 c 0
 86 90 118 136 153 163 c 1
 132 196 123 228 123 271 c 0
 123 361 206 439 309 439 c 0
 355 439 376 424 397 407 c 1
 435 450 484 455 494 455 c 0
 517 455 533 440 533 421 c 0
 533 401 520 388 502 388 c 0
 484 388 479 397 474 405 c 0
 471 410 468 415 459 415 c 0
 451 415 432 403 416 386 c 1
 433 362 438 328 438 305 c 0
366 305 m 0
 366 365 347 412 296 412 c 0
 227 412 196 344 196 269 c 0
 196 219 199 152 263 152 c 0
 336 152 366 224 366 305 c 0
322 511 m 0
 282 511 274 548 274 565 c 0
 274 603 313 685 409 690 c 1
 409 673 l 1
 397 670 354 668 319 613 c 0
 318 610 309 595 310 584 c 1
 324 590 334 593 342 593 c 0
 376 593 384 574 384 562 c 0
 384 537 358 511 322 511 c 0
EndSplineSet
EndChar

StartChar: Hcircumflex
Encoding: 292 292 57
Width: 671
VWidth: 999
Flags: HW
HStem: -1 29<54 55 55 142 231 306 306 306 461 462 462 549 638 713 713 713> 324 39<282 602> 618 29<164 164 164 238 328 415 415 416 571 571 571 646 735 822 822 823>
DStem2: 150 72 231 72 0.173403 0.984851<1.95932 270.293 309.949 521.685> 558 72 638 72 0.173403 0.984851<1.95932 256.322 295.978 521.685>
LayerCount: 2
Fore
SplineSet
537 803 m 1
 558 767 585 736 616 709 c 1
 595 688 l 1
 560 706 530 725 503 750 c 1
 460 723 424 705 382 688 c 1
 373 709 l 1
 416 737 456 769 494 803 c 1
 537 803 l 1
507 74 m 2
 555 321 l 1
 242 321 l 1
 193 72 l 2
 192 67 192 63 192 59 c 0
 192 38 206 32 238 29 c 2
 262 27 l 2
 266 27 269 24 268 19 c 2
 265 0 l 1
 262 -2 l 1
 215 -1 188 0 140 0 c 0
 92 0 67 -1 18 -2 c 1
 17 0 l 1
 21 19 l 2
 22 24 25 27 29 27 c 2
 55 29 l 2
 95 32 110 44 115 72 c 2
 213 574 l 2
 214 578 214 582 214 586 c 0
 214 607 200 613 169 616 c 2
 144 618 l 2
 140 618 137 621 138 626 c 2
 141 645 l 1
 144 647 l 1
 191 646 217 645 265 645 c 0
 313 645 340 646 388 647 c 1
 390 645 l 1
 386 626 l 2
 385 621 382 618 377 618 c 2
 352 616 l 2
 313 613 296 602 291 574 c 2
 250 363 l 1
 563 363 l 1
 604 574 l 2
 605 579 605 583 605 586 c 0
 605 607 591 613 560 616 c 2
 535 618 l 2
 531 618 527 621 528 626 c 2
 532 645 l 1
 534 647 l 1
 582 646 609 645 657 645 c 0
 705 645 731 646 779 647 c 1
 781 645 l 1
 777 626 l 2
 776 621 773 618 768 618 c 2
 742 616 l 2
 703 613 687 602 681 574 c 2
 584 74 l 2
 583 69 583 65 583 61 c 0
 583 40 596 32 628 29 c 2
 653 27 l 2
 658 27 661 24 660 19 c 2
 656 0 l 1
 654 -2 l 1
 606 -1 580 0 532 0 c 0
 484 0 457 -1 409 -2 c 1
 408 0 l 1
 411 19 l 2
 412 24 416 27 421 27 c 2
 446 29 l 2
 488 32 501 46 507 74 c 2
EndSplineSet
Position2: "'cpsp' Versalabstaende 1" dx=2 dy=0 dh=5 dv=0
EndChar

StartChar: hcircumflex
Encoding: 293 293 58
Width: 510
VWidth: 999
Flags: HW
HStem: -12 53<390 444> 393 49<342 430> 646 27<161 213> 688 10<263 309>
DStem2: 73 0 151 12 0.22547 0.97425<29.8731 653.491> 354 114 431 122 0.25147 0.967865<-36.3554 239.649>
LayerCount: 2
Fore
SplineSet
431 832 m 1
 452 796 479 765 510 738 c 1
 489 717 l 1
 454 735 424 754 397 779 c 1
 354 752 318 734 276 717 c 1
 267 738 l 1
 310 766 350 798 388 832 c 1
 431 832 l 1
207 238 m 1
 156 12 l 1
 83 -12 l 1
 78 0 l 1
 205 563 l 2
 210 585 212 602 212 613 c 0
 212 635 204 641 191 641 c 2
 160 643 l 2
 156 643 155 645 155 648 c 2
 158 672 l 1
 199 675 271 688 298 698 c 1
 307 698 310 695 310 688 c 1
 310 688 300 648 285 583 c 2
 222 304 l 1
 281 394 356 439 417 439 c 0
 456 439 486 421 486 361 c 0
 486 340 480 309 472 280 c 2
 431 124 l 2
 422 89 419 71 419 61 c 0
 419 51 423 43 430 43 c 0
 445 43 465 62 499 102 c 1
 521 85 l 1
 463 14 420 -10 384 -10 c 0
 361 -10 340 5 340 35 c 0
 340 57 344 78 354 116 c 2
 396 272 l 2
 405 305 408 327 408 345 c 0
 408 376 390 390 369 390 c 0
 345 390 276 343 207 238 c 1
EndSplineSet
EndChar

StartChar: Hbar
Encoding: 294 294 59
Width: 671
VWidth: 999
Flags: HW
HStem: -1 29<54 55 55 142 231 306 306 306 461 462 462 549 638 713 713 713> 324 39<282 602> 512 34<173 756> 618 29<164 164 164 238 328 415 415 416 571 571 571 646 735 822 822 823>
DStem2: 150 72 231 72 0.173403 0.984851<1.95932 270.293 309.949 521.685> 558 72 638 72 0.173403 0.984851<1.95932 256.322 295.978 521.685>
LayerCount: 2
Fore
SplineSet
507 74 m 2
 555 321 l 1
 242 321 l 1
 193 72 l 2
 192 67 192 63 192 59 c 0
 192 38 206 32 238 29 c 2
 262 27 l 2
 266 27 269 24 268 19 c 2
 265 0 l 1
 262 -2 l 1
 215 -1 188 0 140 0 c 0
 92 0 67 -1 18 -2 c 1
 17 0 l 1
 21 19 l 2
 22 24 25 27 29 27 c 2
 55 29 l 2
 95 32 110 44 115 72 c 2
 201 512 l 1
 166 512 l 1
 173 546 l 1
 208 546 l 1
 213 574 l 2
 214 578 214 582 214 586 c 0
 214 607 200 613 169 616 c 2
 144 618 l 2
 140 618 137 621 138 626 c 2
 141 645 l 1
 144 647 l 1
 191 646 217 645 265 645 c 0
 313 645 340 646 388 647 c 1
 390 645 l 1
 386 626 l 2
 385 621 382 618 377 618 c 2
 352 616 l 2
 313 613 296 602 291 574 c 2
 286 546 l 1
 599 546 l 1
 604 574 l 2
 605 579 605 583 605 586 c 0
 605 607 591 613 560 616 c 2
 535 618 l 2
 531 618 527 621 528 626 c 2
 532 645 l 1
 534 647 l 1
 582 646 609 645 657 645 c 0
 705 645 731 646 779 647 c 1
 781 645 l 1
 777 626 l 2
 776 621 773 618 768 618 c 2
 742 616 l 2
 703 613 687 602 681 574 c 2
 676 546 l 1
 763 546 l 1
 756 512 l 1
 669 512 l 1
 584 74 l 2
 583 69 583 65 583 61 c 0
 583 40 596 32 628 29 c 2
 653 27 l 2
 658 27 661 24 660 19 c 2
 656 0 l 1
 654 -2 l 1
 606 -1 580 0 532 0 c 0
 484 0 457 -1 409 -2 c 1
 408 0 l 1
 411 19 l 2
 412 24 416 27 421 27 c 2
 446 29 l 2
 488 32 501 46 507 74 c 2
592 512 m 1
 279 512 l 1
 250 363 l 1
 563 363 l 1
 592 512 l 1
EndSplineSet
Position2: "'cpsp' Versalabstaende 1" dx=2 dy=0 dh=5 dv=0
EndChar

StartChar: hbar
Encoding: 295 295 60
Width: 510
VWidth: 999
Flags: HW
HStem: -12 53<390 444> 393 49<342 430> 530 40<152 436> 646 27<161 213> 688 10<263 309>
DStem2: 73 0 151 12 0.22547 0.97425<29.8731 653.491> 354 114 431 122 0.25147 0.967865<-36.3554 239.649>
LayerCount: 2
Fore
SplineSet
206 569 m 1
 210 588 212 603 212 613 c 0
 212 635 204 641 191 641 c 2
 160 643 l 2
 156 643 155 645 155 648 c 2
 158 672 l 1
 199 675 271 688 298 698 c 1
 307 698 310 695 310 688 c 1
 310 688 300 648 285 583 c 2
 282 569 l 1
 445 569 l 1
 436 530 l 1
 273 530 l 1
 222 304 l 1
 281 394 356 439 417 439 c 0
 456 439 486 421 486 361 c 0
 486 340 480 309 472 280 c 2
 431 124 l 2
 422 89 419 71 419 61 c 0
 419 51 423 43 430 43 c 0
 445 43 465 62 499 102 c 1
 521 85 l 1
 463 14 420 -10 384 -10 c 0
 361 -10 340 5 340 35 c 0
 340 57 344 78 354 116 c 2
 396 272 l 2
 405 305 408 327 408 345 c 0
 408 376 390 390 369 390 c 0
 345 390 276 343 207 238 c 1
 156 12 l 1
 83 -12 l 1
 78 0 l 1
 198 530 l 1
 143 530 l 1
 152 569 l 1
 206 569 l 1
EndSplineSet
EndChar

StartChar: Itilde
Encoding: 296 296 61
Width: 280
VWidth: 999
Flags: HW
HStem: -1 29<54 55 55 143 231 306 306 306> 618 29<164 164 164 239 328 415 415 416> 696 44<310 393> 745 46<189 274>
VStem: 144 297
DStem2: 150 71 231 71 0.173239 0.98488<-21.4446 545.649>
LayerCount: 2
Fore
SplineSet
291 574 m 2
 193 71 l 2
 192 66 192 62 192 59 c 0
 192 38 206 32 238 29 c 2
 262 27 l 2
 266 27 269 24 268 19 c 2
 265 0 l 1
 262 -2 l 1
 217 0 188 0 141 0 c 0
 93 0 66 0 18 -2 c 1
 17 0 l 1
 21 19 l 2
 22 24 25 27 29 27 c 2
 55 29 l 2
 96 32 110 43 115 71 c 2
 213 574 l 2
 214 579 214 583 214 586 c 0
 214 607 200 613 169 616 c 2
 144 618 l 2
 140 618 137 621 138 626 c 2
 141 645 l 1
 144 647 l 1
 191 646 218 645 265 645 c 0
 313 645 341 646 388 647 c 1
 390 645 l 1
 386 626 l 2
 385 621 382 618 377 618 c 2
 352 616 l 2
 313 613 296 602 291 574 c 2
356 741 m 0
 377 741 394 751 418 793 c 1
 440 787 l 1
 414 727 379 697 332 697 c 0
 310 697 293 709 275 723 c 1
 259 734 243 745 225 745 c 0
 199 745 183 730 166 697 c 1
 143 702 l 1
 171 761 200 791 243 791 c 0
 274 791 292 777 309 763 c 0
 322 751 337 741 356 741 c 0
EndSplineSet
Position2: "'cpsp' Versalabstaende 1" dx=2 dy=0 dh=5 dv=0
EndChar

StartChar: itilde
Encoding: 297 297 62
Width: 276
VWidth: 999
Flags: HW
HStem: -12 55<154 222> 377 27<120 160> 432 10<257 275> 525 44<271 345> 574 46<161 239>
VStem: 121 267
DStem2: 124 113 200 122 0.228543 0.973534<-39.8436 255.088>
LayerCount: 2
Fore
SplineSet
245 320 m 2
 200 124 l 2
 193 92 188 68 188 59 c 0
 188 47 199 45 201 45 c 0
 215 45 232 60 262 100 c 1
 285 83 l 1
 234 10 196 -10 153 -10 c 0
 119 -10 111 16 111 35 c 0
 111 54 117 85 124 115 c 2
 173 321 l 2
 177 339 179 351 179 360 c 0
 179 377 173 382 164 383 c 2
 122 387 l 1
 125 411 l 1
 198 422 240 431 271 442 c 0
 273 442 275 442 275 439 c 2
 275 439 257 371 245 320 c 2
313 570 m 0
 332 570 347 580 369 622 c 1
 388 616 l 1
 365 556 334 526 291 526 c 0
 271 526 256 538 240 552 c 1
 226 563 211 574 195 574 c 0
 172 574 157 559 142 526 c 1
 121 531 l 1
 146 590 172 620 211 620 c 0
 239 620 255 606 270 592 c 0
 282 580 296 570 313 570 c 0
EndSplineSet
EndChar

StartChar: Imacron
Encoding: 298 298 63
Width: 280
VWidth: 999
Flags: HW
HStem: -1 29<54 55 55 143 231 306 306 306> 618 29<164 164 164 239 328 415 415 416> 733 44<171 177 197 421 441 449>
DStem2: 150 71 231 71 0.173239 0.98488<-21.4446 545.649>
LayerCount: 2
Fore
SplineSet
291 574 m 2
 193 71 l 2
 192 66 192 62 192 59 c 0
 192 38 206 32 238 29 c 2
 262 27 l 2
 266 27 269 24 268 19 c 2
 265 0 l 1
 262 -2 l 1
 217 0 188 0 141 0 c 0
 93 0 66 0 18 -2 c 1
 17 0 l 1
 21 19 l 2
 22 24 25 27 29 27 c 2
 55 29 l 2
 96 32 110 43 115 71 c 2
 213 574 l 2
 214 579 214 583 214 586 c 0
 214 607 200 613 169 616 c 2
 144 618 l 2
 140 618 137 621 138 626 c 2
 141 645 l 1
 144 647 l 1
 191 646 218 645 265 645 c 0
 313 645 341 646 388 647 c 1
 390 645 l 1
 386 626 l 2
 385 621 382 618 377 618 c 2
 352 616 l 2
 313 613 296 602 291 574 c 2
421 733 m 2
 176 733 l 2
 170 733 167 738 167 744 c 0
 167 745 167 747 168 748 c 0
 171 760 185 777 196 777 c 2
 441 777 l 2
 449 777 452 772 452 767 c 0
 452 765 452 764 451 763 c 0
 449 751 434 733 421 733 c 2
EndSplineSet
Position2: "'cpsp' Versalabstaende 1" dx=2 dy=0 dh=5 dv=0
EndChar

StartChar: imacron
Encoding: 299 299 64
Width: 276
VWidth: 999
Flags: HW
HStem: -12 55<154 222> 377 27<120 160> 432 10<257 275> 539 44<129 134 152 354 372 379>
DStem2: 124 113 200 122 0.228543 0.973534<-39.8436 255.088>
LayerCount: 2
Fore
SplineSet
245 320 m 2
 200 124 l 2
 193 92 188 68 188 59 c 0
 188 47 199 45 201 45 c 0
 215 45 232 60 262 100 c 1
 285 83 l 1
 234 10 196 -10 153 -10 c 0
 119 -10 111 16 111 35 c 0
 111 54 117 85 124 115 c 2
 173 321 l 2
 177 339 179 351 179 360 c 0
 179 377 173 382 164 383 c 2
 122 387 l 1
 125 411 l 1
 198 422 240 431 271 442 c 0
 273 442 275 442 275 439 c 2
 275 439 257 371 245 320 c 2
354 538 m 2
 134 538 l 2
 128 538 126 543 126 549 c 0
 126 550 126 552 126 553 c 0
 129 565 142 582 152 582 c 2
 372 582 l 2
 379 582 382 577 382 572 c 0
 382 570 382 569 381 568 c 0
 379 556 366 538 354 538 c 2
EndSplineSet
EndChar

StartChar: Ibreve
Encoding: 300 300 65
Width: 280
VWidth: 999
Flags: HW
HStem: -1 29<54 55 55 143 231 306 306 306> 618 29<164 164 164 239 328 415 415 416> 692 52<232 382> 795 10<183 211 420 454>
VStem: 183 28<790 805>
DStem2: 150 71 231 71 0.173239 0.98488<-21.4446 545.649>
LayerCount: 2
Fore
SplineSet
291 574 m 2
 193 71 l 2
 192 66 192 62 192 59 c 0
 192 38 206 32 238 29 c 2
 262 27 l 2
 266 27 269 24 268 19 c 2
 265 0 l 1
 262 -2 l 1
 217 0 188 0 141 0 c 0
 93 0 66 0 18 -2 c 1
 17 0 l 1
 21 19 l 2
 22 24 25 27 29 27 c 2
 55 29 l 2
 96 32 110 43 115 71 c 2
 213 574 l 2
 214 579 214 583 214 586 c 0
 214 607 200 613 169 616 c 2
 144 618 l 2
 140 618 137 621 138 626 c 2
 141 645 l 1
 144 647 l 1
 191 646 218 645 265 645 c 0
 313 645 341 646 388 647 c 1
 390 645 l 1
 386 626 l 2
 385 621 382 618 377 618 c 2
 352 616 l 2
 313 613 296 602 291 574 c 2
299 692 m 0
 219 692 183 737 183 794 c 0
 183 798 183 802 183 805 c 1
 211 805 l 1
 211 801 213 744 308 744 c 0
 359 744 413 768 427 805 c 1
 454 805 l 1
 437 730 360 692 299 692 c 0
EndSplineSet
Position2: "'cpsp' Versalabstaende 1" dx=2 dy=0 dh=5 dv=0
EndChar

StartChar: ibreve
Encoding: 301 301 66
Width: 276
VWidth: 999
Flags: HW
HStem: -12 55<154 222> 377 27<120 160> 432 10<257 275> 502 57<199 313>
VStem: 150 27<584 642>
DStem2: 124 113 200 122 0.228543 0.973534<-39.8436 255.088>
LayerCount: 2
Fore
SplineSet
245 320 m 2
 200 124 l 2
 193 92 188 68 188 59 c 0
 188 47 199 45 201 45 c 0
 215 45 232 60 262 100 c 1
 285 83 l 1
 234 10 196 -10 153 -10 c 0
 119 -10 111 16 111 35 c 0
 111 54 117 85 124 115 c 2
 173 321 l 2
 177 339 179 351 179 360 c 0
 179 377 173 382 164 383 c 2
 122 387 l 1
 125 411 l 1
 198 422 240 431 271 442 c 0
 273 442 275 442 275 439 c 2
 275 439 257 371 245 320 c 2
179 652 m 1
 178 646 178 641 178 636 c 0
 178 592 209 560 258 560 c 0
 299 560 359 590 374 652 c 1
 395 638 l 1
 365 537 291 503 246 503 c 0
 184 503 150 548 150 613 c 0
 150 621 151 629 152 638 c 1
 179 652 l 1
EndSplineSet
EndChar

StartChar: Iogonek
Encoding: 302 302 67
Width: 280
VWidth: 999
Flags: HW
HStem: -225 40<153 238> -1 25<221 253> -1 29<54 55 55 143 231 306 306 306> 618 29<164 164 164 239 328 415 415 416>
VStem: 79 60<-174 -75>
DStem2: 150 71 231 71 0.173239 0.98488<-21.4446 545.649>
LayerCount: 2
Fore
SplineSet
172 -225 m 0
 119 -225 79 -194 79 -140 c 0
 79 -92 120 -33 181 -0 c 1
 169 -0 156 0 141 0 c 0
 93 0 66 0 18 -2 c 1
 17 0 l 1
 21 19 l 2
 22 24 25 27 29 27 c 2
 55 29 l 2
 96 32 110 43 115 71 c 2
 213 574 l 2
 214 579 214 583 214 586 c 0
 214 607 200 613 169 616 c 2
 144 618 l 2
 140 618 137 621 138 626 c 2
 141 645 l 1
 144 647 l 1
 191 646 218 645 265 645 c 0
 313 645 341 646 388 647 c 1
 390 645 l 1
 386 626 l 2
 385 621 382 618 377 618 c 2
 352 616 l 2
 313 613 296 602 291 574 c 2
 193 71 l 2
 192 66 192 62 192 59 c 0
 192 38 206 32 238 29 c 2
 262 27 l 2
 266 27 269 24 268 19 c 2
 266 8 l 1
 274 -1 l 1
 270 -1 266 -1 263 -1 c 1
 262 -2 l 1
 259 -2 l 1
 187 -10 139 -79 139 -127 c 0
 139 -159 161 -186 197 -186 c 0
 227 -186 248 -171 267 -150 c 1
 282 -158 l 1
 258 -205 208 -225 172 -225 c 0
EndSplineSet
Position2: "'cpsp' Versalabstaende 1" dx=2 dy=0 dh=5 dv=0
EndChar

StartChar: iogonek
Encoding: 303 303 68
Width: 276
VWidth: 999
Flags: HW
HStem: -206 39<135 211> -12 55<154 222> 377 27<120 160> 432 10<257 275> 523 96<227 299>
VStem: 64 61<-159 -74> 215 97<535 607>
DStem2: 124 113 200 122 0.228543 0.973534<-39.8436 255.088>
LayerCount: 2
Fore
SplineSet
270 618 m 0
 293 618 311 603 311 578 c 0
 311 548 285 523 257 523 c 0
 231 523 215 541 215 563 c 0
 215 591 238 618 270 618 c 0
245 320 m 2
 200 124 l 2
 193 92 188 68 188 59 c 0
 188 47 199 45 201 45 c 0
 215 45 232 60 262 100 c 1
 285 83 l 1
 268 59 253 41 238 27 c 1
 238 25 236 22 230 17 c 0
 213 2 125 -73 125 -123 c 0
 125 -145 144 -167 177 -167 c 0
 207 -167 225 -153 251 -131 c 1
 265 -138 l 1
 228 -183 188 -206 146 -206 c 0
 99 -206 64 -182 64 -138 c 0
 64 -91 103 -51 144 -9 c 1
 118 -5 111 18 111 35 c 0
 111 54 117 85 124 115 c 2
 173 321 l 2
 177 339 179 351 179 360 c 0
 179 377 173 382 164 383 c 2
 122 387 l 1
 125 411 l 1
 198 422 240 431 271 442 c 0
 273 442 275 442 275 439 c 2
 275 439 257 371 245 320 c 2
EndSplineSet
EndChar

StartChar: Idotaccent
Encoding: 304 304 69
Width: 280
VWidth: 999
Flags: HW
HStem: -1 29<54 55 55 143 231 306 306 306> 618 29<164 164 164 239 328 415 415 416> 702 96<269 341>
VStem: 256 97<714 786>
DStem2: 150 71 231 71 0.173239 0.98488<-21.4446 545.649>
LayerCount: 2
Fore
SplineSet
291 574 m 2
 193 71 l 2
 192 66 192 62 192 59 c 0
 192 38 206 32 238 29 c 2
 262 27 l 2
 266 27 269 24 268 19 c 2
 265 0 l 1
 262 -2 l 1
 217 0 188 0 141 0 c 0
 93 0 66 0 18 -2 c 1
 17 0 l 1
 21 19 l 2
 22 24 25 27 29 27 c 2
 55 29 l 2
 96 32 110 43 115 71 c 2
 213 574 l 2
 214 579 214 583 214 586 c 0
 214 607 200 613 169 616 c 2
 144 618 l 2
 140 618 137 621 138 626 c 2
 141 645 l 1
 144 647 l 1
 191 646 218 645 265 645 c 0
 313 645 341 646 388 647 c 1
 390 645 l 1
 386 626 l 2
 385 621 382 618 377 618 c 2
 352 616 l 2
 313 613 296 602 291 574 c 2
312 798 m 0
 334 798 353 782 353 757 c 0
 353 727 326 702 298 702 c 0
 273 702 256 720 256 742 c 0
 256 770 280 798 312 798 c 0
EndSplineSet
Position2: "'cpsp' Versalabstaende 1" dx=2 dy=0 dh=5 dv=0
Substitution2: "'c2sc' Versale nach Kapitaelchen 1" idotaccent.sc
EndChar

StartChar: afii10057
Encoding: 1032 1032 70
Width: 371
VWidth: 999
Flags: HW
HStem: -12 31<122 187> 618 27<220 297 297 301 399 477>
DStem2: 232 172 316 194 0.189906 0.981802<-100.277 405.776>
LayerCount: 2
Fore
SplineSet
146 19 m 0
 196 19 213 79 232 172 c 2
 307 559 l 2
 308 563 308 567 308 571 c 0
 308 597 291 618 257 618 c 2
 221 618 l 2
 216 618 213 621 214 626 c 2
 218 645 l 1
 220 646 l 1
 220 646 323 645 362 645 c 0
 398 645 481 646 481 646 c 1
 483 645 l 1
 479 626 l 1
 479 621 475 618 470 618 c 2
 454 618 l 2
 413 618 396 602 391 574 c 2
 316 194 l 2
 281 16 204 -12 141 -12 c 0
 109 -12 48 -3 48 41 c 0
 48 44 48 48 49 51 c 0
 54 76 73 86 88 86 c 0
 115 86 122 63 122 51 c 0
 122 49 122 49 122 46 c 0
 122 33 127 19 146 19 c 0
EndSplineSet
EndChar

StartChar: afii10061
Encoding: 1036 1036 71
Width: 602
VWidth: 999
Flags: HW
HStem: -2 29<20 100 192 274 527 583> 323 43<187 229> 590 62<427 527> 618 29<19 101 193 274> 699 122
VStem: 106 81<33 612> 288 202
LayerCount: 2
Fore
SplineSet
583 -1 m 1
 510 0 l 2
 430 1 412 70 390 180 c 0
 370 280 360 321 250 323 c 1
 201 71 l 2
 200 67 199 62 199 58 c 0
 199 37 214 28 247 28 c 2
 273 28 l 2
 278 28 281 25 280 20 c 2
 276 1 l 1
 274 -1 l 1
 274 -1 188 1 148 1 c 0
 113 1 20 -1 20 -1 c 1
 18 1 l 1
 21 20 l 2
 22 25 26 28 31 28 c 2
 57 28 l 2
 98 28 115 43 120 71 c 2
 218 574 l 2
 219 579 219 583 219 587 c 0
 219 608 205 618 172 618 c 2
 146 618 l 2
 141 618 138 621 139 626 c 2
 143 645 l 1
 145 646 l 1
 145 646 231 645 271 645 c 0
 306 645 399 646 399 646 c 1
 401 645 l 1
 397 626 l 2
 396 621 393 618 388 618 c 2
 362 618 l 2
 321 618 304 602 298 574 c 2
 258 366 l 1
 294 366 339 367 366 381 c 0
 431 413 457 488 477 544 c 1
 496 602 558 651 628 651 c 0
 675 651 691 630 691 609 c 0
 691 606 690 603 690 601 c 0
 685 576 659 559 638 559 c 0
 625 559 610 563 604 572 c 1
 595 583 583 590 570 590 c 0
 548 590 521 562 511 533 c 0
 488 470 451 368 365 343 c 1
 434 343 446 296 461 236 c 0
 494 103 535 28 571 28 c 2
 582 28 l 2
 586 28 589 25 588 20 c 2
 584 1 l 1
 583 -1 l 1
434 698 m 0
 426 698 422 701 422 709 c 0
 422 718 429 725 443 734 c 2
 584 818 l 1
 649 773 l 1
 480 710 l 2
 459 703 443 698 434 698 c 0
EndSplineSet
LCarets2: 1 0 
EndChar

StartChar: uni040D
Encoding: 1037 1037 72
Width: 671
VWidth: 999
Flags: HW
HStem: 1 26<24 112 201 278 431 519 608 682> 618 26<145 207 207 219 307 395 548 626 715 802>
DStem2: 213 134 202 78 0.692102 0.721799<0 543.955> 527 71 608 71 0.191533 0.981486<2.7418 441.746 498.916 525.107>
LayerCount: 2
Fore
SplineSet
692 574 m 2
 585 71 l 2
 584 66 584 61 584 56 c 0
 584 36 597 27 628 27 c 2
 654 27 l 2
 658 27 661 24 660 19 c 2
 656 0 l 1
 654 -2 l 1
 654 -2 571 0 533 0 c 0
 499 0 409 -2 409 -2 c 1
 407 0 l 1
 412 19 l 2
 413 24 416 27 421 27 c 2
 446 27 l 2
 485 27 502 43 508 71 c 2
 600 505 l 1
 196 78 l 1
 194 72 l 2
 193 66 193 61 193 57 c 0
 193 36 206 27 237 27 c 2
 263 27 l 2
 267 27 270 24 269 19 c 2
 265 0 l 1
 262 -2 l 1
 262 -2 180 0 142 0 c 0
 108 0 18 -2 18 -2 c 1
 17 0 l 1
 21 19 l 1
 21 24 25 27 30 27 c 2
 55 27 l 2
 94 27 111 44 117 72 c 2
 224 575 l 2
 225 580 226 585 226 589 c 0
 226 609 213 618 181 618 c 2
 155 618 l 2
 151 618 148 621 149 626 c 2
 153 645 l 1
 156 646 l 1
 156 646 239 644 276 644 c 0
 310 644 400 646 400 646 c 1
 401 645 l 1
 397 626 l 2
 396 621 393 618 388 618 c 2
 363 618 l 2
 324 618 307 603 301 575 c 2
 208 134 l 1
 612 561 l 1
 615 574 l 2
 616 580 617 584 617 589 c 0
 617 609 603 618 572 618 c 2
 546 618 l 2
 542 618 539 621 540 626 c 2
 544 645 l 1
 546 646 l 1
 546 646 629 644 667 644 c 0
 701 644 791 647 791 647 c 1
 792 645 l 1
 789 626 l 2
 788 621 784 618 779 618 c 2
 754 618 l 2
 715 618 698 602 692 574 c 2
571 717 m 0
 571 711 567 698 552 698 c 0
 542 698 528 703 512 710 c 2
 371 773 l 1
 458 818 l 1
 560 734 l 2
 567 728 571 722 571 717 c 0
EndSplineSet
LCarets2: 1 0 
EndChar

StartChar: afii10062
Encoding: 1038 1038 73
Width: 580
VWidth: 999
Flags: HW
HStem: -22 62<146 230> 618 29<2 32 32 64 164 235 235 235 391 391 391 456 514 579 579 579> 697 31<262 362>
VStem: 187 69<736 802> 367 69<735 788>
DStem2: 170 575 88 559 0.41846 -0.908235<-26.754 380.66> 283 136 342 161 0.36961 0.929187<-102.355 0 102.627 499.258>
LayerCount: 2
Fore
SplineSet
203 40 m 0
 235 40 264 61 310 136 c 1
 197 559 l 2
 191 579 179 618 130 618 c 0
 124 618 121 621 122 625 c 2
 125 645 l 1
 127 646 l 1
 127 646 189 645 230 645 c 0
 280 645 361 646 361 646 c 1
 363 645 l 1
 359 626 l 2
 358 621 355 618 351 618 c 2
 312 618 l 2
 291 618 283 612 281 602 c 0
 280 595 280 586 282 575 c 2
 372 229 l 1
 570 575 l 2
 577 587 581 595 582 601 c 0
 582 602 582 604 582 605 c 0
 582 616 570 618 545 618 c 2
 516 618 l 2
 512 618 510 621 511 625 c 2
 515 645 l 1
 517 646 l 1
 517 646 582 645 625 645 c 0
 656 645 705 646 705 646 c 1
 706 645 l 1
 702 626 l 2
 701 620 694 618 690 618 c 0
 644 618 632 606 608 566 c 2
 373 161 l 2
 310 52 240 -22 150 -22 c 0
 110 -22 72 -2 72 27 c 0
 72 29 72 31 73 33 c 0
 78 61 96 79 128 79 c 0
 142 79 164 72 170 60 c 1
 176 51 188 40 203 40 c 0
568 776 m 1
 539 725 490 692 442 692 c 0
 383 692 337 720 337 760 c 0
 337 797 365 804 380 804 c 0
 400 804 413 796 413 783 c 0
 413 773 410 772 410 763 c 0
 410 744 426 730 455 730 c 0
 482 730 524 756 550 792 c 1
 568 776 l 1
EndSplineSet
LCarets2: 1 0 
EndChar

StartChar: afii10020
Encoding: 1043 1043 74
Width: 481
VWidth: 999
Flags: HW
HStem: 1 27<19 107 196 269> 605 39<297 522> 618 27<140 206 206 215>
VStem: 552 30<490 536>
DStem2: 116 72 196 72 0.190409 0.981705<2.65783 529.009>
LayerCount: 2
Fore
SplineSet
460 605 m 2
 336 605 l 2
 314 605 299 599 293 573 c 2
 196 72 l 2
 195 67 195 63 195 59 c 0
 195 39 208 28 242 28 c 2
 269 28 l 2
 273 28 276 25 275 20 c 2
 271 1 l 1
 269 -1 l 1
 269 -1 176 1 140 1 c 0
 101 1 14 -1 14 -1 c 1
 12 1 l 1
 16 20 l 2
 17 25 21 28 26 28 c 2
 52 28 l 2
 92 28 109 41 116 72 c 2
 213 573 l 2
 214 580 215 586 215 592 c 0
 215 612 204 618 170 618 c 2
 140 618 l 2
 136 618 133 621 134 625 c 2
 138 645 l 1
 140 646 l 1
 140 646 254 645 267 645 c 2
 345 645 l 1
 591 645 l 1
 585 591 582 531 582 490 c 1
 552 485 l 1
 543 554 536 605 460 605 c 2
EndSplineSet
EndChar

StartChar: afii10021
Encoding: 1044 1044 75
Width: 655
VWidth: 999
Flags: HW
HStem: 0 39<200 474> 605 41<381 577> 617 29<277 336 663 738>
DStem2: 479 79 560 78 0.190633 0.981661<0.564516 515.166>
LayerCount: 2
Fore
SplineSet
121 47 m 0
 150 75 185 145 246 301 c 1
 292 415 323 518 335 581 c 0
 336 586 336 590 336 594 c 0
 336 609 328 617 307 617 c 2
 277 617 l 2
 272 617 270 621 271 625 c 2
 273 637 l 2
 274 641 280 646 287 646 c 2
 739 646 l 2
 742 646 744 642 743 639 c 2
 741 625 l 1
 739 619 735 617 731 617 c 2
 702 617 l 2
 670 617 662 601 655 565 c 2
 560 78 l 2
 559 73 559 68 559 64 c 0
 559 38 576 28 590 28 c 0
 610 28 617 22 617 12 c 0
 617 11 617 9 617 8 c 2
 594 -141 l 1
 567 -141 567 -141 567 -141 c 1
 566 -85 547 0 467 0 c 2
 181 0 l 2
 98 0 55 -89 34 -141 c 1
 7 -141 l 1
 42 8 l 2
 45 20 57 28 67 28 c 0
 88 28 101 28 121 47 c 0
544 605 m 2
 421 605 l 2
 394 605 380 591 374 566 c 0
 346 465 312 361 286 293 c 0
 231 151 193 67 193 53 c 0
 193 44 204 39 217 39 c 2
 436 39 l 2
 459 39 473 42 479 79 c 1
 574 566 l 2
 576 574 577 580 577 585 c 0
 577 600 568 605 544 605 c 2
EndSplineSet
EndChar

StartChar: afii10024
Encoding: 1046 1046 76
Width: 855
VWidth: 999
Flags: HW
HStem: -1 29<25.6875 75.5938 301.688 386.542 484.832 556 796.75 832> 323 43<356.523 450 540 617.015> 590 61<212.799 279.693 813.488 899.657> 618 28<426 496.049 595.305 680.25>
VStem: 285 34<408.306 583.878>
DStem2: 401 71 482 71 0.191235 0.981544<2.7235 525.416>
LayerCount: 2
Fore
SplineSet
832 -1 m 1
 766 0 l 2
 694 1 679 70 662 180 c 0
 646 282 637 323 531 323 c 1
 482 71 l 2
 481 67 481 62 481 58 c 0
 481 37 495 28 528 28 c 2
 555 28 l 2
 559 28 562 25 562 20 c 1
 558 1 l 1
 556 -1 l 1
 556 -1 469 1 430 1 c 0
 394 1 301 -1 301 -1 c 1
 299 1 l 1
 303 20 l 2
 304 25 307 28 312 28 c 2
 338 28 l 2
 379 28 396 43 401 71 c 2
 451 330 l 1
 450 323 l 1
 344 323 320 282 264 180 c 0
 204 70 162 1 90 0 c 2
 24 -1 l 1
 23 1 l 1
 27 20 l 2
 28 25 32 28 36 28 c 2
 45 28 l 2
 78 28 144 103 221 236 c 1
 257 296 284 343 346 343 c 1
 293 363 285 432 285 491 c 0
 285 506 285 520 286 533 c 0
 286 534 286 536 286 537 c 0
 286 565 273 590 253 590 c 0
 242 590 229 583 217 572 c 0
 208 563 193 559 181 559 c 0
 164 559 149 572 149 592 c 0
 149 595 149 598 150 601 c 0
 154 624 176 651 224 651 c 0
 284 651 322 607 322 552 c 0
 322 550 321 547 321 544 c 0
 320 528 319 511 319 493 c 0
 319 449 326 404 360 381 c 0
 381 366 426 366 458 366 c 1
 499 574 l 2
 500 579 501 583 501 587 c 0
 501 608 486 618 453 618 c 2
 427 618 l 2
 422 618 419 621 420 626 c 2
 424 645 l 1
 426 646 l 1
 426 646 513 645 552 645 c 0
 587 645 681 646 681 646 c 1
 683 645 l 1
 679 626 l 2
 678 621 674 618 669 618 c 2
 643 618 l 2
 602 618 585 602 580 574 c 2
 532 330 l 1
 540 366 l 1
 573 366 617 366 644 381 c 0
 703 413 728 488 747 544 c 1
 765 602 822 651 885 651 c 0
 926 651 940 631 940 610 c 0
 940 607 940 604 939 601 c 0
 935 576 911 559 892 559 c 0
 880 559 867 563 861 572 c 0
 854 583 844 590 832 590 c 0
 812 590 788 562 777 533 c 0
 755 470 720 368 643 343 c 1
 705 343 714 296 727 236 c 1
 752 103 789 28 822 28 c 2
 831 28 l 2
 835 28 838 25 837 20 c 2
 833 1 l 1
 832 -1 l 1
EndSplineSet
EndChar

StartChar: afii10025
Encoding: 1047 1047 77
Width: 520
VWidth: 999
Flags: HW
LayerCount: 2
Fore
SplineSet
242 25 m 0
 310 25 403 68 426 176 c 0
 437 227 422 336 310 336 c 2
 240 336 l 2
 229 336 224 343 226 354 c 0
 229 365 237 373 248 373 c 2
 292 373 l 2
 407 373 455 451 467 506 c 0
 481 573 430 624 371 624 c 0
 253 624 214 550 175 469 c 1
 147 471 l 1
 203 646 l 1
 287 646 322 658 380 658 c 0
 469 658 566 611 546 516 c 0
 529 437 477 387 403 360 c 1
 466 340 540 299 517 192 c 0
 485 41 345 -12 232 -12 c 0
 154 -12 114 19 89 43 c 0
 68 64 53 91 59 118 c 0
 64 144 79 165 101 165 c 0
 128 165 136 152 139 120 c 0
 146 59 169 25 242 25 c 0
EndSplineSet
EndChar

StartChar: afii10026
Encoding: 1048 1048 78
Width: 671
VWidth: 999
Flags: HW
HStem: -2 29<19 101 197 262 410 492 587 654> 618 29<156 223 316 399 546 613 707 790>
DStem2: 117 72 194 72 0.199368 0.979925<0.82752 21.4147 78.7759 528.286> 208 134 196 78 0.68733 0.726345<0 539.375> 508 71 585 71 0.199368 0.979925<0.820772 443.288 500.65 528.501>
LayerCount: 2
Fore
SplineSet
692 574 m 2
 585 71 l 2
 584 66 584 61 584 56 c 0
 584 36 597 27 628 27 c 2
 654 27 l 2
 658 27 661 24 660 19 c 2
 656 0 l 1
 654 -2 l 1
 654 -2 571 0 533 0 c 0
 499 0 409 -2 409 -2 c 1
 407 0 l 1
 412 19 l 2
 413 24 416 27 421 27 c 2
 446 27 l 2
 485 27 502 43 508 71 c 2
 600 505 l 1
 196 78 l 1
 194 72 l 2
 193 66 193 61 193 57 c 0
 193 36 206 27 237 27 c 2
 263 27 l 2
 267 27 270 24 269 19 c 2
 265 0 l 1
 262 -2 l 1
 262 -2 180 0 142 0 c 0
 108 0 18 -2 18 -2 c 1
 17 0 l 1
 21 19 l 1
 21 24 25 27 30 27 c 2
 55 27 l 2
 94 27 111 44 117 72 c 2
 224 575 l 2
 225 580 226 585 226 589 c 0
 226 609 213 618 181 618 c 2
 155 618 l 2
 151 618 148 621 149 626 c 2
 153 645 l 1
 156 646 l 1
 156 646 239 644 276 644 c 0
 310 644 400 646 400 646 c 1
 401 645 l 1
 397 626 l 2
 396 621 393 618 388 618 c 2
 363 618 l 2
 324 618 307 603 301 575 c 2
 208 134 l 1
 612 561 l 1
 615 574 l 2
 616 580 617 584 617 589 c 0
 617 609 603 618 572 618 c 2
 546 618 l 2
 542 618 539 621 540 626 c 2
 544 645 l 1
 546 646 l 1
 546 646 629 644 667 644 c 0
 701 644 791 647 791 647 c 1
 792 645 l 1
 789 626 l 2
 788 621 784 618 779 618 c 2
 754 618 l 2
 715 618 698 602 692 574 c 2
EndSplineSet
EndChar

StartChar: afii10027
Encoding: 1049 1049 79
Width: 671
VWidth: 999
Flags: HW
HStem: -2 29<19 101 197 262 410 492 587 654> 618 29<156 223 316 399 546 613 707 790> 697 33<449 548>
DStem2: 117 72 194 72 0.199368 0.979925<0.82752 21.4147 78.7759 528.286> 208 134 196 78 0.68733 0.726345<0 539.375> 508 71 585 71 0.199368 0.979925<0.820772 443.288 500.65 528.501>
LayerCount: 2
Fore
SplineSet
692 574 m 2
 585 71 l 2
 584 66 584 61 584 56 c 0
 584 36 597 27 628 27 c 2
 654 27 l 2
 658 27 661 24 660 19 c 2
 656 0 l 1
 654 -2 l 1
 654 -2 571 0 533 0 c 0
 499 0 409 -2 409 -2 c 1
 407 0 l 1
 412 19 l 2
 413 24 416 27 421 27 c 2
 446 27 l 2
 485 27 502 43 508 71 c 2
 600 505 l 1
 196 78 l 1
 194 72 l 2
 193 66 193 61 193 57 c 0
 193 36 206 27 237 27 c 2
 263 27 l 2
 267 27 270 24 269 19 c 2
 265 0 l 1
 262 -2 l 1
 262 -2 180 0 142 0 c 0
 108 0 18 -2 18 -2 c 1
 17 0 l 1
 21 19 l 1
 21 24 25 27 30 27 c 2
 55 27 l 2
 94 27 111 44 117 72 c 2
 224 575 l 2
 225 580 226 585 226 589 c 0
 226 609 213 618 181 618 c 2
 155 618 l 2
 151 618 148 621 149 626 c 2
 153 645 l 1
 156 646 l 1
 156 646 239 644 276 644 c 0
 310 644 400 646 400 646 c 1
 401 645 l 1
 397 626 l 2
 396 621 393 618 388 618 c 2
 363 618 l 2
 324 618 307 603 301 575 c 2
 208 134 l 1
 612 561 l 1
 615 574 l 2
 616 580 617 584 617 589 c 0
 617 609 603 618 572 618 c 2
 546 618 l 2
 542 618 539 621 540 626 c 2
 544 645 l 1
 546 646 l 1
 546 646 629 644 667 644 c 0
 701 644 791 647 791 647 c 1
 792 645 l 1
 789 626 l 2
 788 621 784 618 779 618 c 2
 754 618 l 2
 715 618 698 602 692 574 c 2
607 776 m 1
 578 725 529 692 481 692 c 0
 422 692 376 720 376 760 c 0
 376 797 404 804 419 804 c 0
 439 804 452 796 452 783 c 0
 452 773 449 772 449 763 c 0
 449 744 465 730 494 730 c 0
 521 730 563 756 589 792 c 1
 607 776 l 1
EndSplineSet
LCarets2: 1 0 
EndChar

StartChar: afii10033
Encoding: 1055 1055 80
Width: 691
VWidth: 487
Flags: HW
HStem: 1 27<23 110 200 274 422 509 598 673> 604 39<291 605> 619 27<131 207 696 782>
DStem2: 119 72 199 72 0.173403 0.984851<1.95932 523.213> 518 72 598 72 0.173403 0.984851<1.95932 514.15>
LayerCount: 2
Fore
SplineSet
518 72 m 2
 604 560 l 2
 605 567 605 573 605 579 c 0
 605 595 599 604 575 604 c 2
 329 604 l 2
 298 604 291 593 285 560 c 2
 199 72 l 2
 198 67 198 63 198 60 c 0
 198 38 212 28 246 28 c 2
 272 28 l 2
 277 28 280 25 279 20 c 2
 276 1 l 1
 274 -1 l 1
 274 -1 187 1 148 1 c 0
 112 1 19 -1 19 -1 c 1
 17 1 l 1
 21 20 l 1
 21 25 25 28 30 28 c 2
 56 28 l 2
 97 28 114 44 119 72 c 2
 207 574 l 2
 208 579 208 583 208 587 c 0
 208 613 191 619 164 619 c 2
 134 619 l 2
 127 619 127 623 127 626 c 2
 131 646 l 1
 138 646 243 643 257 643 c 0
 319 643 385 643 456 643 c 0
 518 643 584 643 656 643 c 0
 662 643 787 646 789 646 c 1
 785 627 l 2
 785 623 780 619 775 619 c 2
 746 619 l 1
 718 618 692 604 687 574 c 2
 598 72 l 2
 597 67 597 63 597 60 c 0
 597 38 611 28 645 28 c 2
 671 28 l 2
 676 28 679 25 678 20 c 2
 675 1 l 1
 673 -1 l 1
 673 -1 586 1 547 1 c 0
 511 1 418 -1 418 -1 c 1
 416 1 l 1
 419 20 l 2
 420 25 424 28 429 28 c 2
 455 28 l 2
 496 28 513 44 518 72 c 2
EndSplineSet
EndChar

StartChar: afii10034
Encoding: 1056 1056 81
Width: 499
VWidth: 999
Flags: HW
HStem: -1 29<53 53 53 141 230 304 304 304> 282 33<295 439> 617 26<161 218> 620 34<349 490>
VStem: 529 86<428 584>
DStem2: 149 71 230 71 0.173426 0.984847<1.96126 238.021 266.278 522.271>
LayerCount: 2
Fore
SplineSet
291 574 m 2
 242 321 l 1
 252 318 285 316 309 316 c 0
 402 316 462 360 483 468 c 0
 487 487 489 505 489 519 c 0
 489 602 435 620 378 620 c 0
 309 620 296 603 291 574 c 2
115 71 m 2
 213 574 l 2
 214 577 214 581 214 584 c 0
 214 608 193 615 179 616 c 2
 142 618 l 2
 138 618 136 620 137 624 c 2
 141 645 l 1
 144 647 l 1
 179 646 228 645 266 645 c 0
 305 645 367 654 392 654 c 0
 540 654 574 577 574 518 c 0
 574 506 573 496 571 486 c 0
 555 401 482 282 307 282 c 0
 273 282 256 285 236 292 c 1
 193 71 l 2
 192 66 192 62 192 58 c 0
 192 38 206 31 237 29 c 2
 272 27 l 2
 276 27 279 24 278 19 c 2
 274 0 l 1
 272 -2 l 1
 227 -1 179 0 141 0 c 0
 101 0 53 -1 18 -2 c 1
 16 0 l 1
 20 19 l 2
 21 24 24 27 29 27 c 2
 54 29 l 2
 93 32 110 43 115 71 c 2
EndSplineSet
EndChar

StartChar: afii10035
Encoding: 1057 1057 82
Width: 616
VWidth: 999
Flags: HW
HStem: -12 42<283 476> 621 37<382 571>
VStem: 97 89<143 315 334 369> 655 31<448 536>
LayerCount: 2
Fore
SplineSet
338 -10 m 0
 164 -10 89 108 89 241 c 0
 89 266 91 290 96 315 c 0
 134 512 310 658 469 658 c 0
 587 658 616 616 670 613 c 1
 664 559 662 510 661 458 c 1
 632 454 l 1
 624 540 584 621 451 621 c 0
 375 621 223 537 183 334 c 0
 178 306 175 277 175 250 c 0
 175 133 225 31 345 31 c 0
 434 31 506 62 589 140 c 1
 600 140 605 134 608 125 c 1
 526 36 431 -10 338 -10 c 0
EndSplineSet
EndChar

StartChar: afii10036
Encoding: 1058 1058 83
Width: 544
VWidth: 999
Flags: HW
HStem: -1 29<174 175 175 262 351 426 426 426> 606 39<174 191 191 359 444 617>
VStem: 631 30<519 593>
DStem2: 271 72 351 72 0.173841 0.984774<-21.5396 535.591>
LayerCount: 2
Fore
SplineSet
199 645 m 2
 605 645 l 2
 625 645 630 662 631 668 c 1
 657 672 l 1
 647 623 641 569 639 518 c 1
 609 513 l 1
 608 590 604 606 552 606 c 2
 488 606 l 2
 454 606 441 598 434 564 c 2
 338 72 l 2
 337 67 337 63 337 60 c 0
 337 38 351 32 383 29 c 2
 407 27 l 2
 412 27 415 24 414 19 c 2
 411 0 l 1
 408 -2 l 1
 364 -1 324 0 286 0 c 0
 247 0 209 -1 164 -2 c 1
 162 0 l 1
 166 19 l 2
 167 24 170 27 175 27 c 2
 200 29 l 2
 242 32 255 44 261 72 c 2
 357 567 l 2
 358 573 359 577 359 581 c 0
 359 601 347 606 317 606 c 2
 238 606 l 2
 185 606 170 593 135 513 c 1
 107 518 l 1
 129 571 145 623 158 672 c 1
 183 668 l 1
 183 666 182 663 182 661 c 0
 182 653 185 645 199 645 c 2
EndSplineSet
EndChar

StartChar: afii10037
Encoding: 1059 1059 84
Width: 580
VWidth: 999
Flags: HW
HStem: -22 62<130 230> 618 27<127 156 156 180 281 357 511 574 629 699>
DStem2: 282 575 197 559 0.257732 -0.966216<-35.4977 358.123>
LayerCount: 2
Fore
SplineSet
203 40 m 0
 235 40 264 61 310 136 c 1
 197 559 l 2
 191 579 179 618 130 618 c 0
 124 618 121 621 122 625 c 2
 125 645 l 1
 127 646 l 1
 127 646 189 645 230 645 c 0
 280 645 361 646 361 646 c 1
 363 645 l 1
 359 626 l 2
 358 621 355 618 351 618 c 2
 312 618 l 2
 291 618 283 612 281 602 c 0
 280 595 280 586 282 575 c 2
 372 229 l 1
 570 575 l 2
 577 587 581 595 582 601 c 0
 582 602 582 604 582 605 c 0
 582 616 570 618 545 618 c 2
 516 618 l 2
 512 618 510 621 511 625 c 2
 515 645 l 1
 517 646 l 1
 517 646 582 645 625 645 c 0
 656 645 705 646 705 646 c 1
 706 645 l 1
 702 626 l 2
 701 620 694 618 690 618 c 0
 644 618 632 606 608 566 c 2
 373 161 l 2
 310 52 240 -22 150 -22 c 0
 110 -22 72 -2 72 27 c 0
 72 29 72 31 73 33 c 0
 78 61 96 79 128 79 c 0
 142 79 164 72 170 60 c 1
 176 51 188 40 203 40 c 0
EndSplineSet
EndChar

StartChar: afii10039
Encoding: 1061 1061 85
Width: 628
VWidth: 999
Flags: HW
HStem: -1 29<9 9 9 88 159 200 422 451 451 476 598 650> 618 29<307 363 558 604 668 710 710 752>
DStem2: 149 104 178 77 0.681057 0.73223<-40.9895 269.248 381.677 679.194> 312 572 225 549 0.458131 -0.888885<-38.9609 209.33 289.832 551.748>
LayerCount: 2
Fore
SplineSet
134 625 m 2
 138 644 l 1
 141 647 l 1
 179 646 217 645 240 645 c 0
 263 645 312 646 357 647 c 1
 357 647 357 644 358 644 c 2
 355 625 l 2
 354 620 351 618 349 618 c 2
 317 616 l 2
 300 615 294 610 294 601 c 0
 294 594 298 584 304 572 c 2
 384 396 l 2
 388 389 391 385 393 385 c 0
 396 385 401 389 408 397 c 2
 566 572 l 2
 579 586 587 598 587 605 c 0
 587 611 582 615 569 616 c 2
 541 618 l 2
 537 618 534 620 535 625 c 2
 539 645 l 1
 541 647 l 1
 580 646 614 645 636 645 c 0
 658 645 691 646 730 647 c 1
 732 645 l 1
 728 625 l 2
 728 622 726 618 718 618 c 0
 660 616 633 588 600 552 c 2
 440 375 l 2
 429 363 423 354 421 345 c 0
 421 343 420 342 420 340 c 0
 420 331 424 323 430 312 c 2
 537 102 l 2
 556 63 582 30 624 27 c 0
 629 27 630 23 630 20 c 2
 626 0 l 1
 624 -2 l 1
 585 -1 545 0 523 0 c 0
 501 0 448 -1 403 -2 c 1
 400 0 l 1
 404 20 l 2
 405 24 407 27 411 27 c 2
 431 29 l 2
 454 31 463 34 463 44 c 0
 463 50 459 59 452 73 c 2
 362 261 l 2
 358 269 354 272 350 272 c 0
 348 272 341 266 333 258 c 2
 171 77 l 2
 160 64 152 53 152 44 c 0
 152 36 159 31 176 29 c 2
 194 27 l 2
 199 26 199 23 199 20 c 2
 195 0 l 1
 192 -2 l 1
 147 -1 122 0 84 0 c 0
 56 0 32 -1 3 -2 c 1
 3 0 l 1
 7 20 l 2
 8 25 13 27 19 27 c 0
 75 30 117 74 144 104 c 2
 312 291 l 2
 319 299 325 308 326 314 c 0
 326 316 327 318 327 320 c 0
 327 328 324 335 318 344 c 1
 220 549 l 2
 192 607 164 615 148 618 c 0
 139 620 133 621 134 625 c 2
EndSplineSet
EndChar

StartChar: afii10040
Encoding: 1062 1062 86
Width: 639
VWidth: 487
Flags: HW
HStem: -1 29<25 100> 2 34<186 472> 618 29<145 206 290 367 517 577 661 737>
DStem2: 106 75 188 83 0.190921 0.981605<-0.0939277 530.346> 479 83 559 77 0.190714 0.981646<-2.66829 521.377>
LayerCount: 2
Fore
SplineSet
458 2 m 2
 458 2 369 3 271 3 c 0
 222 3 171 3 128 2 c 2
 20 -1 l 1
 17 1 l 1
 21 18 l 1
 21 23 27 28 31 28 c 2
 58 28 l 1
 90 29 99 35 106 75 c 2
 203 572 l 2
 205 582 206 590 206 596 c 0
 206 614 197 618 172 618 c 2
 143 618 l 2
 139 618 137 619 138 623 c 2
 143 645 l 1
 145 646 l 1
 253 645 l 1
 370 646 l 1
 372 645 l 1
 368 623 l 2
 367 620 365 618 361 618 c 2
 332 618 l 2
 299 618 292 612 284 572 c 2
 188 83 l 2
 187 73 186 65 186 59 c 0
 186 40 195 37 219 37 c 2
 431 37 l 2
 467 37 473 51 479 83 c 2
 574 572 l 2
 576 581 577 589 577 596 c 0
 577 611 570 617 544 618 c 1
 514 618 l 2
 511 618 509 619 510 623 c 2
 514 645 l 1
 517 646 l 1
 624 645 l 1
 740 646 l 1
 742 645 l 1
 738 623 l 2
 738 620 735 618 731 618 c 2
 702 618 l 1
 666 617 661 605 655 572 c 2
 559 77 l 2
 558 73 557 69 557 65 c 0
 557 45 569 28 590 28 c 0
 611 28 616 20 616 12 c 0
 616 11 615 9 615 8 c 2
 593 -141 l 1
 566 -141 l 1
 565 -70 536 2 458 2 c 2
EndSplineSet
EndChar

StartChar: afii10041
Encoding: 1063 1063 87
Width: 620
VWidth: 999
Flags: HW
HStem: -1 27<370 456 540 604> 250 58<275 419> 620 27<155 212 295 366 500 564 647 724>
VStem: 174 81<328 412>
DStem2: 180 428 259 417 0.19095 0.9816<-29.3369 173.978> 463 73 543 73 0.191175 0.981556<-9.07944 248.213 286.997 535.532>
LayerCount: 2
Fore
SplineSet
414 26 m 2
 450 26 457 39 463 73 c 2
 510 317 l 1
 428 266 356 250 299 250 c 0
 208 250 174 300 174 371 c 0
 174 389 176 408 180 428 c 2
 209 578 l 2
 211 587 212 594 212 599 c 0
 212 616 203 620 174 620 c 2
 156 620 l 2
 153 620 151 621 151 623 c 0
 151 624 151 624 151 625 c 2
 155 646 l 1
 262 645 l 1
 371 646 l 1
 367 625 l 2
 366 621 364 620 360 620 c 2
 342 620 l 2
 300 620 296 609 290 578 c 2
 259 417 l 2
 256 405 255 393 255 383 c 0
 255 328 290 308 352 308 c 0
 381 308 445 312 518 355 c 1
 561 577 l 2
 563 586 564 594 564 599 c 0
 564 615 555 619 529 619 c 2
 500 619 l 2
 496 619 495 621 496 624 c 2
 500 646 l 1
 614 644 l 1
 729 646 l 1
 725 625 l 2
 724 621 722 619 718 619 c 2
 689 619 l 2
 655 619 649 614 642 577 c 2
 543 73 l 2
 542 63 540 55 540 49 c 0
 540 32 549 26 574 26 c 2
 603 26 l 2
 606 26 608 23 607 20 c 2
 604 -1 l 1
 490 1 l 1
 365 -1 l 1
 369 21 l 2
 370 24 371 26 375 26 c 2
 414 26 l 2
EndSplineSet
EndChar

StartChar: afii10042
Encoding: 1064 1064 88
Width: 923
VWidth: 487
Flags: HW
HStem: -2 29<33 106 835 892> 0 34<200 430 515 752> 618 29<155 222 317 396 479 542 637 717 801 865 960 1042>
DStem2: 118 75 197 83 0.199368 0.979925<-2.83955 524.751> 440 83 518 83 0.199368 0.979925<-9.7043 515.122> 763 83 837 70 0.199368 0.979925<-19.4915 515.747>
LayerCount: 2
Fore
SplineSet
944 574 m 2
 837 70 l 2
 835 61 834 54 834 49 c 0
 834 32 843 27 866 27 c 2
 895 27 l 2
 898 27 899 25 899 22 c 2
 894 0 l 1
 892 -2 l 1
 782 0 l 1
 172 0 l 1
 32 -2 l 1
 30 0 l 1
 35 22 l 2
 36 25 38 27 41 27 c 2
 70 27 l 1
 102 28 109 36 118 75 c 2
 224 574 l 2
 225 579 225 584 225 588 c 0
 225 609 212 618 181 618 c 2
 155 618 l 2
 151 618 148 621 149 626 c 2
 153 645 l 1
 155 646 l 1
 155 646 238 645 276 645 c 0
 310 645 397 646 397 646 c 1
 399 645 l 1
 395 626 l 2
 394 621 391 618 386 618 c 2
 363 618 l 2
 324 618 307 602 301 574 c 2
 197 83 l 2
 194 72 193 63 193 56 c 0
 193 49 194 44 200 39 c 1
 203 35 211 34 224 34 c 2
 397 34 l 2
 427 34 434 52 440 83 c 2
 544 574 l 2
 546 579 546 584 546 588 c 0
 546 609 533 618 501 618 c 2
 479 618 l 2
 474 618 471 621 472 626 c 2
 476 645 l 1
 479 646 l 1
 479 646 559 645 597 645 c 0
 631 645 718 646 718 646 c 1
 720 645 l 1
 716 626 l 2
 715 621 711 618 707 618 c 2
 684 618 l 2
 644 618 627 602 622 574 c 2
 518 83 l 2
 516 74 514 65 514 58 c 0
 514 43 521 34 542 34 c 2
 715 34 l 2
 746 34 754 44 763 83 c 2
 867 574 l 2
 868 579 869 584 869 588 c 0
 869 609 855 618 824 618 c 2
 801 618 l 2
 796 618 793 621 794 626 c 2
 798 645 l 1
 801 646 l 1
 801 646 881 645 919 645 c 0
 953 645 1043 646 1043 646 c 1
 1044 645 l 1
 1041 626 l 2
 1040 621 1036 618 1031 618 c 2
 1006 618 l 2
 967 618 950 602 944 574 c 2
EndSplineSet
EndChar

StartChar: afii10043
Encoding: 1065 1065 89
Width: 940
VWidth: 487
Flags: HW
HStem: 0 27<33 107> 0 34<194 430 515 751> 618 29<155 222 317 396 479 542 637 717 801 865 960 1042>
VStem: 840 26<-141 -131> 840 51<-132 18>
DStem2: 117 70 197 83 0.199368 0.979925<4.56845 529.727> 440 83 518 83 0.199368 0.979925<-9.59102 515.122> 763 83 839 81 0.199368 0.979925<-3.99227 515.747>
LayerCount: 2
Fore
SplineSet
301 574 m 2
 197 83 l 2
 195 74 193 66 193 59 c 0
 193 43 200 34 224 34 c 2
 390 34 l 2
 426 34 433 47 440 83 c 2
 544 574 l 2
 546 579 546 584 546 588 c 0
 546 609 533 618 501 618 c 2
 479 618 l 2
 474 618 471 621 472 626 c 2
 476 645 l 1
 479 646 l 1
 479 646 559 645 597 645 c 0
 631 645 718 646 718 646 c 1
 720 645 l 1
 716 626 l 2
 715 621 711 618 707 618 c 2
 684 618 l 2
 644 618 627 602 622 574 c 2
 518 83 l 2
 515 73 514 65 514 58 c 0
 514 41 524 34 553 34 c 2
 715 34 l 2
 748 34 755 47 763 83 c 2
 867 574 l 2
 868 579 869 584 869 588 c 0
 869 609 855 618 824 618 c 2
 801 618 l 2
 796 618 793 621 794 626 c 2
 798 645 l 1
 801 646 l 1
 801 646 881 645 919 645 c 0
 953 645 1043 646 1043 646 c 1
 1044 645 l 1
 1041 626 l 2
 1040 621 1036 618 1031 618 c 2
 1006 618 l 2
 967 618 950 602 944 574 c 2
 839 81 l 2
 838 74 837 69 837 64 c 0
 837 37 854 27 867 27 c 0
 881 27 892 24 892 12 c 0
 892 10 891 8 891 6 c 2
 866 -141 l 1
 840 -141 l 1
 840 -138 840 -134 840 -131 c 0
 840 -84 821 0 744 0 c 2
 141 0 l 1
 32 -2 l 1
 30 0 l 1
 35 22 l 2
 36 25 38 27 41 27 c 2
 70 27 l 2
 102 27 108 31 117 70 c 2
 224 574 l 2
 225 579 225 584 225 588 c 0
 225 609 212 618 181 618 c 2
 155 618 l 2
 151 618 148 621 149 626 c 2
 153 645 l 1
 155 646 l 1
 155 646 238 645 276 645 c 0
 310 645 397 646 397 646 c 1
 399 645 l 1
 395 626 l 2
 394 621 391 618 386 618 c 2
 363 618 l 2
 324 618 307 602 301 574 c 2
EndSplineSet
EndChar

StartChar: afii10044
Encoding: 1066 1066 90
Width: 717
VWidth: 999
Flags: HW
HStem: -1 30<183 270 360 519> 333 40<418 582> 606 39<227 376> 618 27<466 554>
VStem: 631 91<191 289>
DStem2: 279 72 361 79 0.190896 0.98161<2.16636 281.979 322.294 514.585>
LayerCount: 2
Fore
SplineSet
411 333 m 1
 361 79 l 2
 359 71 358 64 358 58 c 0
 358 39 369 29 411 29 c 0
 562 29 615 121 627 183 c 1
 630 193 631 205 631 217 c 0
 631 273 603 333 498 333 c 2
 411 333 l 1
429 645 m 2
 465 645 558 646 558 646 c 1
 560 645 l 1
 556 626 l 2
 555 621 552 618 547 618 c 2
 521 618 l 2
 479 618 462 602 457 574 c 2
 418 373 l 1
 479 373 l 2
 679 373 722 306 722 233 c 0
 722 216 720 199 717 183 c 0
 684 16 524 -1 403 -1 c 0
 367 -1 336 1 307 1 c 0
 271 1 178 -1 178 -1 c 1
 176 1 l 1
 180 20 l 2
 181 25 185 28 189 28 c 2
 216 28 l 2
 257 28 273 44 279 72 c 2
 375 564 l 2
 376 569 376 573 376 577 c 0
 376 596 367 606 343 606 c 2
 281 606 l 2
 216 606 164 512 147 469 c 1
 118 474 l 1
 138 530 153 584 167 646 c 1
 390 646 l 1
 429 645 l 2
EndSplineSet
EndChar

StartChar: afii10045
Encoding: 1067 1067 91
Width: 786
VWidth: 999
Flags: HW
HStem: -1 30<23 111 200 360> 2 27<516 604 693 766> 333 40<259 423> 618 27<145 208 208 217 307 395 637 710 799 887> 619 29<637 664>
VStem: 472 91<191 289>
DStem2: 120 72 202 79 0.190052 0.981774<2.09752 281.912 322.226 523.525> 612 73 693 73 0.190793 0.98163<2.68138 524.56>
LayerCount: 2
Fore
SplineSet
791 575 m 2
 693 73 l 2
 692 68 692 64 692 60 c 0
 692 38 706 29 739 29 c 2
 766 29 l 2
 770 29 773 26 772 21 c 2
 769 2 l 1
 766 0 l 1
 766 0 680 2 641 2 c 0
 605 2 511 0 511 0 c 1
 510 2 l 1
 513 21 l 2
 514 26 518 29 523 29 c 2
 549 29 l 2
 590 29 607 45 612 73 c 2
 710 575 l 2
 711 580 711 584 711 588 c 0
 711 610 697 619 664 619 c 2
 637 619 l 2
 633 619 630 622 631 627 c 2
 634 646 l 1
 637 648 l 1
 637 648 723 646 762 646 c 0
 798 646 892 648 892 648 c 1
 893 646 l 1
 890 627 l 2
 889 622 885 619 880 619 c 2
 854 619 l 2
 812 619 796 603 791 575 c 2
217 574 m 2
 218 578 219 582 219 586 c 0
 219 606 206 618 171 618 c 2
 145 618 l 2
 140 618 138 621 139 626 c 2
 143 645 l 1
 145 646 l 1
 145 646 238 645 273 645 c 0
 312 645 399 646 399 646 c 1
 401 645 l 1
 397 626 l 2
 396 621 392 618 388 618 c 2
 361 618 l 2
 322 618 304 604 298 574 c 2
 259 373 l 1
 320 373 l 2
 520 373 563 306 563 233 c 0
 563 216 561 199 558 183 c 0
 525 16 365 -1 244 -1 c 0
 208 -1 177 1 148 1 c 0
 120 1 19 -1 19 -1 c 1
 17 1 l 1
 21 20 l 2
 22 25 25 28 30 28 c 2
 57 28 l 2
 98 28 114 44 120 72 c 2
 217 574 l 2
251 333 m 1
 202 79 l 2
 200 71 199 64 199 58 c 0
 199 39 210 29 251 29 c 0
 403 29 456 121 468 183 c 0
 470 193 472 205 472 217 c 0
 472 273 444 333 339 333 c 2
 251 333 l 1
EndSplineSet
EndChar

StartChar: afii10046
Encoding: 1068 1068 92
Width: 558
VWidth: 999
Flags: HW
HStem: -1 30<23 111 200 360> 333 40<259 423> 618 27<145 208 208 217 307 395>
VStem: 472 91<191 289>
DStem2: 120 72 202 79 0.190052 0.981774<2.09752 281.912 322.226 523.525>
LayerCount: 2
Fore
SplineSet
217 574 m 2
 218 578 219 582 219 586 c 0
 219 606 206 618 171 618 c 2
 145 618 l 2
 140 618 138 621 139 626 c 2
 143 645 l 1
 145 646 l 1
 145 646 238 645 273 645 c 0
 312 645 399 646 399 646 c 1
 401 645 l 1
 397 626 l 2
 396 621 392 618 388 618 c 2
 361 618 l 2
 322 618 304 604 298 574 c 2
 259 373 l 1
 320 373 l 2
 520 373 563 306 563 233 c 0
 563 216 561 199 558 183 c 0
 525 16 365 -1 244 -1 c 0
 208 -1 177 1 148 1 c 0
 120 1 19 -1 19 -1 c 1
 17 1 l 1
 21 20 l 2
 22 25 25 28 30 28 c 2
 57 28 l 2
 98 28 114 44 120 72 c 2
 217 574 l 2
251 333 m 1
 202 79 l 2
 200 71 199 64 199 58 c 0
 199 39 210 29 251 29 c 0
 403 29 456 121 468 183 c 0
 470 193 472 205 472 217 c 0
 472 273 444 333 339 333 c 2
 251 333 l 1
EndSplineSet
EndChar

StartChar: afii10047
Encoding: 1069 1069 93
Width: 579
VWidth: 999
Flags: HW
LayerCount: 2
Fore
SplineSet
518 307 m 1
 458 273 415 273 403 273 c 0
 343 273 310 311 253 311 c 0
 217 311 198 295 190 295 c 0
 187 295 182 298 184 307 c 0
 189 332 256 360 312 360 c 0
 376 360 398 329 454 329 c 0
 480 329 504 335 525 344 c 1
 559 550 469 621 391 621 c 0
 300 621 217 540 174 454 c 1
 146 458 l 1
 168 511 186 558 200 613 c 1
 256 616 306 658 407 658 c 0
 565 658 655 550 609 333 c 0
 562 113 424 -12 261 -12 c 0
 178 -12 131 19 106 43 c 0
 84 64 71 95 77 122 c 0
 82 148 98 165 115 165 c 0
 143 165 151 152 154 120 c 0
 162 48 209 21 278 21 c 0
 400 21 487 169 518 307 c 1
EndSplineSet
EndChar

StartChar: afii10048
Encoding: 1070 1070 94
Width: 905
VWidth: 999
Flags: HW
HStem: -12 34<521 674> 1 27<24 112 200 274> 618 27<145 208 208 218 307 395> 624 34<616 765>
VStem: 337 91<130 285> 850 89<364 525>
DStem2: 120 71 201 71 0.190793 0.98163<2.68147 525.239>
LayerCount: 2
Fore
SplineSet
683 624 m 0
 599 624 477 537 436 327 c 0
 430 297 428 269 428 243 c 0
 428 102 506 22 597 22 c 0
 700 22 804 131 838 310 c 0
 846 349 850 385 850 417 c 0
 850 554 784 624 683 624 c 0
930 329 m 0
 891 129 750 -12 572 -12 c 0
 434 -12 337 81 337 232 c 0
 337 255 339 280 344 305 c 1
 246 305 l 1
 201 71 l 2
 200 67 199 62 199 58 c 0
 199 37 214 28 247 28 c 2
 273 28 l 2
 278 28 281 25 280 20 c 2
 276 1 l 1
 274 -1 l 1
 274 -1 188 1 148 1 c 0
 113 1 20 -1 20 -1 c 1
 18 1 l 1
 21 20 l 2
 22 25 26 28 31 28 c 2
 57 28 l 2
 98 28 115 43 120 71 c 2
 218 574 l 2
 219 579 219 583 219 587 c 0
 219 608 205 618 172 618 c 2
 146 618 l 2
 141 618 138 621 139 626 c 2
 143 645 l 1
 145 646 l 1
 145 646 231 645 271 645 c 0
 306 645 399 646 399 646 c 1
 401 645 l 1
 397 626 l 2
 396 621 393 618 388 618 c 2
 362 618 l 2
 321 618 304 602 298 574 c 2
 254 344 l 1
 353 344 l 1
 401 523 545 658 701 658 c 0
 844 658 938 562 938 411 c 0
 938 385 936 358 930 329 c 0
EndSplineSet
EndChar

StartChar: afii10049
Encoding: 1071 1071 95
Width: 561
VWidth: 999
Flags: HW
HStem: 0 28<16 71 290 379 467 541> 323 43<341 367 367 436> 611 35<308 484> 618 27<572 664>
VStem: 161 79<400 491>
LayerCount: 2
Fore
SplineSet
436 323 m 1
 329 323 307 282 251 180 c 0
 191 70 148 1 77 0 c 2
 11 -1 l 1
 10 1 l 1
 14 20 l 2
 15 25 19 28 22 28 c 2
 32 28 l 2
 64 28 129 103 208 236 c 0
 232 277 252 311 282 329 c 1
 224 338 161 375 161 454 c 0
 161 464 162 475 164 487 c 0
 177 556 229 646 415 646 c 0
 450 646 508 645 541 645 c 0
 573 645 669 646 669 646 c 1
 666 625 l 2
 665 621 662 618 657 618 c 2
 627 618 l 2
 585 618 572 608 565 574 c 2
 467 71 l 2
 466 67 466 62 466 58 c 0
 466 37 480 28 514 28 c 2
 540 28 l 2
 544 28 548 25 547 20 c 2
 543 1 l 1
 541 -1 l 1
 541 -1 454 1 415 1 c 0
 379 1 286 -1 286 -1 c 1
 284 1 l 1
 288 20 l 2
 289 25 292 28 297 28 c 2
 324 28 l 2
 365 28 381 43 387 71 c 2
 436 323 l 1
485 575 m 2
 486 581 487 586 487 591 c 0
 487 609 471 611 401 611 c 0
 345 611 262 595 244 502 c 0
 241 488 240 475 240 464 c 0
 240 389 295 366 367 366 c 2
 444 366 l 1
 485 575 l 2
EndSplineSet
EndChar

StartChar: afii10089
Encoding: 1095 1095 96
Width: 515
VWidth: 999
Flags: HMW
HStem: -12 56<381 457> 131 46<184 292> 377 27<116 157> 429 10G<250 269 505 514>
DStem2: 151 254 233 293 0.21644 0.976296<-10.4794 126.88> 366 96 442 125 0.21644 0.976296<-23.1467 345.642>
LayerCount: 2
Fore
SplineSet
441 430 m 1
 452 430 495 435 516 438 c 1
 442 127 l 2
 435 95 431 69 431 59 c 0
 431 48 441 45 444 45 c 0
 458 45 475 68 499 104 c 1
 520 90 l 1
 484 27 445 -10 398 -10 c 0
 364 -10 356 16 356 35 c 0
 356 47 360 70 366 98 c 2
 392 213 l 1
 345 177 269 131 210 131 c 0
 157 131 144 156 144 195 c 0
 144 213 145 230 151 254 c 2
 167 321 l 2
 171 339 173 351 173 360 c 0
 173 377 167 382 158 383 c 2
 116 387 l 1
 119 411 l 1
 192 422 234 431 265 442 c 0
 267 442 269 442 269 439 c 2
 269 439 251 371 239 320 c 2
 233 293 l 2
 227 266 223 244 223 227 c 0
 223 200 228 177 261 177 c 0
 294 177 359 217 400 248 c 1
 441 430 l 1
EndSplineSet
EndChar

StartChar: afii10090
Encoding: 1096 1096 97
Width: 792
VWidth: 999
Flags: HMW
HStem: -12 49<197 275 443 523 666 725> 387 55<168 247>
DStem2: 146 148 223 155 0.21644 0.976296<-41.7261 229.771> 402 188 468 151 0.21644 0.976296<-45.9778 235.783> 634 96 710 125 0.21644 0.976296<-23.1471 58.4395 93.1982 345.007>
LayerCount: 2
Fore
SplineSet
488 42 m 0
 535 42 591 115 665 241 c 1
 709 430 l 1
 720 430 763 435 784 438 c 1
 710 127 l 2
 703 95 699 69 699 59 c 0
 699 48 709 45 712 45 c 0
 726 45 742 67 769 106 c 1
 788 90 l 1
 752 27 713 -10 667 -10 c 0
 632 -10 624 16 624 35 c 0
 624 47 627 70 634 98 c 2
 650 154 l 1
 646 156 l 1
 576 52 535 -10 445 -10 c 0
 422 -10 382 4 382 82 c 0
 382 90 384 108 387 124 c 1
 329 50 276 -10 205 -10 c 0
 174 -10 137 15 137 82 c 0
 137 101 141 127 146 150 c 2
 184 312 l 2
 191 344 194 361 194 371 c 0
 194 382 185 385 182 385 c 0
 172 385 153 365 124 327 c 1
 102 344 l 1
 153 419 191 440 230 440 c 0
 264 440 272 414 272 394 c 0
 272 376 268 352 261 320 c 2
 223 157 l 2
 216 127 213 103 213 92 c 0
 213 56 231 39 250 39 c 0
 282 39 317 69 402 188 c 1
 456 417 l 1
 524 442 l 1
 529 430 l 1
 468 153 l 2
 461 123 460 104 460 92 c 0
 460 53 473 42 488 42 c 0
EndSplineSet
EndChar

StartChar: afii10091
Encoding: 1097 1097 98
Width: 792
VWidth: 999
Flags: HW
HStem: -12 49<197 275 443 523 666 725> 387 55<168 247>
VStem: 700 58<-132.265 -3.8401>
DStem2: 146 148 223 155 0.21644 0.976296<-41.7261 229.771> 402 188 468 151 0.21644 0.976296<-45.9778 235.783> 634 96 710 125 0.21644 0.976296<-23.1471 58.4395 93.1982 345.007>
LayerCount: 2
Fore
SplineSet
488 42 m 0
 535 42 591 115 665 241 c 1
 709 430 l 1
 720 430 763 435 784 438 c 1
 710 127 l 2
 703 95 699 69 699 59 c 0
 699 48 709 45 712 45 c 0
 726 45 742 67 769 106 c 1
 788 90 l 1
 779 74 769 60 760 47 c 1
 753 31 749 13 749 -3 c 0
 749 -21 751 -34 753 -45 c 0
 756 -58 758 -70 758 -85 c 0
 758 -112 748 -144 653 -181 c 1
 642 -153 l 1
 672 -139 700 -124 700 -94 c 0
 700 -88 699 -80 699 -68 c 0
 699 -45 705 -22 716 5 c 1
 701 -5 684 -10 667 -10 c 0
 632 -10 624 16 624 35 c 0
 624 47 627 70 634 98 c 2
 650 154 l 1
 646 156 l 1
 576 52 535 -10 445 -10 c 0
 422 -10 382 4 382 82 c 0
 382 90 384 108 387 124 c 1
 329 50 276 -10 205 -10 c 0
 174 -10 137 15 137 82 c 0
 137 101 141 127 146 150 c 2
 184 312 l 2
 191 344 194 361 194 371 c 0
 194 382 185 385 182 385 c 0
 172 385 153 365 124 327 c 1
 102 344 l 1
 153 419 191 440 230 440 c 0
 264 440 272 414 272 394 c 0
 272 376 268 352 261 320 c 2
 223 157 l 2
 216 127 213 103 213 92 c 0
 213 56 231 39 250 39 c 0
 282 39 317 69 402 188 c 1
 456 417 l 1
 524 442 l 1
 529 430 l 1
 468 153 l 2
 461 123 460 104 460 92 c 0
 460 53 473 42 488 42 c 0
EndSplineSet
EndChar

StartChar: afii10092
Encoding: 1098 1098 99
Width: 500
VWidth: 488
Flags: HW
HStem: -12 42<244 366> 258 55<367 468> 379 44<209 352> 382 60<161 298>
VStem: 178 81<46 191> 436 81<130 252>
LayerCount: 2
Fore
SplineSet
317 30 m 0
 385 30 436 104 436 190 c 0
 436 219 429 258 395 258 c 0
 366 258 333 238 295 207 c 0
 284 198 259 172 259 111 c 0
 259 63 279 30 317 30 c 0
517 214 m 0
 517 88 387 -12 274 -12 c 0
 214 -12 178 30 178 95 c 0
 178 183 250 306 318 383 c 1
 312 382 297 379 279 379 c 0
 258 379 232 382 205 382 c 0
 166 382 146 352 123 308 c 1
 99 319 l 1
 138 427 188 442 210 442 c 0
 258 442 295 423 333 423 c 0
 348 423 364 439 376 449 c 1
 397 429 l 1
 354 381 316 335 278 231 c 1
 280 231 l 1
 349 290 405 312 445 312 c 0
 492 312 517 266 517 214 c 0
EndSplineSet
EndChar

StartChar: afii10093
Encoding: 1099 1099 100
Width: 666
VWidth: 999
Flags: HW
HStem: -12 35<187 297> -12 53<527 602> 262 53<311 405> 421 10<557 562 635 641> 432 10<257 275>
VStem: 121 75<35 174> 379 78<128 253>
DStem2: 173 321 223 228 0.21644 0.976296<-80.0899 58.4009> 491 71 563 86 0.21644 0.976296<1.74059 333.682>
LayerCount: 2
Fore
SplineSet
253 22 m 0
 309 22 379 93 379 194 c 0
 379 239 358 262 334 262 c 0
 315 262 289 250 250 215 c 0
 239 205 196 165 196 90 c 0
 196 48 220 22 253 22 c 0
245 320 m 2
 223 228 l 1
 225 228 l 1
 285 285 342 315 381 315 c 0
 428 315 457 270 457 216 c 0
 457 89 331 -12 212 -12 c 0
 163 -12 121 17 121 72 c 0
 121 87 124 106 128 123 c 2
 173 321 l 2
 177 339 179 351 179 360 c 0
 179 377 173 382 164 383 c 2
 122 387 l 1
 125 411 l 1
 198 422 240 431 271 442 c 0
 273 442 275 442 275 439 c 2
 275 439 257 371 245 320 c 2
549 322 m 2
 554 342 560 371 560 399 c 0
 560 409 559 419 557 429 c 1
 560 431 l 1
 564 430 584 429 595 429 c 0
 613 429 628 433 644 439 c 1
 644 439 630 375 623 343 c 2
 563 86 l 2
 561 75 560 65 560 58 c 0
 560 46 563 41 574 41 c 0
 601 41 625 63 647 87 c 1
 663 70 l 1
 635 33 588 -12 549 -12 c 0
 507 -12 488 8 488 43 c 0
 488 51 489 61 491 71 c 2
 549 322 l 2
EndSplineSet
EndChar

StartChar: afii10094
Encoding: 1100 1100 101
Width: 440
VWidth: 488
Flags: HW
HStem: -12 34<187.5 295.713> 262 53<312.522 404.5> 387 24<125 164> 422 20G<255.5 272>
VStem: 121 75<35.4017 173.709> 379 78<127.626 252.579>
DStem2: 99.1757 -12 169.793 -12 0.21644 0.976296<261.112 380.528>
LayerCount: 2
Fore
SplineSet
253 22 m 0
 309 22 379 93 379 194 c 0
 379 239 358 262 334 262 c 0
 315 262 289 250 250 215 c 0
 239 205 196 165 196 90 c 0
 196 48 220 22 253 22 c 0
245 320 m 2
 223 228 l 1
 225 228 l 1
 285 285 342 315 381 315 c 0
 428 315 457 270 457 216 c 0
 457 89 331 -12 212 -12 c 0
 163 -12 121 17 121 72 c 0
 121 87 124 106 128 123 c 2
 173 321 l 2
 177 339 179 351 179 360 c 0
 179 377 173 382 164 383 c 2
 122 387 l 1
 125 411 l 1
 198 422 240 431 271 442 c 0
 273 442 275 442 275 439 c 2
 275 439 257 371 245 320 c 2
EndSplineSet
EndChar

StartChar: afii10095
Encoding: 1101 1101 102
Width: 408
VWidth: 999
Flags: HW
HStem: -12 31<137 234> 180 48<206 333> 207 41<143 223> 411 31<210 315>
VStem: 57 64<29 109> 354 73<208 374>
LayerCount: 2
Fore
SplineSet
120 82 m 0
 120 78 120 76 120 71 c 0
 120 40 143 19 181 19 c 0
 268 19 327 130 345 208 c 1
 322 196 287 180 258 180 c 0
 217 180 197 207 164 207 c 0
 153 207 142 202 135 202 c 0
 129 202 130 211 131 215 c 0
 135 230 181 248 221 248 c 0
 263 248 274 229 310 229 c 0
 324 229 338 231 350 236 c 1
 352 252 354 269 354 286 c 0
 354 348 335 411 269 411 c 0
 194 411 162 354 135 293 c 1
 111 297 l 1
 126 341 137 375 152 430 c 1
 217 430 219 442 286 442 c 0
 379 442 427 370 427 284 c 0
 427 147 314 -12 168 -12 c 0
 99 -12 57 23 57 68 c 0
 57 107 86 113 93 113 c 0
 102 113 120 110 120 82 c 0
EndSplineSet
EndChar

StartChar: afii10096
Encoding: 1102 1102 103
Width: 628
VWidth: 999
Flags: HW
HStem: -12 21G<86 151.833> -10 35<410.58 495.354> 205 39<216.146 358> 387 24<113 152> 406 33<454.284 548.091> 422 20G<243.5 260>
VStem: 303 74<59.8814 274.021> 573 72<164.708 379.418>
DStem2: 83.3397 -12 158.679 -12 0.21644 0.976296<40.8892 238.704 278.676 381.358>
LayerCount: 2
Fore
SplineSet
207 205 m 1
 164 12 l 1
 91 -12 l 1
 86 0 l 1
 161 321 l 2
 165 339 167 351 167 360 c 0
 167 377 161 382 152 383 c 2
 110 387 l 1
 113 411 l 1
 186 422 228 431 259 442 c 0
 261 442 263 442 263 439 c 2
 263 439 245 371 233 320 c 2
 216 244 l 1
 313 244 l 1
 337 343 405 439 520 439 c 0
 629 439 645 349 645 277 c 0
 645 119 540 -10 427 -10 c 0
 314 -10 303 109 303 162 c 0
 303 176 304 190 306 205 c 1
 207 205 l 1
377 170 m 0
 377 42 421 25 449 25 c 0
 548 25 573 205 573 270 c 0
 573 334 573 406 504 406 c 0
 404 406 377 260 377 170 c 0
EndSplineSet
EndChar

StartChar: afii10097
Encoding: 1103 1103 104
Width: 449
VWidth: 999
Flags: HW
HStem: -12 56<312 387> -1 29<20 68> 195 35<248 318> 204 26<206 222> 402 27<254 361 435 494>
VStem: 117 68<242 349> 286 75<13 148>
DStem2: 296 96 373 125 0.199368 0.979925<-24.3936 101.989 136.934 309.237>
LayerCount: 2
Fore
SplineSet
323 230 m 1
 362 398 l 1
 349 401 335 403 322 403 c 0
 236 403 196 347 188 311 c 0
 186 304 185 297 185 290 c 0
 185 258 202 230 249 230 c 2
 323 230 l 1
318 195 m 1
 288 195 l 2
 248 195 213 144 178 84 c 0
 155 43 115 0 83 0 c 2
 20 -1 l 1
 17 1 l 1
 21 20 l 2
 23 27 29 28 34 28 c 2
 41 28 l 2
 71 28 118 98 142 136 c 0
 167 177 193 198 222 204 c 1
 182 204 117 226 117 286 c 0
 117 292 118 300 119 308 c 0
 137 382 214 430 289 430 c 2
 407 429 l 1
 496 431 l 1
 497 429 l 1
 492 405 l 2
 491 403 490 402 487 402 c 2
 462 402 l 2
 438 402 436 393 431 372 c 2
 373 125 l 2
 365 93 361 67 361 57 c 0
 361 46 372 43 374 43 c 0
 388 43 404 65 431 104 c 1
 450 88 l 1
 414 25 375 -12 329 -12 c 0
 294 -12 286 14 286 33 c 0
 286 45 290 68 296 96 c 2
 318 195 l 1
EndSplineSet
EndChar

StartChar: uni04AE
Encoding: 1198 1198 105
Width: 525
VWidth: 999
Flags: HW
HStem: -3 27<165 220 330 382> 619 27<124 163 163 164 285 340 515 564 635 687>
DStem2: 244 69 325 69 0.225015 0.974355<-20.7743 217.942> 368 341 376 293 0.605541 0.795814<0 336.084>
LayerCount: 2
Fore
SplineSet
320 47 m 0
 319 39 321 33 327 28 c 0
 330 26 338 24 351 24 c 2
 380 23 l 2
 381 23 382 23 382 23 c 2
 385 23 387 21 387 17 c 1
 387 17 387 17 386 16 c 2
 383 0 l 1
 382 -3 l 1
 380 -3 l 2
 376 -3 277 0 266 0 c 0
 263 0 167 -2 155 -3 c 1
 153 -3 l 1
 153 0 l 1
 157 16 l 2
 159 21 161 23 165 23 c 2
 165 23 166 23 167 23 c 2
 196 24 l 2
 211 24 219 26 223 28 c 0
 230 33 235 40 238 47 c 0
 240 53 242 60 244 69 c 2
 293 281 l 1
 191 573 l 1
 185 594 l 1
 180 603 175 609 167 614 c 0
 164 617 154 618 141 619 c 1
 128 619 l 1
 125 620 124 620 123 621 c 0
 121 622 119 624 120 626 c 2
 124 643 l 1
 124 646 l 1
 126 646 l 2
 130 646 221 643 231 643 c 0
 235 643 333 646 345 646 c 2
 347 646 l 1
 347 643 l 1
 343 627 l 2
 342 625 341 623 340 621 c 0
 339 620 337 619 336 619 c 2
 307 619 l 1
 292 618 286 617 284 615 c 0
 280 611 279 609 278 605 c 0
 277 602 278 600 278 597 c 0
 281 586 282 579 283 575 c 2
 368 341 l 1
 548 575 l 2
 556 585 560 592 562 597 c 1
 565 601 566 603 566 605 c 0
 567 610 567 612 565 615 c 0
 564 617 558 618 544 619 c 1
 515 619 l 1
 510 620 510 623 511 626 c 2
 515 643 l 1
 515 646 l 1
 518 646 l 2
 521 646 599 643 608 643 c 0
 611 643 686 646 694 646 c 2
 697 646 l 1
 696 643 l 1
 693 627 l 2
 692 624 690 622 688 621 c 0
 686 620 683 619 681 619 c 2
 661 619 l 1
 646 618 637 617 631 614 c 0
 620 608 611 602 605 594 c 0
 603 591 597 583 589 573 c 2
 376 293 l 1
 325 69 l 2
 323 61 321 54 320 47 c 0
EndSplineSet
EndChar

StartChar: uni04C0
Encoding: 1216 1216 106
Width: 288
VWidth: 999
Flags: HW
HStem: -2 24<32 93 202 255> 618 26<176 228 339 391>
VStem: 26 379<-4 645>
DStem2: 117 67 193 45 0.223608 0.974679<-20.7719 554.307>
LayerCount: 2
Fore
SplineSet
238 594 m 1
 238 603 236 609 231 613 c 0
 228 616 221 618 207 618 c 2
 177 618 l 1
 172 619 170 621 171 625 c 2
 176 645 l 1
 288 642 l 1
 405 645 l 1
 401 626 l 2
 400 624 398 619 391 618 c 1
 361 618 l 2
 348 618 339 616 335 613 c 0
 327 607 322 602 320 595 c 0
 318 587 316 581 314 573 c 2
 198 67 l 2
 196 59 195 52 193 45 c 1
 193 38 195 32 200 27 c 0
 203 24 211 23 224 22 c 1
 253 22 l 1
 260 21 260 18 260 14 c 1
 255 -4 l 1
 255 -4 185 -2 139 -2 c 0
 95 -2 26 -4 26 -4 c 1
 30 15 l 2
 32 21 37 22 40 22 c 2
 70 22 l 1
 84 23 92 24 96 27 c 0
 104 32 108 38 111 46 c 0
 113 51 115 59 117 67 c 2
 234 573 l 2
 236 584 237 590 238 594 c 1
EndSplineSet
EndChar

StartChar: uni04D0
Encoding: 1232 1232 107
Width: 667
VWidth: 999
Flags: HW
HStem: -2 29<4 4 4 75 136 217 217 217 438 439 439 518 616 652 652 687> 244 39<237 438> 648 10<351 365> 698 31<310 410>
VStem: 234 69<737 803> 414 69<736 789>
DStem2: 95 81 140 72 0.392235 0.919865<9.08603 526.758> 390 628 339 550 0.353155 -0.935565<55.4419 565.088>
LayerCount: 2
Fore
SplineSet
307 283 m 2
 474 283 l 1
 433 550 l 1
 431 550 l 1
 286 296 l 2
 285 294 284 292 284 290 c 0
 284 285 291 283 307 283 c 2
161 79 m 2
 156 70 154 63 154 56 c 0
 154 41 165 31 190 29 c 2
 217 27 l 2
 221 27 224 24 223 19 c 2
 220 0 l 1
 217 -2 l 1
 182 -1 131 0 92 0 c 0
 55 0 39 -1 3 -2 c 1
 2 0 l 1
 6 19 l 2
 7 24 10 27 15 27 c 0
 57 30 85 40 122 102 c 2
 437 622 l 2
 453 649 462 658 476 658 c 0
 490 658 493 647 496 628 c 2
 588 86 l 2
 594 47 610 32 648 28 c 2
 658 27 l 2
 663 27 667 24 666 19 c 2
 662 0 l 1
 660 -2 l 1
 625 -1 587 0 548 0 c 0
 511 0 456 -1 420 -2 c 1
 419 0 l 1
 423 19 l 2
 424 24 427 27 431 27 c 2
 459 29 l 2
 492 32 508 41 508 63 c 0
 508 66 508 69 507 72 c 2
 482 241 l 1
 282 241 l 2
 259 241 252 237 245 224 c 2
 161 79 l 2
615 777 m 1
 586 726 537 693 489 693 c 0
 430 693 384 721 384 761 c 0
 384 798 412 805 427 805 c 0
 447 805 460 797 460 784 c 0
 460 774 457 773 457 764 c 0
 457 745 473 731 502 731 c 0
 529 731 571 757 597 793 c 1
 615 777 l 1
EndSplineSet
LCarets2: 1 0 
EndChar

StartChar: uni04D1
Encoding: 1233 1233 108
Width: 486
VWidth: 999
Flags: HW
HStem: -12 56<171 230 365 424> 411 31<287 389> 489 38<309 401>
VStem: 78 80<53 234> 236 68<533 601> 323 77<12 148>
LayerCount: 2
Fore
SplineSet
410 433 m 1
 430 428 456 431 480 431 c 1
 411 120 l 2
 407 101 401 68 401 59 c 0
 401 47 410 45 413 45 c 0
 423 45 442 66 469 103 c 1
 492 87 l 1
 466 45 418 -10 364 -10 c 0
 330 -10 323 16 323 35 c 0
 323 47 326 66 333 90 c 2
 349 142 l 1
 347 144 l 1
 287 55 228 -10 175 -10 c 0
 91 -10 78 69 78 125 c 0
 78 282 223 439 330 439 c 0
 370 439 383 436 410 433 c 1
360 219 m 1
 385 283 395 389 395 389 c 1
 376 401 354 408 333 408 c 0
 241 408 158 247 158 141 c 0
 158 85 168 45 202 45 c 0
 234 45 311 129 360 219 c 1
465 574 m 1
 436 522 387 489 339 489 c 0
 280 489 236 518 236 558 c 0
 236 595 262 608 277 608 c 0
 298 608 308 594 308 581 c 0
 308 572 305 570 305 561 c 0
 305 542 323 528 352 528 c 0
 379 528 421 554 447 590 c 1
 465 574 l 1
EndSplineSet
LCarets2: 1 0 
EndChar

StartChar: uni04D2
Encoding: 1234 1234 109
Width: 667
VWidth: 999
Flags: HW
HStem: -1 29<13 84 154 225 447 530 639 694> 244 39<293 495> 710 91<379 447 539 608>
VStem: 367 92<722 789> 527 92<722 790>
DStem2: 117 81 161 72 0.516404 0.856345<-8.76353 226.65 271.926 570.102> 509 628 444 550 0.196965 -0.980411<64.2823 335.759 375.499 561.538>
LayerCount: 2
Fore
SplineSet
307 283 m 2
 474 283 l 1
 433 550 l 1
 431 550 l 1
 286 296 l 2
 285 294 284 292 284 290 c 0
 284 285 291 283 307 283 c 2
161 79 m 2
 156 70 154 63 154 56 c 0
 154 41 165 31 190 29 c 2
 217 27 l 2
 221 27 224 24 223 19 c 2
 220 0 l 1
 217 -2 l 1
 182 -1 131 0 92 0 c 0
 55 0 39 -1 3 -2 c 1
 2 0 l 1
 6 19 l 2
 7 24 10 27 15 27 c 0
 57 30 85 40 122 102 c 2
 437 622 l 2
 453 649 462 658 476 658 c 0
 490 658 493 647 496 628 c 2
 588 86 l 2
 594 47 610 32 648 28 c 2
 658 27 l 2
 663 27 667 24 666 19 c 2
 662 0 l 1
 660 -2 l 1
 625 -1 587 0 548 0 c 0
 511 0 456 -1 420 -2 c 1
 419 0 l 1
 423 19 l 2
 424 24 427 27 431 27 c 2
 459 29 l 2
 492 32 508 41 508 63 c 0
 508 66 508 69 507 72 c 2
 482 241 l 1
 282 241 l 2
 259 241 252 237 245 224 c 2
 161 79 l 2
420 801 m 0
 442 801 458 785 458 764 c 0
 458 732 428 710 404 710 c 0
 382 710 366 726 366 748 c 0
 366 779 395 801 420 801 c 0
581 802 m 0
 603 802 619 785 619 764 c 0
 619 733 590 711 565 711 c 0
 543 711 527 727 527 748 c 0
 527 780 556 802 581 802 c 0
EndSplineSet
LCarets2: 1 0 
EndChar

StartChar: uni04D3
Encoding: 1235 1235 110
Width: 486
VWidth: 999
Flags: HW
HStem: -12 41<132 238> -12 48<342 413> 412 30<136 257> 527 91<95 172 255 333>
VStem: 39 72<50 173> 50 80<297 344 320 381> 88 91<533 611> 249 91<533 611> 291 74<80 245 278 372> 418 24<49 83>
DStem2: 199 255 212 225 0.970142 0.242536<-76.9526 86.5693>
LayerCount: 2
Fore
SplineSet
234 564 m 0
 234 585 255 617 286 617 c 0
 308 617 327 601 327 580 c 0
 327 559 306 527 275 527 c 0
 253 527 234 543 234 564 c 0
395 564 m 0
 395 586 416 618 447 618 c 0
 469 618 488 602 488 581 c 0
 488 559 467 527 436 527 c 0
 414 527 395 543 395 564 c 0
410 433 m 1
 430 428 456 431 480 431 c 1
 411 120 l 2
 407 101 401 68 401 59 c 0
 401 47 410 45 413 45 c 0
 423 45 442 66 469 103 c 1
 492 87 l 1
 466 45 418 -10 364 -10 c 0
 330 -10 323 16 323 35 c 0
 323 47 326 66 333 90 c 2
 349 142 l 1
 347 144 l 1
 287 55 228 -10 175 -10 c 0
 91 -10 78 69 78 125 c 0
 78 282 223 439 330 439 c 0
 370 439 383 436 410 433 c 1
360 219 m 1
 385 283 395 389 395 389 c 1
 376 401 354 408 333 408 c 0
 241 408 158 247 158 141 c 0
 158 85 168 45 202 45 c 0
 234 45 311 129 360 219 c 1
EndSplineSet
EndChar

StartChar: uni04D4
Encoding: 1236 1236 111
Width: 829
VWidth: 999
Flags: HW
HStem: -2 29<4 4 4 81 136 198 198 198 342 424> 0 39<513 745> 266 39<271 429> 329 34<512 657> 605 39<516 714> 618 29<296 349>
VStem: 429 83<41 266 305 329 363 597> 670 34<250 285 407 444>
DStem2: 95 70 145 68 0.471137 0.88206<21.7421 572.666>
LayerCount: 2
Fore
SplineSet
319 305 m 1
 471 305 l 1
 524 575 l 2
 526 587 527 596 523 598 c 1
 319 305 l 1
452 0 m 2
 418 0 328 -2 328 -2 c 1
 326 0 l 1
 330 18 l 2
 331 23 334 27 339 27 c 2
 365 29 l 2
 405 32 421 46 426 74 c 2
 464 266 l 1
 293 266 l 1
 155 68 l 2
 130 32 132 31 166 29 c 2
 193 27 l 2
 197 27 198 23 198 21 c 2
 194 0 l 1
 193 -2 l 1
 193 -2 128 0 90 0 c 0
 57 0 3 -2 3 -2 c 1
 2 0 l 1
 6 19 l 2
 7 24 11 26 17 27 c 2
 39 29 l 2
 76 32 84 40 115 85 c 2
 459 577 l 2
 475 601 458 615 439 616 c 2
 410 618 l 2
 404 618 403 621 404 625 c 2
 408 645 l 1
 410 646 l 1
 578 645 l 1
 652 645 l 1
 865 645 l 1
 860 591 857 532 856 491 c 1
 827 486 l 1
 819 555 813 605 740 605 c 2
 644 605 l 2
 621 605 605 584 601 561 c 2
 562 363 l 1
 660 363 l 2
 694 363 705 379 717 407 c 2
 729 437 l 2
 731 441 734 445 738 445 c 2
 759 445 l 2
 761 445 762 443 762 441 c 0
 754 416 742 379 735 346 c 1
 729 312 726 267 724 250 c 1
 722 247 l 1
 700 247 l 2
 694 247 693 250 693 254 c 2
 694 285 l 1
 693 313 686 329 653 329 c 2
 555 329 l 1
 506 74 l 2
 501 47 513 39 534 39 c 2
 659 39 l 2
 732 39 773 100 806 172 c 1
 834 167 l 1
 813 115 791 56 777 0 c 1
 452 0 l 2
EndSplineSet
EndChar

StartChar: uni04D5
Encoding: 1237 1237 112
Width: 687
VWidth: 999
Flags: HW
HStem: 218 31<372 520> 412 30<132 239 431 547>
VStem: 39 72<54 156> 50 80<320 346 333 390> 298 72<118 215 253 336> 572 76<293 383>
LayerCount: 2
Fore
SplineSet
431 253 m 1
 541 259 651 269 651 347 c 0
 651 376 626 405 583 405 c 0
 515 405 458 338 431 253 c 1
348 215 m 1
 293 211 134 191 134 89 c 0
 134 56 155 32 208 32 c 0
 245 32 284 51 312 101 c 0
 322 119 336 165 348 215 c 1
368 334 m 0
 368 398 322 409 302 409 c 0
 269 409 205 397 205 349 c 0
 205 343 207 340 207 335 c 0
 207 311 184 292 158 292 c 0
 134 292 126 307 126 322 c 0
 126 386 222 439 312 439 c 0
 336 439 412 436 434 369 c 1
 477 414 535 439 592 439 c 0
 695 439 729 386 729 350 c 0
 729 244 569 226 421 218 c 1
 417 199 415 180 415 163 c 0
 415 87 455 39 517 39 c 0
 571 39 607 59 646 94 c 1
 660 84 l 1
 619 30 557 -10 491 -10 c 0
 400 -10 368 34 353 59 c 1
 314 18 252 -10 197 -10 c 0
 105 -10 60 26 60 81 c 0
 60 216 239 242 356 250 c 1
 364 288 368 312 368 334 c 0
EndSplineSet
EndChar

StartChar: uni04D6
Encoding: 1238 1238 113
Width: 526
VWidth: 999
Flags: HW
HStem: -2 29<14 97> 0 39<183 449> 327 34<182 361> 605 39<183 418> 618 29<14 98> 698 31<225 325>
VStem: 102 81<40 327 361 604> 149 69<737 803> 329 69<736 789> 375 34<248 283 405 442>
LayerCount: 2
Fore
SplineSet
553 646 m 0
 553 638 549 542 545 501 c 1
 517 496 l 1
 509 565 499 605 427 605 c 2
 327 605 l 2
 304 605 290 595 285 571 c 2
 245 361 l 1
 367 361 l 2
 400 361 414 375 423 403 c 1
 430 428 l 2
 431 432 435 436 439 436 c 2
 460 436 l 1
 463 432 l 1
 452 392 445 362 442 342 c 0
 438 322 433 295 429 255 c 1
 424 252 l 1
 403 252 l 2
 398 252 397 257 398 260 c 2
 400 285 l 2
 400 288 400 291 400 293 c 0
 400 316 389 323 359 323 c 2
 237 323 l 1
 188 72 l 2
 187 68 187 65 187 62 c 0
 187 43 199 39 217 39 c 2
 347 39 l 2
 420 39 469 98 502 170 c 1
 531 165 l 1
 509 113 484 50 463 -2 c 1
 463 -2 387 0 341 0 c 2
 135 0 l 2
 98 0 58 -1 13 -2 c 1
 11 0 l 1
 15 20 l 2
 16 23 18 27 24 27 c 2
 53 29 l 2
 91 32 105 44 111 72 c 2
 208 571 l 2
 209 576 210 581 210 585 c 0
 210 606 197 614 167 616 c 2
 139 618 l 2
 132 618 132 622 133 625 c 2
 137 645 l 1
 139 647 l 1
 184 646 223 645 260 645 c 2
 503 645 l 2
 526 645 532 646 549 649 c 0
 552 649 553 648 553 646 c 0
530 777 m 1
 501 726 452 693 404 693 c 0
 345 693 299 721 299 761 c 0
 299 798 327 805 342 805 c 0
 362 805 375 797 375 784 c 0
 375 774 372 773 372 764 c 0
 372 745 388 731 417 731 c 0
 444 731 486 757 512 793 c 1
 530 777 l 1
EndSplineSet
LCarets2: 1 0 
EndChar

StartChar: uni04D7
Encoding: 1239 1239 114
Width: 411
VWidth: 999
Flags: HW
HStem: -12 48<200 307> 411 31<262 358> 490 33<292 377>
VStem: 83 83<72 230> 218 70<527 572 571 572> 365 69<308 407>
LayerCount: 2
Fore
SplineSet
365 370 m 0
 365 399 349 408 313 408 c 0
 265 408 206 377 171 226 c 1
 248 232 365 275 365 370 c 0
167 199 m 1
 166 191 166 170 166 165 c 0
 166 74 204 38 249 38 c 0
 297 38 330 66 384 124 c 1
 396 124 401 119 406 108 c 1
 350 31 294 -10 213 -10 c 0
 111 -10 83 57 83 142 c 0
 83 269 165 439 336 439 c 0
 417 439 435 404 435 369 c 0
 435 331 428 250 167 199 c 1
447 574 m 1
 418 522 369 489 321 489 c 0
 262 489 218 518 218 558 c 0
 218 595 244 608 259 608 c 0
 280 608 290 594 290 581 c 0
 290 572 287 570 287 561 c 0
 287 542 305 528 334 528 c 0
 361 528 403 554 429 590 c 1
 447 574 l 1
EndSplineSet
LCarets2: 1 0 
EndChar

StartChar: uni04D8
Encoding: 1240 1240 115
Width: 668
VWidth: 999
Flags: HW
HStem: -12 34<257 429> 216 44<176 585> 624 34<363 532>
VStem: 102 74<110 216> 627 94<360 517>
LayerCount: 2
Fore
SplineSet
176 216 m 1
 178 86 245 22 342 22 c 0
 448 22 544 116 585 216 c 1
 176 216 l 1
222 523 m 1
 205 547 l 1
 301 621 366 658 476 658 c 0
 651 658 721 543 721 415 c 0
 721 386 717 355 710 326 c 0
 665 131 521 -12 328 -12 c 0
 162 -12 102 84 102 202 c 0
 102 221 104 240 106 260 c 1
 604 260 l 1
 608 271 611 283 614 297 c 0
 623 334 627 369 627 402 c 0
 627 534 561 624 453 624 c 0
 359 624 288 575 222 523 c 1
EndSplineSet
EndChar

StartChar: afii10846
Encoding: 1241 1241 116
Width: 437
VWidth: 999
Flags: HW
HStem: -13 34<178 261> 148 39<153 360> 390 49<232 346>
VStem: 73 73<61 138> 386 80<242 346>
LayerCount: 2
Fore
SplineSet
137 335 m 1
 123 346 l 1
 149 372 208 439 304 439 c 0
 368 439 414 421 439 382 c 0
 457 355 465 325 465 289 c 0
 465 268 462 245 457 220 c 0
 437 137 395 74 329 28 c 0
 291 2 250 -13 208 -13 c 0
 163 -13 132 -2 110 16 c 1
 95 30 73 59 73 117 c 0
 73 137 76 160 82 187 c 1
 372 187 l 1
 375 196 377 202 379 212 c 0
 383 232 386 251 386 268 c 0
 386 300 378 327 361 351 c 0
 343 376 317 390 283 390 c 0
 250 390 221 385 192 371 c 0
 156 354 145 342 137 335 c 1
360 148 m 1
 153 148 l 1
 149 132 146 112 146 96 c 0
 146 91 146 87 147 83 c 0
 149 64 156 49 165 41 c 0
 178 28 194 21 216 21 c 0
 238 21 258 28 276 39 c 0
 295 50 311 65 326 84 c 1
 340 104 353 130 360 148 c 1
EndSplineSet
EndChar

StartChar: uni04DA
Encoding: 1242 1242 117
Width: 668
VWidth: 999
Flags: HW
HStem: -12 34<248 417> 216 44<126 535> 624 34<209 394> 706 91<193 270 383 459>
VStem: 186 91<712 790> 375 91<713 790> 546 89<230 436>
LayerCount: 2
Fore
SplineSet
176 216 m 1
 178 86 245 22 342 22 c 0
 448 22 544 116 585 216 c 1
 176 216 l 1
222 523 m 1
 205 547 l 1
 301 621 366 658 476 658 c 0
 651 658 721 543 721 415 c 0
 721 386 717 355 710 326 c 0
 665 131 521 -12 328 -12 c 0
 162 -12 102 84 102 202 c 0
 102 221 104 240 106 260 c 1
 604 260 l 1
 608 271 611 283 614 297 c 0
 623 334 627 369 627 402 c 0
 627 534 561 624 453 624 c 0
 359 624 288 575 222 523 c 1
332 751 m 0
 337 776 362 796 387 796 c 0
 409 796 424 781 424 760 c 0
 424 757 423 754 423 751 c 0
 418 726 394 706 369 706 c 0
 347 706 331 722 331 743 c 0
 331 745 332 748 332 751 c 0
522 752 m 0
 527 776 551 797 576 797 c 0
 598 797 613 781 613 761 c 0
 613 758 613 754 612 752 c 0
 608 727 584 706 559 706 c 0
 537 706 521 722 521 744 c 0
 521 746 521 749 522 752 c 0
EndSplineSet
LCarets2: 1 0 
EndChar

StartChar: uni04DB
Encoding: 1243 1243 118
Width: 437
VWidth: 999
Flags: HW
HStem: -12 34<160 255> 153 39<131 326> 393 49<121 252> 527 91<95 172 255 333>
VStem: 48 80<68 168> 88 91<533 611> 249 91<533 611> 330 76<117 153 155 304>
LayerCount: 2
Fore
SplineSet
137 335 m 1
 123 346 l 1
 149 372 208 439 304 439 c 0
 368 439 414 421 439 382 c 0
 457 355 465 325 465 289 c 0
 465 268 462 245 457 220 c 0
 437 137 395 74 329 28 c 0
 291 2 250 -13 208 -13 c 0
 163 -13 132 -2 110 16 c 1
 95 30 73 59 73 117 c 0
 73 137 76 160 82 187 c 1
 372 187 l 1
 375 196 377 202 379 212 c 0
 383 232 386 251 386 268 c 0
 386 300 378 327 361 351 c 0
 343 376 317 390 283 390 c 0
 250 390 221 385 192 371 c 0
 156 354 145 342 137 335 c 1
360 148 m 1
 153 148 l 1
 149 132 146 112 146 96 c 0
 146 91 146 87 147 83 c 0
 149 64 156 49 165 41 c 0
 178 28 194 21 216 21 c 0
 238 21 258 28 276 39 c 0
 295 50 311 65 326 84 c 1
 340 104 353 130 360 148 c 1
242 616 m 0
 264 616 280 600 280 579 c 0
 280 547 250 525 226 525 c 0
 204 525 188 541 188 563 c 0
 188 594 217 616 242 616 c 0
403 617 m 0
 425 617 441 600 441 579 c 0
 441 548 412 526 387 526 c 0
 365 526 349 542 349 563 c 0
 349 595 378 617 403 617 c 0
EndSplineSet
LCarets2: 1 0 
EndChar

StartChar: uni04E0
Encoding: 1248 1248 119
Width: 608
VWidth: 999
Flags: HW
HStem: -211 37<187 330> 606 39<246 281 281 553>
VStem: 487 90<57 181>
DStem2: 295 252 418 288 0.5889 0.808206<101.665 438.616>
LayerCount: 2
Fore
SplineSet
281 646 m 2
 636 646 l 2
 655 646 662 641 662 634 c 0
 662 625 652 610 638 591 c 2
 418 288 l 1
 528 265 578 190 578 100 c 0
 578 83 576 67 573 51 c 0
 549 -88 395 -211 235 -211 c 0
 158 -211 21 -178 21 -118 c 0
 21 -115 21 -113 22 -110 c 0
 26 -87 42 -60 76 -60 c 0
 102 -60 128 -74 138 -95 c 0
 161 -143 205 -174 260 -174 c 0
 348 -174 466 -53 482 42 c 0
 486 60 487 77 487 93 c 0
 487 213 398 255 337 255 c 0
 321 255 310 255 295 252 c 1
 553 606 l 1
 304 606 l 1
 230 605 185 516 173 471 c 1
 147 473 l 1
 203 667 l 1
 225 663 257 646 281 646 c 2
EndSplineSet
EndChar

StartChar: uni04E1
Encoding: 1249 1249 120
Width: 426
VWidth: 999
Flags: HW
HStem: -224 29<90 216> 391 39<189 370>
VStem: 323 78<-23 68>
DStem2: 147 106 256 152 0.61609 0.787676<103.622 361.402>
LayerCount: 2
Fore
SplineSet
207 430 m 2
 437 430 l 2
 452 430 458 427 458 420 c 0
 458 419 458 418 458 417 c 0
 456 411 450 401 441 388 c 2
 256 152 l 1
 352 144 400 95 400 19 c 0
 400 3 398 -14 394 -32 c 0
 372 -128 273 -224 129 -224 c 0
 43 -224 -8 -189 -8 -158 c 0
 -8 -156 -8 -154 -7 -152 c 0
 -3 -136 8 -122 29 -122 c 0
 52 -122 67 -128 74 -149 c 0
 82 -172 104 -195 145 -195 c 0
 194 -195 292 -150 319 -33 c 0
 322 -22 323 -11 323 -1 c 0
 323 64 275 113 208 113 c 0
 190 113 170 111 147 106 c 1
 370 391 l 1
 228 391 l 2
 198 391 166 378 127 294 c 1
 102 299 l 1
 169 451 l 1
 191 447 l 1
 190 444 190 442 189 441 c 0
 188 432 193 430 207 430 c 2
EndSplineSet
EndChar

StartChar: uni04E6
Encoding: 1254 1254 121
Width: 668
VWidth: 999
Flags: HW
HStem: -12 34<279 448> 624 34<252 429> 706 91<214 291 404 480>
VStem: 37 92<199 440> 207 91<712 790> 396 91<713 790> 570 92<198 455>
LayerCount: 2
Fore
SplineSet
436 624 m 0
 349 624 228 537 187 327 c 0
 181 297 178 269 178 244 c 0
 178 103 260 24 357 24 c 0
 467 24 572 131 607 310 c 0
 614 347 617 380 617 410 c 0
 617 552 544 624 436 624 c 0
699 329 m 0
 660 129 515 -10 331 -10 c 0
 188 -10 87 82 87 234 c 0
 87 258 90 283 95 310 c 0
 133 506 284 658 455 658 c 0
 601 658 706 559 706 403 c 0
 706 380 704 355 699 329 c 0
353 751 m 0
 358 776 383 796 408 796 c 0
 430 796 445 781 445 760 c 0
 445 757 444 754 444 751 c 0
 439 726 415 706 390 706 c 0
 368 706 352 722 352 743 c 0
 352 745 353 748 353 751 c 0
543 752 m 0
 548 776 572 797 597 797 c 0
 619 797 634 781 634 761 c 0
 634 758 634 754 633 752 c 0
 629 727 605 706 580 706 c 0
 558 706 542 722 542 744 c 0
 542 746 542 749 543 752 c 0
EndSplineSet
LCarets2: 1 0 
EndChar

StartChar: uni04E7
Encoding: 1255 1255 122
Width: 447
VWidth: 999
Flags: HW
HStem: -12 36<192 318> 409 33<173 294> 528 91<125 203 286 364>
VStem: 34 79<124 320> 119 91<535 613> 279 91<535 613> 367 79<113 318>
LayerCount: 2
Fore
SplineSet
273 617 m 0
 295 617 311 601 311 580 c 0
 311 548 281 526 257 526 c 0
 235 526 219 542 219 564 c 0
 219 595 248 617 273 617 c 0
434 618 m 0
 456 618 472 601 472 580 c 0
 472 549 443 527 418 527 c 0
 396 527 380 543 380 564 c 0
 380 596 409 618 434 618 c 0
162 170 m 0
 162 42 212 25 243 25 c 0
 355 25 384 205 384 270 c 0
 384 334 384 406 306 406 c 0
 192 406 162 260 162 170 c 0
78 162 m 0
 78 282 157 439 324 439 c 0
 447 439 465 349 465 277 c 0
 465 119 346 -10 218 -10 c 0
 91 -10 78 109 78 162 c 0
EndSplineSet
LCarets2: 1 0 
EndChar

StartChar: uni04E8
Encoding: 1256 1256 123
Width: 698
VWidth: 999
Flags: HW
HStem: -12 34<279 448> 266 58<381 529> 312 58<171 337> 624 34<252 429>
VStem: 37 92<199 440> 570 92<198 455>
LayerCount: 2
Fore
SplineSet
636 341 m 1
 581 268 517 258 492 258 c 0
 460 258 434 275 408 291 c 0
 381 308 356 323 325 323 c 0
 284 323 220 297 183 254 c 1
 183 250 183 246 183 242 c 0
 183 102 262 22 372 22 c 0
 487 22 595 131 630 310 c 0
 632 320 634 331 636 341 c 1
726 329 m 0
 687 129 537 -12 346 -12 c 0
 196 -12 89 83 89 237 c 0
 89 260 92 285 97 310 c 0
 136 506 296 657 475 657 c 0
 621 657 733 558 733 400 c 0
 733 377 731 354 726 329 c 0
456 623 m 0
 359 623 233 537 192 327 c 0
 189 314 188 302 186 290 c 1
 222 340 284 382 344 382 c 0
 372 382 399 366 427 350 c 1
 454 333 481 317 508 317 c 0
 541 317 603 334 640 384 c 1
 640 391 640 398 640 405 c 0
 640 550 561 623 456 623 c 0
EndSplineSet
EndChar

StartChar: uni04E9
Encoding: 1257 1257 124
Width: 447
VWidth: 999
Flags: HW
AnchorPoint: "unten_punkt" 246 -107 basechar 0
AnchorPoint: "top_akzent" 236 645 basechar 0
LayerCount: 2
Fore
SplineSet
162 170 m 0
 162 42 212 25 243 25 c 0
 323 25 361 118 376 194 c 1
 356 186 335 179 316 179 c 0
 275 179 250 207 218 207 c 0
 207 207 177 200 170 200 c 0
 164 200 165 209 166 213 c 0
 169 228 235 249 275 249 c 0
 316 249 332 229 368 229 c 0
 372 229 377 229 381 230 c 1
 383 246 384 259 384 270 c 0
 384 334 384 406 306 406 c 0
 192 406 162 260 162 170 c 0
78 162 m 0
 78 282 157 439 324 439 c 0
 447 439 465 349 465 277 c 0
 465 119 346 -10 218 -10 c 0
 91 -10 78 109 78 162 c 0
EndSplineSet
EndChar

StartChar: uni04EA
Encoding: 1258 1258 125
Width: 698
VWidth: 999
Flags: HW
HStem: -12 34<279 448> 266 58<381 529> 312 58<171 337> 624 34<252 429> 708 91<210 288 400 477>
VStem: 37 92<199 440> 204 91<714 792> 393 91<715 792> 570 92<198 455>
LayerCount: 2
Fore
SplineSet
636 341 m 1
 581 268 517 258 492 258 c 0
 460 258 434 275 408 291 c 0
 381 308 356 323 325 323 c 0
 284 323 220 297 183 254 c 1
 183 250 183 246 183 242 c 0
 183 102 262 22 372 22 c 0
 487 22 595 131 630 310 c 0
 632 320 634 331 636 341 c 1
726 329 m 0
 687 129 537 -12 346 -12 c 0
 196 -12 89 83 89 237 c 0
 89 260 92 285 97 310 c 0
 136 506 296 657 475 657 c 0
 621 657 733 558 733 400 c 0
 733 377 731 354 726 329 c 0
456 623 m 0
 359 623 233 537 192 327 c 0
 189 314 188 302 186 290 c 1
 222 340 284 382 344 382 c 0
 372 382 399 366 427 350 c 1
 454 333 481 317 508 317 c 0
 541 317 603 334 640 384 c 1
 640 391 640 398 640 405 c 0
 640 550 561 623 456 623 c 0
350 753 m 0
 355 778 380 798 405 798 c 0
 427 798 442 783 442 762 c 0
 442 759 441 756 441 753 c 0
 436 728 412 708 387 708 c 0
 365 708 349 724 349 745 c 0
 349 747 350 750 350 753 c 0
540 754 m 0
 545 778 569 799 594 799 c 0
 616 799 631 783 631 763 c 0
 631 760 631 756 630 754 c 0
 626 729 602 708 577 708 c 0
 555 708 539 724 539 746 c 0
 539 748 539 751 540 754 c 0
EndSplineSet
LCarets2: 1 0 
EndChar

StartChar: uni04EB
Encoding: 1259 1259 126
Width: 447
VWidth: 999
Flags: HW
HStem: -12 36<192 318> 179 49<194 339> 207 42<108 228> 409 33<173 294> 527 91<128 205 288 366>
VStem: 34 79<124 320> 121 91<533 611> 282 91<533 611> 367 79<113 318>
LayerCount: 2
Fore
SplineSet
275 616 m 0
 297 616 313 600 313 579 c 0
 313 547 283 525 259 525 c 0
 237 525 221 541 221 563 c 0
 221 594 250 616 275 616 c 0
436 617 m 0
 458 617 474 600 474 579 c 0
 474 548 445 526 420 526 c 0
 398 526 382 542 382 563 c 0
 382 595 411 617 436 617 c 0
162 170 m 0
 162 42 212 25 243 25 c 0
 323 25 361 118 376 194 c 1
 356 186 335 179 316 179 c 0
 275 179 250 207 218 207 c 0
 207 207 177 200 170 200 c 0
 164 200 165 209 166 213 c 0
 169 228 235 249 275 249 c 0
 316 249 332 229 368 229 c 0
 372 229 377 229 381 230 c 1
 383 246 384 259 384 270 c 0
 384 334 384 406 306 406 c 0
 192 406 162 260 162 170 c 0
78 162 m 0
 78 282 157 439 324 439 c 0
 447 439 465 349 465 277 c 0
 465 119 346 -10 218 -10 c 0
 91 -10 78 109 78 162 c 0
EndSplineSet
LCarets2: 1 0 
EndChar

StartChar: uni04EF
Encoding: 1263 1263 127
Width: 475
VWidth: 999
Flags: HW
HStem: -221 66<62 144> 389 53<135 198> 539 44<203 209 229 454 474 481>
VStem: 450 56<306 387>
DStem2: 250 371 177 366 0.201653 -0.979457<-35.4978 297.922> 227 -62 261 -70 0.515065 0.857151<-92.1738 54.3472 164.883 452.019>
LayerCount: 2
Fore
SplineSet
454 538 m 2
 209 538 l 2
 203 538 200 543 200 549 c 0
 200 550 200 552 201 553 c 0
 204 565 218 582 229 582 c 2
 474 582 l 2
 482 582 485 577 485 572 c 0
 485 570 485 569 484 568 c 0
 482 556 467 538 454 538 c 2
74 -228 m 0
 56 -228 14 -220 14 -188 c 0
 14 -172 22 -142 70 -142 c 0
 78 -142 86 -146 94 -152 c 0
 100 -158 106 -162 116 -162 c 0
 130 -162 188 -129 227 -62 c 1
 255 -16 l 1
 232 112 211 215 177 363 c 0
 173 380 165 386 157 386 c 0
 144 386 129 371 118 359 c 0
 112 353 103 359 101 362 c 2
 92 374 l 1
 105 391 145 439 187 439 c 0
 219 439 237 422 250 368 c 0
 275 265 296 166 312 79 c 1
 422 259 l 1
 443 296 450 312 450 329 c 0
 450 337 442 346 434 354 c 0
 423 364 413 376 413 399 c 0
 413 421 434 439 455 439 c 0
 480 439 506 415 506 380 c 0
 506 352 495 316 451 242 c 2
 261 -70 l 2
 199 -171 126 -228 74 -228 c 0
EndSplineSet
LCarets2: 1 0 
EndChar

StartChar: uni04F1
Encoding: 1265 1265 128
Width: 475
VWidth: 999
Flags: HW
HStem: -221 66<62 144> 389 53<135 198> 525 91<235 303 395 464>
VStem: 223 92<537 604> 384 92<537 605> 450 56<306 387>
DStem2: 250 371 177 366 0.201653 -0.979457<-35.4978 297.922> 227 -62 261 -70 0.515065 0.857151<-92.1738 54.3472 164.883 452.019>
LayerCount: 2
Fore
SplineSet
277 616 m 0
 299 616 315 600 315 579 c 0
 315 547 285 525 261 525 c 0
 239 525 223 541 223 563 c 0
 223 594 252 616 277 616 c 0
438 617 m 0
 460 617 476 600 476 579 c 0
 476 548 447 526 422 526 c 0
 400 526 384 542 384 563 c 0
 384 595 413 617 438 617 c 0
74 -228 m 0
 56 -228 14 -220 14 -188 c 0
 14 -172 22 -142 70 -142 c 0
 78 -142 86 -146 94 -152 c 0
 100 -158 106 -162 116 -162 c 0
 130 -162 188 -129 227 -62 c 1
 255 -16 l 1
 232 112 211 215 177 363 c 0
 173 380 165 386 157 386 c 0
 144 386 129 371 118 359 c 0
 112 353 103 359 101 362 c 2
 92 374 l 1
 105 391 145 439 187 439 c 0
 219 439 237 422 250 368 c 0
 275 265 296 166 312 79 c 1
 422 259 l 1
 443 296 450 312 450 329 c 0
 450 337 442 346 434 354 c 0
 423 364 413 376 413 399 c 0
 413 421 434 439 455 439 c 0
 480 439 506 415 506 380 c 0
 506 352 495 316 451 242 c 2
 261 -70 l 2
 199 -171 126 -228 74 -228 c 0
EndSplineSet
LCarets2: 1 0 
EndChar

StartChar: uni04F3
Encoding: 1267 1267 129
Width: 475
VWidth: 999
Flags: HW
HStem: -221 66<62 144> 389 53<135 198> 481 176<261 378>
VStem: 250 290<492 623> 450 56<306 387>
DStem2: 250 371 177 366 0.201653 -0.979457<-35.4978 297.922> 227 -62 261 -70 0.515065 0.857151<-92.1738 54.3472 164.883 452.019>
LayerCount: 2
Fore
SplineSet
509 652 m 0
 527 652 540 639 540 623 c 0
 540 609 531 599 527 596 c 2
 388 486 l 2
 386 484 383 484 381 484 c 0
 372 484 366 497 372 501 c 1
 482 640 l 2
 489 649 497 652 509 652 c 0
378 657 m 0
 388 657 409 651 409 629 c 0
 409 619 405 611 399 605 c 2
 269 484 l 2
 267 482 263 481 261 481 c 0
 255 481 250 485 250 492 c 0
 250 494 250 495 251 497 c 2
 349 643 l 2
 357 656 374 657 378 657 c 0
74 -228 m 0
 56 -228 14 -220 14 -188 c 0
 14 -172 22 -142 70 -142 c 0
 78 -142 86 -146 94 -152 c 0
 100 -158 106 -162 116 -162 c 0
 130 -162 188 -129 227 -62 c 1
 255 -16 l 1
 232 112 211 215 177 363 c 0
 173 380 165 386 157 386 c 0
 144 386 129 371 118 359 c 0
 112 353 103 359 101 362 c 2
 92 374 l 1
 105 391 145 439 187 439 c 0
 219 439 237 422 250 368 c 0
 275 265 296 166 312 79 c 1
 422 259 l 1
 443 296 450 312 450 329 c 0
 450 337 442 346 434 354 c 0
 423 364 413 376 413 399 c 0
 413 421 434 439 455 439 c 0
 480 439 506 415 506 380 c 0
 506 352 495 316 451 242 c 2
 261 -70 l 2
 199 -171 126 -228 74 -228 c 0
EndSplineSet
LCarets2: 1 0 
EndChar

StartChar: uni1E00
Encoding: 7680 7680 130
Width: 667
VWidth: 999
Flags: HW
HStem: -215 29<255.184 326.553> -78 29<273.248 346.464> -2 29<4.6875 68.791 190 217 421.688 459 648 660> 241 42<283.8 474> 638 20<469 483>
VStem: 215 30<-176.478 -106.165> 356 30<-158.069 -87.5411>
DStem2: 496 628 433 550 0.167348 -0.985898<66.3571 336.453 379.2 559.216> 437 622 286 296 0.518119 0.855308<-607.433 -412.453 -363.359 -357.067>
LayerCount: 2
Fore
SplineSet
307 283 m 2
 474 283 l 1
 433 550 l 1
 431 550 l 1
 286 296 l 2
 285 294 284 292 284 290 c 0
 284 285 291 283 307 283 c 2
161 79 m 2
 156 70 154 63 154 56 c 0
 154 41 165 31 190 29 c 2
 217 27 l 2
 221 27 224 24 223 19 c 2
 220 0 l 1
 217 -2 l 1
 182 -1 131 0 92 0 c 0
 55 0 39 -1 3 -2 c 1
 2 0 l 1
 6 19 l 2
 7 24 10 27 15 27 c 0
 57 30 85 40 122 102 c 2
 437 622 l 2
 453 649 462 658 476 658 c 0
 490 658 493 647 496 628 c 2
 588 86 l 2
 594 47 610 32 648 28 c 2
 658 27 l 2
 663 27 667 24 666 19 c 2
 662 0 l 1
 660 -2 l 1
 625 -1 587 0 548 0 c 0
 511 0 456 -1 420 -2 c 1
 419 0 l 1
 423 19 l 2
 424 24 427 27 431 27 c 2
 459 29 l 2
 492 32 508 41 508 63 c 0
 508 66 508 69 507 72 c 2
 482 241 l 1
 282 241 l 2
 259 241 252 237 245 224 c 2
 161 79 l 2
313 -78 m 0
 282 -78 254 -103 247 -132 c 0
 246 -136 245 -140 245 -144 c 0
 245 -167 261 -186 288 -186 c 0
 319 -186 348 -160 354 -132 c 0
 355 -128 356 -123 356 -119 c 0
 356 -95 338 -78 313 -78 c 0
217 -132 m 0
 228 -87 273 -49 319 -49 c 0
 359 -49 386 -76 386 -113 c 0
 386 -119 385 -126 384 -132 c 0
 374 -177 329 -215 281 -215 c 0
 241 -215 215 -188 215 -151 c 0
 215 -145 215 -138 217 -132 c 0
EndSplineSet
LCarets2: 1 0 
EndChar

StartChar: uni1E01
Encoding: 7681 7681 131
Width: 486
VWidth: 999
Flags: HW
HStem: -216 27<189.794 257.684> -77 27<189.294 258.499> -10 41<137.258 238.143 339.315 425.041> 409 30<147.012 252.929>
VStem: 36 79<52.097 160.39> 53 74<295.655 377.485> 139 31<-171.178 -94.447> 278 31<-170.958 -94.519> 291 74<68.1358 233 264.049 375.745>
DStem2: 199 243 212 212 0.971457 0.237216<-65.5494 87.0019>
LayerCount: 2
Fore
SplineSet
410 433 m 1
 430 428 456 431 480 431 c 1
 411 120 l 2
 407 101 401 68 401 59 c 0
 401 47 410 45 413 45 c 0
 423 45 442 66 469 103 c 1
 492 87 l 1
 466 45 418 -10 364 -10 c 0
 330 -10 323 16 323 35 c 0
 323 47 326 66 333 90 c 2
 349 142 l 1
 347 144 l 1
 287 55 228 -10 175 -10 c 0
 91 -10 78 69 78 125 c 0
 78 282 223 439 330 439 c 0
 370 439 383 436 410 433 c 1
360 219 m 1
 385 283 395 389 395 389 c 1
 376 401 354 408 333 408 c 0
 241 408 158 247 158 141 c 0
 158 85 168 45 202 45 c 0
 234 45 311 129 360 219 c 1
201 -79 m 0
 170 -79 142 -104 135 -133 c 0
 134 -137 133 -141 133 -145 c 0
 133 -168 149 -187 176 -187 c 0
 207 -187 236 -161 242 -133 c 0
 243 -129 244 -124 244 -120 c 0
 244 -96 226 -79 201 -79 c 0
105 -133 m 0
 116 -88 161 -50 207 -50 c 0
 247 -50 274 -77 274 -114 c 0
 274 -120 273 -127 272 -133 c 0
 262 -178 217 -216 169 -216 c 0
 129 -216 103 -189 103 -152 c 0
 103 -146 103 -139 105 -133 c 0
EndSplineSet
LCarets2: 1 0 
EndChar

StartChar: uni1E02
Encoding: 7682 7682 132
Width: 557
VWidth: 999
Flags: HW
HStem: -2 34<19 54 194.805 379.143> 332 34<187 348.649> 613 34<19 54 190.534 342.72> 693 96<243.332 322.668>
VStem: 106 81<39.6512 332 366 608.096> 235 96<701.332 780.668> 405 77<424.289 559.02> 452 89<97.5427 249.544>
LayerCount: 2
Fore
SplineSet
290 570 m 2
 250 366 l 1
 321 366 l 2
 401 366 465 396 482 481 c 0
 485 494 486 505 486 516 c 0
 486 590 429 613 382 613 c 0
 298 613 296 603 290 570 c 2
244 332 m 1
 194 78 l 2
 193 73 193 68 193 64 c 0
 193 41 208 32 265 32 c 0
 411 32 451 92 466 165 c 0
 468 178 470 190 470 202 c 0
 470 275 423 332 310 332 c 2
 244 332 l 1
20 19 m 2
 21 24 23 27 28 27 c 2
 57 29 l 2
 98 32 108 36 115 71 c 2
 213 574 l 2
 214 581 215 587 215 592 c 0
 215 610 203 614 171 616 c 2
 143 618 l 2
 138 618 137 621 137 625 c 2
 141 645 l 1
 144 647 l 1
 189 646 228 645 265 645 c 0
 304 645 348 647 382 647 c 0
 528 647 562 588 562 530 c 0
 562 517 560 505 558 493 c 0
 548 439 496 387 443 362 c 1
 443 360 l 1
 511 338 559 294 559 221 c 0
 559 209 557 197 555 184 c 0
 538 98 468 -2 277 -2 c 0
 191 -2 178 0 140 0 c 0
 102 0 63 -1 18 -2 c 1
 16 0 l 1
 20 19 l 2
409 789 m 0
 431 789 450 773 450 748 c 0
 450 718 423 693 395 693 c 0
 370 693 353 711 353 733 c 0
 353 761 377 789 409 789 c 0
EndSplineSet
LCarets2: 1 0 
EndChar

StartChar: uni1E03
Encoding: 7683 7683 133
Width: 478
VWidth: 999
Flags: HW
HStem: -12 21<89.25 98.75> -10 34<181.746 288.02> 395 44<193.784 307.52> 523 96<225.332 304.668> 678 20<130.465 147.5>
VStem: 78 75<47.054 370.44 384 639.899> 217 96<531.332 610.668> 365 85<133.468 325.831>
LayerCount: 2
Fore
SplineSet
285 583 m 2
 230 336 l 1
 232 335 l 1
 267 376 328 439 397 439 c 0
 478 439 500 378 500 310 c 0
 500 215 448 128 392 71 c 0
 342 21 281 -10 224 -10 c 0
 182 -10 158 3 134 28 c 1
 120 12 107 -3 94 -12 c 1
 76 0 l 1
 83 20 88 37 95 70 c 2
 205 563 l 2
 210 585 212 602 212 613 c 0
 212 635 204 641 191 641 c 2
 160 643 l 2
 156 643 155 645 155 648 c 2
 158 672 l 1
 199 675 271 688 298 698 c 1
 307 698 310 695 310 688 c 1
 310 688 299 648 285 583 c 2
420 301 m 0
 420 369 397 395 367 395 c 0
 319 395 265 337 218 282 c 1
 167 56 l 1
 171 37 190 18 219 18 c 0
 260 18 302 47 337 90 c 0
 371 132 420 217 420 301 c 0
421 619 m 0
 443 619 462 603 462 578 c 0
 462 548 435 523 407 523 c 0
 382 523 365 541 365 563 c 0
 365 591 389 619 421 619 c 0
EndSplineSet
LCarets2: 1 0 
EndChar

StartChar: uni1E04
Encoding: 7684 7684 134
Width: 557
VWidth: 999
Flags: HW
HStem: -163 96<230.332 309.668> -2 34<19 54 194.805 379.143> 332 34<187 348.649> 613 34<19 54 190.534 342.72>
VStem: 106 81<39.6512 332 366 608.096> 222 96<-154.668 -75.332> 405 77<424.289 559.02> 452 89<97.5427 249.544>
LayerCount: 2
Fore
SplineSet
290 570 m 2
 250 366 l 1
 321 366 l 2
 401 366 465 396 482 481 c 0
 485 494 486 505 486 516 c 0
 486 590 429 613 382 613 c 0
 298 613 296 603 290 570 c 2
244 332 m 1
 194 78 l 2
 193 73 193 68 193 64 c 0
 193 41 208 32 265 32 c 0
 411 32 451 92 466 165 c 0
 468 178 470 190 470 202 c 0
 470 275 423 332 310 332 c 2
 244 332 l 1
20 19 m 2
 21 24 23 27 28 27 c 2
 57 29 l 2
 98 32 108 36 115 71 c 2
 213 574 l 2
 214 581 215 587 215 592 c 0
 215 610 203 614 171 616 c 2
 143 618 l 2
 138 618 137 621 137 625 c 2
 141 645 l 1
 144 647 l 1
 189 646 228 645 265 645 c 0
 304 645 348 647 382 647 c 0
 528 647 562 588 562 530 c 0
 562 517 560 505 558 493 c 0
 548 439 496 387 443 362 c 1
 443 360 l 1
 511 338 559 294 559 221 c 0
 559 209 557 197 555 184 c 0
 538 98 468 -2 277 -2 c 0
 191 -2 178 0 140 0 c 0
 102 0 63 -1 18 -2 c 1
 16 0 l 1
 20 19 l 2
256 -67 m 0
 278 -67 297 -83 297 -108 c 0
 297 -138 270 -163 242 -163 c 0
 217 -163 200 -145 200 -123 c 0
 200 -95 224 -67 256 -67 c 0
EndSplineSet
LCarets2: 1 0 
EndChar

StartChar: uni1E05
Encoding: 7685 7685 135
Width: 478
VWidth: 999
Flags: HW
HStem: -163 96<185.332 264.668> -12 21<89.25 98.75> -10 34<181.746 288.02> 395 44<193.784 307.52> 678 20<130.465 147.5>
VStem: 78 75<47.054 370.44 384 639.899> 177 96<-154.668 -75.332> 365 85<133.468 325.831>
LayerCount: 2
Fore
SplineSet
285 583 m 2
 230 336 l 1
 232 335 l 1
 267 376 328 439 397 439 c 0
 478 439 500 378 500 310 c 0
 500 215 448 128 392 71 c 0
 342 21 281 -10 224 -10 c 0
 182 -10 158 3 134 28 c 1
 120 12 107 -3 94 -12 c 1
 76 0 l 1
 83 20 88 37 95 70 c 2
 205 563 l 2
 210 585 212 602 212 613 c 0
 212 635 204 641 191 641 c 2
 160 643 l 2
 156 643 155 645 155 648 c 2
 158 672 l 1
 199 675 271 688 298 698 c 1
 307 698 310 695 310 688 c 1
 310 688 299 648 285 583 c 2
420 301 m 0
 420 369 397 395 367 395 c 0
 319 395 265 337 218 282 c 1
 167 56 l 1
 171 37 190 18 219 18 c 0
 260 18 302 47 337 90 c 0
 371 132 420 217 420 301 c 0
221 -67 m 0
 243 -67 262 -83 262 -108 c 0
 262 -138 235 -163 207 -163 c 0
 182 -163 165 -145 165 -123 c 0
 165 -95 189 -67 221 -67 c 0
EndSplineSet
LCarets2: 1 0 
EndChar

StartChar: uni1E06
Encoding: 7686 7686 136
Width: 557
VWidth: 999
Flags: HW
HStem: -106 44<137 148 148 415> -2 34<19 54 194.805 379.143> 332 34<187 348.649> 613 34<19 54 190.534 342.72>
VStem: 106 81<39.6512 332 366 608.096> 405 77<424.289 559.02> 452 89<97.5427 249.544>
LayerCount: 2
Fore
SplineSet
290 570 m 2
 250 366 l 1
 321 366 l 2
 401 366 465 396 482 481 c 0
 485 494 486 505 486 516 c 0
 486 590 429 613 382 613 c 0
 298 613 296 603 290 570 c 2
244 332 m 1
 194 78 l 2
 193 73 193 68 193 64 c 0
 193 41 208 32 265 32 c 0
 411 32 451 92 466 165 c 0
 468 178 470 190 470 202 c 0
 470 275 423 332 310 332 c 2
 244 332 l 1
20 19 m 2
 21 24 23 27 28 27 c 2
 57 29 l 2
 98 32 108 36 115 71 c 2
 213 574 l 2
 214 581 215 587 215 592 c 0
 215 610 203 614 171 616 c 2
 143 618 l 2
 138 618 137 621 137 625 c 2
 141 645 l 1
 144 647 l 1
 189 646 228 645 265 645 c 0
 304 645 348 647 382 647 c 0
 528 647 562 588 562 530 c 0
 562 517 560 505 558 493 c 0
 548 439 496 387 443 362 c 1
 443 360 l 1
 511 338 559 294 559 221 c 0
 559 209 557 197 555 184 c 0
 538 98 468 -2 277 -2 c 0
 191 -2 178 0 140 0 c 0
 102 0 63 -1 18 -2 c 1
 16 0 l 1
 20 19 l 2
363 -131 m 2
 118 -131 l 2
 110 -131 106 -123 106 -116 c 0
 106 -104 116 -87 128 -87 c 2
 373 -87 l 2
 382 -87 386 -94 386 -101 c 0
 386 -113 376 -131 363 -131 c 2
EndSplineSet
LCarets2: 1 0 
EndChar

StartChar: uni1E07
Encoding: 7687 7687 137
Width: 478
VWidth: 999
Flags: HW
HStem: -110 44<107 118 118 385> -12 21<89.25 98.75> -10 34<181.746 288.02> 395 44<193.784 307.52> 678 20<130.465 147.5>
VStem: 78 75<47.054 370.44 384 639.899> 365 85<133.468 325.831>
LayerCount: 2
Fore
SplineSet
285 583 m 2
 230 336 l 1
 232 335 l 1
 267 376 328 439 397 439 c 0
 478 439 500 378 500 310 c 0
 500 215 448 128 392 71 c 0
 342 21 281 -10 224 -10 c 0
 182 -10 158 3 134 28 c 1
 120 12 107 -3 94 -12 c 1
 76 0 l 1
 83 20 88 37 95 70 c 2
 205 563 l 2
 210 585 212 602 212 613 c 0
 212 635 204 641 191 641 c 2
 160 643 l 2
 156 643 155 645 155 648 c 2
 158 672 l 1
 199 675 271 688 298 698 c 1
 307 698 310 695 310 688 c 1
 310 688 299 648 285 583 c 2
420 301 m 0
 420 369 397 395 367 395 c 0
 319 395 265 337 218 282 c 1
 167 56 l 1
 171 37 190 18 219 18 c 0
 260 18 302 47 337 90 c 0
 371 132 420 217 420 301 c 0
353 -131 m 2
 108 -131 l 2
 100 -131 96 -123 96 -116 c 0
 96 -104 106 -87 118 -87 c 2
 363 -87 l 2
 372 -87 376 -94 376 -101 c 0
 376 -113 366 -131 353 -131 c 2
EndSplineSet
LCarets2: 1 0 
EndChar

StartChar: uni1E08
Encoding: 7688 7688 138
Width: 616
VWidth: 999
Flags: HW
HStem: -200 29<290.047 390.231> -96 32<365.31 395.355> -12 42<270 460> 621 37<278 443> 697 122
VStem: 37 87<204 436> 269 201 400 62<-165.259 -97.4563>
DStem2: 316 -96 365 -67 0.384615 0.923077<45.6154 104>
LayerCount: 2
Fore
SplineSet
346 -93 m 0
 326 -93 317 -95 299 -99 c 1
 294 -93 l 1
 351 -10 l 1
 347 -10 342 -10 338 -10 c 0
 164 -10 89 108 89 241 c 0
 89 266 91 290 96 315 c 0
 134 512 310 658 469 658 c 0
 587 658 616 616 670 613 c 1
 664 559 662 510 661 458 c 1
 632 454 l 1
 624 540 584 621 451 621 c 0
 375 621 223 537 183 334 c 0
 178 306 175 277 175 250 c 0
 175 133 225 31 345 31 c 0
 434 31 506 62 589 140 c 1
 600 140 605 134 608 125 c 1
 540 51 463 7 386 -6 c 1
 388 -6 l 1
 351 -64 l 1
 359 -62 368 -61 377 -61 c 0
 409 -61 435 -76 435 -108 c 0
 435 -159 377 -194 310 -194 c 0
 280 -194 263 -188 240 -177 c 1
 253 -159 l 1
 280 -168 287 -169 309 -169 c 0
 344 -169 380 -151 380 -119 c 0
 380 -103 366 -93 346 -93 c 0
EndSplineSet
LCarets2: 1 0 
EndChar

StartChar: uni1E09
Encoding: 7689 7689 139
Width: 389
VWidth: 999
Flags: HW
HStem: -200 29<151.047 251.231> -96 32<226.31 256.355> -10 44<191.859 321.109> 405 34<184.96 286.704>
VStem: 37 85<118.042 314.991> 261 62<-165.259 -97.4563> 310 83<300.625 386.29>
DStem2: 177 -96 226 -67 0.384615 0.923077<45.6154 104>
LayerCount: 2
Fore
SplineSet
218 -88 m 0
 198 -88 189 -90 171 -94 c 1
 166 -88 l 1
 220 -10 l 1
 216 -10 213 -10 209 -10 c 0
 122 -10 83 87 83 149 c 0
 83 315 194 439 309 439 c 0
 404 439 423 380 423 341 c 0
 423 307 391 296 380 296 c 0
 353 296 344 312 344 328 c 0
 344 334 346 345 349 349 c 0
 352 353 354 362 354 368 c 0
 354 401 326 408 312 408 c 0
 235 408 165 320 165 171 c 0
 165 52 206 34 240 34 c 0
 269 34 313 44 357 97 c 1
 366 97 372 92 375 82 c 1
 359 59 327 11 258 -5 c 1
 223 -59 l 1
 231 -57 240 -56 249 -56 c 0
 281 -56 307 -71 307 -103 c 0
 307 -154 249 -189 182 -189 c 0
 152 -189 135 -183 112 -172 c 1
 125 -154 l 1
 152 -163 159 -164 181 -164 c 0
 216 -164 252 -146 252 -114 c 0
 252 -98 238 -88 218 -88 c 0
376 663 m 1
 378 663 381 664 384 664 c 0
 421 664 438 635 442 632 c 1
 443 621 l 1
 314 530 l 2
 297 519 290 515 284 515 c 0
 274 515 269 523 269 527 c 0
 269 532 271 542 279 550 c 2
 376 663 l 1
EndSplineSet
LCarets2: 1 0 
EndChar

StartChar: uni1E0A
Encoding: 7690 7690 140
Width: 667
VWidth: 999
Flags: HW
HStem: -2 34<19 54 193.238 414.496> 613 34<19 54 194.838 370.214> 697 96<256.332 335.668>
VStem: 106 81<39.3746 605.565> 248 96<705.332 784.668> 562 92<179.249 418.917>
LayerCount: 2
Fore
SplineSet
19 18 m 2
 20 23 24 27 28 27 c 2
 57 29 l 2
 91 31 110 42 116 74 c 2
 213 572 l 2
 214 579 215 585 215 590 c 0
 215 610 202 614 171 616 c 2
 145 618 l 2
 140 618 137 621 138 626 c 2
 141 645 l 1
 144 647 l 1
 189 646 228 645 265 645 c 0
 304 645 361 647 422 647 c 0
 583 647 694 530 694 375 c 0
 694 354 691 331 687 308 c 0
 639 62 449 -2 313 -2 c 0
 214 -2 177 0 140 0 c 0
 101 0 63 -1 18 -2 c 1
 16 0 l 1
 19 18 l 2
193 73 m 2
 192 68 192 64 192 60 c 0
 192 39 210 32 290 32 c 0
 425 32 555 82 594 284 c 0
 600 314 603 344 603 374 c 0
 603 499 546 613 379 613 c 0
 332 613 298 609 291 574 c 2
 193 73 l 2
482 793 m 0
 504 793 523 777 523 752 c 0
 523 722 496 697 468 697 c 0
 443 697 426 715 426 737 c 0
 426 765 450 793 482 793 c 0
EndSplineSet
LCarets2: 1 0 
EndChar

StartChar: uni1E0B
Encoding: 7691 7691 141
Width: 489
VWidth: 999
Flags: HW
HStem: -10 47<180.902 274.468> 404 35<185.076 305.022> 523 96<141.332 220.668> 678 20<395.466 412.5>
VStem: 39 85<106.314 313> 133 96<531.332 610.668> 343 75<78.2465 372.939 417 639.899>
LayerCount: 2
Fore
SplineSet
355 194 m 0
 384 247 391 298 391 321 c 0
 391 356 366 408 328 408 c 0
 236 408 161 256 161 150 c 0
 161 94 164 36 211 36 c 0
 250 36 306 104 355 194 c 0
522 583 m 2
 416 120 l 2
 412 101 406 68 406 59 c 0
 406 47 415 45 417 45 c 0
 430 45 448 66 477 101 c 1
 497 87 l 1
 474 55 423 -10 369 -10 c 0
 334 -10 327 16 327 35 c 0
 327 49 332 71 341 99 c 1
 345 116 l 1
 342 118 l 1
 282 30 235 -10 183 -10 c 0
 95 -10 81 79 81 134 c 0
 81 291 218 439 325 439 c 0
 363 439 392 414 404 384 c 1
 405 384 l 1
 442 563 l 2
 447 585 449 602 449 613 c 0
 449 635 441 641 428 641 c 2
 397 643 l 2
 393 643 392 645 392 648 c 2
 395 672 l 1
 436 675 508 688 535 698 c 1
 544 698 547 695 547 688 c 1
 547 688 537 648 522 583 c 2
307 619 m 0
 329 619 348 603 348 578 c 0
 348 548 321 523 293 523 c 0
 268 523 251 541 251 563 c 0
 251 591 275 619 307 619 c 0
EndSplineSet
LCarets2: 1 0 
EndChar

StartChar: uni1E0C
Encoding: 7692 7692 142
Width: 667
VWidth: 999
Flags: HW
HStem: -163 96<250.332 329.668> -2 34<19 54 193.238 414.496> 613 34<19 54 194.838 370.214>
VStem: 106 81<39.3746 605.565> 242 96<-154.668 -75.332> 562 92<179.249 418.917>
LayerCount: 2
Fore
SplineSet
19 18 m 2
 20 23 24 27 28 27 c 2
 57 29 l 2
 91 31 110 42 116 74 c 2
 213 572 l 2
 214 579 215 585 215 590 c 0
 215 610 202 614 171 616 c 2
 145 618 l 2
 140 618 137 621 138 626 c 2
 141 645 l 1
 144 647 l 1
 189 646 228 645 265 645 c 0
 304 645 361 647 422 647 c 0
 583 647 694 530 694 375 c 0
 694 354 691 331 687 308 c 0
 639 62 449 -2 313 -2 c 0
 214 -2 177 0 140 0 c 0
 101 0 63 -1 18 -2 c 1
 16 0 l 1
 19 18 l 2
193 73 m 2
 192 68 192 64 192 60 c 0
 192 39 210 32 290 32 c 0
 425 32 555 82 594 284 c 0
 600 314 603 344 603 374 c 0
 603 499 546 613 379 613 c 0
 332 613 298 609 291 574 c 2
 193 73 l 2
286 -67 m 0
 308 -67 327 -83 327 -108 c 0
 327 -138 300 -163 272 -163 c 0
 247 -163 230 -145 230 -123 c 0
 230 -95 254 -67 286 -67 c 0
EndSplineSet
LCarets2: 1 0 
EndChar

StartChar: uni1E0D
Encoding: 7693 7693 143
Width: 489
VWidth: 999
Flags: HW
HStem: -163 96<195.332 274.668> -10 47<180.902 274.468> 404 35<185.076 305.022> 678 20<395.466 412.5>
VStem: 39 85<106.314 313> 187 96<-154.668 -75.332> 343 75<78.2465 372.939 417 639.899>
LayerCount: 2
Fore
SplineSet
355 194 m 0
 384 247 391 298 391 321 c 0
 391 356 366 408 328 408 c 0
 236 408 161 256 161 150 c 0
 161 94 164 36 211 36 c 0
 250 36 306 104 355 194 c 0
522 583 m 2
 416 120 l 2
 412 101 406 68 406 59 c 0
 406 47 415 45 417 45 c 0
 430 45 448 66 477 101 c 1
 497 87 l 1
 474 55 423 -10 369 -10 c 0
 334 -10 327 16 327 35 c 0
 327 49 332 71 341 99 c 1
 345 116 l 1
 342 118 l 1
 282 30 235 -10 183 -10 c 0
 95 -10 81 79 81 134 c 0
 81 291 218 439 325 439 c 0
 363 439 392 414 404 384 c 1
 405 384 l 1
 442 563 l 2
 447 585 449 602 449 613 c 0
 449 635 441 641 428 641 c 2
 397 643 l 2
 393 643 392 645 392 648 c 2
 395 672 l 1
 436 675 508 688 535 698 c 1
 544 698 547 695 547 688 c 1
 547 688 537 648 522 583 c 2
211 -67 m 0
 233 -67 252 -83 252 -108 c 0
 252 -138 225 -163 197 -163 c 0
 172 -163 155 -145 155 -123 c 0
 155 -95 179 -67 211 -67 c 0
EndSplineSet
LCarets2: 1 0 
EndChar

StartChar: uni1E0E
Encoding: 7694 7694 144
Width: 667
VWidth: 999
Flags: HW
HStem: -105 44<144 155 155 422> -2 34<19 54 193.238 414.496> 613 34<19 54 194.838 370.214>
VStem: 106 81<39.3746 605.565> 562 92<179.249 418.917>
LayerCount: 2
Fore
SplineSet
19 18 m 2
 20 23 24 27 28 27 c 2
 57 29 l 2
 91 31 110 42 116 74 c 2
 213 572 l 2
 214 579 215 585 215 590 c 0
 215 610 202 614 171 616 c 2
 145 618 l 2
 140 618 137 621 138 626 c 2
 141 645 l 1
 144 647 l 1
 189 646 228 645 265 645 c 0
 304 645 361 647 422 647 c 0
 583 647 694 530 694 375 c 0
 694 354 691 331 687 308 c 0
 639 62 449 -2 313 -2 c 0
 214 -2 177 0 140 0 c 0
 101 0 63 -1 18 -2 c 1
 16 0 l 1
 19 18 l 2
193 73 m 2
 192 68 192 64 192 60 c 0
 192 39 210 32 290 32 c 0
 425 32 555 82 594 284 c 0
 600 314 603 344 603 374 c 0
 603 499 546 613 379 613 c 0
 332 613 298 609 291 574 c 2
 193 73 l 2
390 -131 m 2
 145 -131 l 2
 137 -131 133 -123 133 -116 c 0
 133 -104 143 -87 155 -87 c 2
 400 -87 l 2
 409 -87 413 -94 413 -101 c 0
 413 -113 403 -131 390 -131 c 2
EndSplineSet
LCarets2: 1 0 
EndChar

StartChar: uni1E0F
Encoding: 7695 7695 145
Width: 489
VWidth: 999
Flags: HW
HStem: -109 44<95 106 106 373> -10 47<180.902 274.468> 404 35<185.076 305.022> 678 20<395.466 412.5>
VStem: 39 85<106.314 313> 343 75<78.2465 372.939 417 639.899>
LayerCount: 2
Fore
SplineSet
355 194 m 0
 384 247 391 298 391 321 c 0
 391 356 366 408 328 408 c 0
 236 408 161 256 161 150 c 0
 161 94 164 36 211 36 c 0
 250 36 306 104 355 194 c 0
522 583 m 2
 416 120 l 2
 412 101 406 68 406 59 c 0
 406 47 415 45 417 45 c 0
 430 45 448 66 477 101 c 1
 497 87 l 1
 474 55 423 -10 369 -10 c 0
 334 -10 327 16 327 35 c 0
 327 49 332 71 341 99 c 1
 345 116 l 1
 342 118 l 1
 282 30 235 -10 183 -10 c 0
 95 -10 81 79 81 134 c 0
 81 291 218 439 325 439 c 0
 363 439 392 414 404 384 c 1
 405 384 l 1
 442 563 l 2
 447 585 449 602 449 613 c 0
 449 635 441 641 428 641 c 2
 397 643 l 2
 393 643 392 645 392 648 c 2
 395 672 l 1
 436 675 508 688 535 698 c 1
 544 698 547 695 547 688 c 1
 547 688 537 648 522 583 c 2
341 -131 m 2
 96 -131 l 2
 88 -131 84 -123 84 -116 c 0
 84 -104 94 -87 106 -87 c 2
 351 -87 l 2
 360 -87 364 -94 364 -101 c 0
 364 -113 354 -131 341 -131 c 2
EndSplineSet
LCarets2: 1 0 
EndChar

StartChar: uni1E10
Encoding: 7696 7696 146
Width: 667
VWidth: 999
Flags: HW
HStem: -200 29<107.047 207.231> -96 32<182.31 212.355> -2 34<19 54 193.238 414.496> 613 34<19 54 194.838 370.214>
VStem: 106 81<39.3746 605.565> 217 62<-165.259 -97.4563> 562 92<179.249 418.917>
DStem2: 133 -96 182 -67 0.384615 0.923077<45.6154 104>
LayerCount: 2
Fore
SplineSet
19 18 m 2
 20 23 24 27 28 27 c 2
 57 29 l 2
 91 31 110 42 116 74 c 2
 213 572 l 2
 214 579 215 585 215 590 c 0
 215 610 202 614 171 616 c 2
 145 618 l 2
 140 618 137 621 138 626 c 2
 141 645 l 1
 144 647 l 1
 189 646 228 645 265 645 c 0
 304 645 361 647 422 647 c 0
 583 647 694 530 694 375 c 0
 694 354 691 331 687 308 c 0
 639 62 449 -2 313 -2 c 0
 257 -2 221 -1 194 -1 c 1
 162 -51 l 1
 170 -49 179 -48 188 -48 c 0
 220 -48 247 -63 247 -95 c 0
 247 -146 189 -181 122 -181 c 0
 91 -181 74 -175 51 -164 c 1
 65 -146 l 1
 91 -155 98 -156 121 -156 c 0
 155 -156 192 -138 192 -106 c 0
 192 -90 177 -80 157 -80 c 0
 137 -80 128 -82 111 -86 c 1
 106 -80 l 1
 160 -0 l 1
 153 -0 147 0 140 0 c 0
 101 0 63 -1 18 -2 c 1
 16 0 l 1
 19 18 l 2
193 73 m 2
 192 68 192 64 192 60 c 0
 192 39 210 32 290 32 c 0
 425 32 555 82 594 284 c 0
 600 314 603 344 603 374 c 0
 603 499 546 613 379 613 c 0
 332 613 298 609 291 574 c 2
 193 73 l 2
EndSplineSet
LCarets2: 1 0 
EndChar

StartChar: uni1E11
Encoding: 7697 7697 147
Width: 489
VWidth: 999
Flags: HW
HStem: -200 29<135.047 235.231> -96 32<210.31 240.355> -10 47<180.902 274.468> 404 35<185.076 305.022> 678 20<395.466 412.5>
VStem: 39 85<106.314 313> 245 62<-165.259 -97.4563> 343 75<78.2465 372.939 417 639.899>
DStem2: 161 -96 210 -67 0.384615 0.923077<45.6154 104>
LayerCount: 2
Fore
SplineSet
355 194 m 0
 384 247 391 298 391 321 c 0
 391 356 366 408 328 408 c 0
 236 408 161 256 161 150 c 0
 161 94 164 36 211 36 c 0
 250 36 306 104 355 194 c 0
522 583 m 2
 416 120 l 2
 412 101 406 68 406 59 c 0
 406 47 415 45 417 45 c 0
 430 45 448 66 477 101 c 1
 497 87 l 1
 474 55 423 -10 369 -10 c 0
 334 -10 327 16 327 35 c 0
 327 49 332 71 341 99 c 1
 345 116 l 1
 342 118 l 1
 287 38 243 -3 197 -9 c 1
 170 -51 l 1
 178 -49 187 -48 196 -48 c 0
 228 -48 255 -63 255 -95 c 0
 255 -146 197 -181 130 -181 c 0
 99 -181 82 -175 59 -164 c 1
 73 -146 l 1
 99 -155 106 -156 129 -156 c 0
 163 -156 200 -138 200 -106 c 0
 200 -90 185 -80 165 -80 c 0
 145 -80 136 -82 119 -86 c 1
 114 -80 l 1
 163 -8 l 1
 93 4 81 84 81 134 c 0
 81 291 218 439 325 439 c 0
 363 439 392 414 404 384 c 1
 405 384 l 1
 442 563 l 2
 447 585 449 602 449 613 c 0
 449 635 441 641 428 641 c 2
 397 643 l 2
 393 643 392 645 392 648 c 2
 395 672 l 1
 436 675 508 688 535 698 c 1
 544 698 547 695 547 688 c 1
 547 688 537 648 522 583 c 2
EndSplineSet
LCarets2: 1 0 
EndChar

StartChar: uni1E12
Encoding: 7698 7698 148
Width: 667
VWidth: 999
Flags: HW
HStem: -2 34<19 54 193.238 414.496> 613 34<19 54 194.838 370.214>
VStem: 106 81<39.3746 605.565> 140 253<-186 -186> 562 92<179.249 418.917>
LayerCount: 2
Fore
SplineSet
19 18 m 2
 20 23 24 27 28 27 c 2
 57 29 l 2
 91 31 110 42 116 74 c 2
 213 572 l 2
 214 579 215 585 215 590 c 0
 215 610 202 614 171 616 c 2
 145 618 l 2
 140 618 137 621 138 626 c 2
 141 645 l 1
 144 647 l 1
 189 646 228 645 265 645 c 0
 304 645 361 647 422 647 c 0
 583 647 694 530 694 375 c 0
 694 354 691 331 687 308 c 0
 639 62 449 -2 313 -2 c 0
 214 -2 177 0 140 0 c 0
 101 0 63 -1 18 -2 c 1
 16 0 l 1
 19 18 l 2
193 73 m 2
 192 68 192 64 192 60 c 0
 192 39 210 32 290 32 c 0
 425 32 555 82 594 284 c 0
 600 314 603 344 603 374 c 0
 603 499 546 613 379 613 c 0
 332 613 298 609 291 574 c 2
 193 73 l 2
306 -57 m 1
 324 -104 351 -147 377 -187 c 1
 354 -200 l 1
 322 -171 294 -146 268 -110 c 1
 222 -148 184 -173 140 -200 c 1
 124 -187 l 1
 168 -147 217 -103 257 -57 c 1
 306 -57 l 1
EndSplineSet
LCarets2: 1 0 
EndChar

StartChar: uni1E13
Encoding: 7699 7699 149
Width: 489
VWidth: 999
Flags: HW
HStem: -10 47<180.902 274.468> 404 35<185.076 305.022> 678 20<395.466 412.5>
VStem: 39 85<106.314 313> 89 253<-186 -186> 343 75<78.2465 372.939 417 639.899>
LayerCount: 2
Fore
SplineSet
355 194 m 0
 384 247 391 298 391 321 c 0
 391 356 366 408 328 408 c 0
 236 408 161 256 161 150 c 0
 161 94 164 36 211 36 c 0
 250 36 306 104 355 194 c 0
522 583 m 2
 416 120 l 2
 412 101 406 68 406 59 c 0
 406 47 415 45 417 45 c 0
 430 45 448 66 477 101 c 1
 497 87 l 1
 474 55 423 -10 369 -10 c 0
 334 -10 327 16 327 35 c 0
 327 49 332 71 341 99 c 1
 345 116 l 1
 342 118 l 1
 282 30 235 -10 183 -10 c 0
 95 -10 81 79 81 134 c 0
 81 291 218 439 325 439 c 0
 363 439 392 414 404 384 c 1
 405 384 l 1
 442 563 l 2
 447 585 449 602 449 613 c 0
 449 635 441 641 428 641 c 2
 397 643 l 2
 393 643 392 645 392 648 c 2
 395 672 l 1
 436 675 508 688 535 698 c 1
 544 698 547 695 547 688 c 1
 547 688 537 648 522 583 c 2
235 -57 m 1
 253 -104 280 -147 306 -187 c 1
 283 -200 l 1
 251 -171 223 -146 197 -110 c 1
 151 -148 113 -173 69 -200 c 1
 53 -187 l 1
 97 -147 146 -103 186 -57 c 1
 235 -57 l 1
EndSplineSet
LCarets2: 1 0 
EndChar

StartChar: uni1E14
Encoding: 7700 7700 150
Width: 526
VWidth: 999
Flags: HW
HStem: -2 29<14 50> 0 39<183.683 419.99> 323 38<182 352.245> 416 20<367 392.5> 605 40<183.485 390.274> 618 28<14 50> 733 44<164.088 442.515>
VStem: 101 81<40.3443 323 361 603.225> 163 281<733.205 777> 361 34<252 316.054 403 436> 438 29<499.793 534.346> 489 31<128.12 166.129>
LayerCount: 2
Fore
SplineSet
230 742 m 0
 230 737 227 725 216 725 c 0
 208 725 197 730 185 736 c 2
 76 791 l 1
 143 831 l 1
 222 757 l 2
 227 752 230 747 230 742 c 0
553 646 m 0
 553 638 549 542 545 501 c 1
 517 496 l 1
 509 565 499 605 427 605 c 2
 327 605 l 2
 304 605 290 595 285 571 c 2
 245 361 l 1
 367 361 l 2
 400 361 414 375 423 403 c 1
 430 428 l 2
 431 432 435 436 439 436 c 2
 460 436 l 1
 463 432 l 1
 452 392 445 362 442 342 c 0
 438 322 433 295 429 255 c 1
 424 252 l 1
 403 252 l 2
 398 252 397 257 398 260 c 2
 400 285 l 2
 400 288 400 291 400 293 c 0
 400 316 389 323 359 323 c 2
 237 323 l 1
 188 72 l 2
 187 68 187 65 187 62 c 0
 187 43 199 39 217 39 c 2
 347 39 l 2
 420 39 469 98 502 170 c 1
 531 165 l 1
 509 113 484 50 463 -2 c 1
 463 -2 387 0 341 0 c 2
 135 0 l 2
 98 0 58 -1 13 -2 c 1
 11 0 l 1
 15 20 l 2
 16 23 18 27 24 27 c 2
 53 29 l 2
 91 32 105 44 111 72 c 2
 208 571 l 2
 209 576 210 581 210 585 c 0
 210 606 197 614 167 616 c 2
 139 618 l 2
 132 618 132 622 133 625 c 2
 137 645 l 1
 139 647 l 1
 184 646 223 645 260 645 c 2
 503 645 l 2
 526 645 532 646 549 649 c 0
 552 649 553 648 553 646 c 0
537 733 m 2
 292 733 l 2
 286 733 283 738 283 744 c 0
 283 745 283 747 284 748 c 0
 287 760 301 777 312 777 c 2
 557 777 l 2
 565 777 568 772 568 767 c 0
 568 765 568 764 567 763 c 0
 565 751 550 733 537 733 c 2
EndSplineSet
LCarets2: 1 0 
EndChar

StartChar: uni1E15
Encoding: 7701 7701 151
Width: 411
VWidth: 999
Flags: HW
HStem: -10 49<195.372 321.672> 248 39<117 314.997> 405 34<173.337 282.104> 538 44<91.0876 369.515>
VStem: 34 80<137.009 248> 90 281<538.205 582> 315 80<259.5 367.016>
LayerCount: 2
Fore
SplineSet
365 370 m 0
 365 399 349 408 313 408 c 0
 265 408 206 377 171 226 c 1
 248 232 365 275 365 370 c 0
167 199 m 1
 166 191 166 170 166 165 c 0
 166 74 204 38 249 38 c 0
 297 38 330 66 384 124 c 1
 396 124 401 119 406 108 c 1
 350 31 294 -10 213 -10 c 0
 111 -10 83 57 83 142 c 0
 83 269 165 439 336 439 c 0
 417 439 435 404 435 369 c 0
 435 331 428 250 167 199 c 1
453 538 m 2
 208 538 l 2
 202 538 199 543 199 549 c 0
 199 550 199 552 200 553 c 0
 203 565 217 582 228 582 c 2
 473 582 l 2
 481 582 484 577 484 572 c 0
 484 570 484 569 483 568 c 0
 481 556 466 538 453 538 c 2
317 765 m 1
 372 652 l 2
 377 643 378 636 378 630 c 0
 378 626 372 620 366 620 c 0
 361 620 355 625 343 638 c 2
 251 736 l 1
 253 746 l 1
 259 752 278 767 305 767 c 0
 309 767 314 766 317 765 c 1
EndSplineSet
EndChar

StartChar: uni1E16
Encoding: 7702 7702 152
Width: 526
VWidth: 999
Flags: HW
HStem: -2 29<14 50> 0 39<183.683 419.99> 323 38<182 352.245> 416 20<367 392.5> 605 40<183.485 390.274> 618 28<14 50> 724 107 733 44<107.088 385.515>
VStem: 101 81<40.3443 323 361 603.225> 106 281<733.205 777> 361 34<252 316.054 403 436> 428 155 438 29<499.793 534.346> 489 31<128.12 166.129>
LayerCount: 2
Fore
SplineSet
540 724 m 0
 534 724 531 727 531 734 c 0
 531 742 537 748 547 756 c 2
 656 830 l 1
 706 790 l 1
 576 735 l 2
 560 729 547 724 540 724 c 0
553 646 m 0
 553 638 549 542 545 501 c 1
 517 496 l 1
 509 565 499 605 427 605 c 2
 327 605 l 2
 304 605 290 595 285 571 c 2
 245 361 l 1
 367 361 l 2
 400 361 414 375 423 403 c 1
 430 428 l 2
 431 432 435 436 439 436 c 2
 460 436 l 1
 463 432 l 1
 452 392 445 362 442 342 c 0
 438 322 433 295 429 255 c 1
 424 252 l 1
 403 252 l 2
 398 252 397 257 398 260 c 2
 400 285 l 2
 400 288 400 291 400 293 c 0
 400 316 389 323 359 323 c 2
 237 323 l 1
 188 72 l 2
 187 68 187 65 187 62 c 0
 187 43 199 39 217 39 c 2
 347 39 l 2
 420 39 469 98 502 170 c 1
 531 165 l 1
 509 113 484 50 463 -2 c 1
 463 -2 387 0 341 0 c 2
 135 0 l 2
 98 0 58 -1 13 -2 c 1
 11 0 l 1
 15 20 l 2
 16 23 18 27 24 27 c 2
 53 29 l 2
 91 32 105 44 111 72 c 2
 208 571 l 2
 209 576 210 581 210 585 c 0
 210 606 197 614 167 616 c 2
 139 618 l 2
 132 618 132 622 133 625 c 2
 137 645 l 1
 139 647 l 1
 184 646 223 645 260 645 c 2
 503 645 l 2
 526 645 532 646 549 649 c 0
 552 649 553 648 553 646 c 0
480 733 m 2
 235 733 l 2
 229 733 226 738 226 744 c 0
 226 745 226 747 227 748 c 0
 230 760 244 777 255 777 c 2
 500 777 l 2
 508 777 511 772 511 767 c 0
 511 765 511 764 510 763 c 0
 508 751 493 733 480 733 c 2
EndSplineSet
LCarets2: 1 0 
EndChar

StartChar: uni1E17
Encoding: 7703 7703 153
Width: 411
VWidth: 999
Flags: HW
HStem: -10 49<195.372 321.672> 248 39<117 314.997> 405 34<173.337 282.104> 538 44<91.0876 369.515>
VStem: 34 80<137.009 248> 90 281<538.205 582> 315 80<259.5 367.016>
LayerCount: 2
Fore
SplineSet
365 370 m 0
 365 399 349 408 313 408 c 0
 265 408 206 377 171 226 c 1
 248 232 365 275 365 370 c 0
167 199 m 1
 166 191 166 170 166 165 c 0
 166 74 204 38 249 38 c 0
 297 38 330 66 384 124 c 1
 396 124 401 119 406 108 c 1
 350 31 294 -10 213 -10 c 0
 111 -10 83 57 83 142 c 0
 83 269 165 439 336 439 c 0
 417 439 435 404 435 369 c 0
 435 331 428 250 167 199 c 1
453 538 m 2
 208 538 l 2
 202 538 199 543 199 549 c 0
 199 550 199 552 200 553 c 0
 203 565 217 582 228 582 c 2
 473 582 l 2
 481 582 484 577 484 572 c 0
 484 570 484 569 483 568 c 0
 481 556 466 538 453 538 c 2
384 752 m 1
 386 752 388 753 391 753 c 0
 420 753 434 727 437 724 c 1
 438 714 l 1
 335 632 l 2
 321 622 316 619 311 619 c 0
 303 619 299 626 299 630 c 0
 299 634 300 643 307 650 c 2
 384 752 l 1
EndSplineSet
EndChar

StartChar: uni1E18
Encoding: 7704 7704 154
Width: 526
VWidth: 999
Flags: HW
HStem: -2 29<14 50> 0 39<183.683 419.99> 323 38<182 352.245> 416 20<367 392.5> 605 40<183.485 390.274> 618 28<14 50>
VStem: 101 81<40.3443 323 361 603.225> 148 253<-186 -186> 361 34<252 316.054 403 436> 438 29<499.793 534.346> 489 31<128.12 166.129>
LayerCount: 2
Fore
SplineSet
553 646 m 0
 553 638 549 542 545 501 c 1
 517 496 l 1
 509 565 499 605 427 605 c 2
 327 605 l 2
 304 605 290 595 285 571 c 2
 245 361 l 1
 367 361 l 2
 400 361 414 375 423 403 c 1
 430 428 l 2
 431 432 435 436 439 436 c 2
 460 436 l 1
 463 432 l 1
 452 392 445 362 442 342 c 0
 438 322 433 295 429 255 c 1
 424 252 l 1
 403 252 l 2
 398 252 397 257 398 260 c 2
 400 285 l 2
 400 288 400 291 400 293 c 0
 400 316 389 323 359 323 c 2
 237 323 l 1
 188 72 l 2
 187 68 187 65 187 62 c 0
 187 43 199 39 217 39 c 2
 347 39 l 2
 420 39 469 98 502 170 c 1
 531 165 l 1
 509 113 484 50 463 -2 c 1
 463 -2 387 0 341 0 c 2
 135 0 l 2
 98 0 58 -1 13 -2 c 1
 11 0 l 1
 15 20 l 2
 16 23 18 27 24 27 c 2
 53 29 l 2
 91 32 105 44 111 72 c 2
 208 571 l 2
 209 576 210 581 210 585 c 0
 210 606 197 614 167 616 c 2
 139 618 l 2
 132 618 132 622 133 625 c 2
 137 645 l 1
 139 647 l 1
 184 646 223 645 260 645 c 2
 503 645 l 2
 526 645 532 646 549 649 c 0
 552 649 553 648 553 646 c 0
284 -57 m 1
 302 -104 329 -147 355 -187 c 1
 332 -200 l 1
 300 -171 272 -146 246 -110 c 1
 200 -148 162 -173 118 -200 c 1
 102 -187 l 1
 146 -147 195 -103 235 -57 c 1
 284 -57 l 1
EndSplineSet
LCarets2: 1 0 
EndChar

StartChar: uni1E19
Encoding: 7705 7705 155
Width: 411
VWidth: 999
Flags: HW
HStem: -10 49<195.372 321.672> 248 39<117 314.997> 405 34<173.337 282.104>
VStem: 34 80<137.009 248> 95 253<-186 -186> 315 80<259.5 367.016>
LayerCount: 2
Fore
SplineSet
365 370 m 0
 365 399 349 408 313 408 c 0
 265 408 206 377 171 226 c 1
 248 232 365 275 365 370 c 0
167 199 m 1
 166 191 166 170 166 165 c 0
 166 74 204 38 249 38 c 0
 297 38 330 66 384 124 c 1
 396 124 401 119 406 108 c 1
 350 31 294 -10 213 -10 c 0
 111 -10 83 57 83 142 c 0
 83 269 165 439 336 439 c 0
 417 439 435 404 435 369 c 0
 435 331 428 250 167 199 c 1
241 -57 m 1
 259 -104 286 -147 312 -187 c 1
 289 -200 l 1
 257 -171 229 -146 203 -110 c 1
 157 -148 119 -173 75 -200 c 1
 59 -187 l 1
 103 -147 152 -103 192 -57 c 1
 241 -57 l 1
EndSplineSet
LCarets2: 1 0 
EndChar

StartChar: uni1E1A
Encoding: 7706 7706 156
Width: 526
VWidth: 999
Flags: HW
HStem: -164 44<285 372> -116 46<167 258> -77 10 -2 29<14 50> 0 39<183.683 419.99> 323 38<182 352.245> 416 20<367 392.5> 605 40<183.485 390.274> 618 28<14 50>
VStem: 101 81<40.3443 323 361 603.225> 361 34<252 316.054 403 436> 438 29<499.793 534.346> 489 31<128.12 166.129>
LayerCount: 2
Fore
SplineSet
553 646 m 0
 553 638 549 542 545 501 c 1
 517 496 l 1
 509 565 499 605 427 605 c 2
 327 605 l 2
 304 605 290 595 285 571 c 2
 245 361 l 1
 367 361 l 2
 400 361 414 375 423 403 c 1
 430 428 l 2
 431 432 435 436 439 436 c 2
 460 436 l 1
 463 432 l 1
 452 392 445 362 442 342 c 0
 438 322 433 295 429 255 c 1
 424 252 l 1
 403 252 l 2
 398 252 397 257 398 260 c 2
 400 285 l 2
 400 288 400 291 400 293 c 0
 400 316 389 323 359 323 c 2
 237 323 l 1
 188 72 l 2
 187 68 187 65 187 62 c 0
 187 43 199 39 217 39 c 2
 347 39 l 2
 420 39 469 98 502 170 c 1
 531 165 l 1
 509 113 484 50 463 -2 c 1
 463 -2 387 0 341 0 c 2
 135 0 l 2
 98 0 58 -1 13 -2 c 1
 11 0 l 1
 15 20 l 2
 16 23 18 27 24 27 c 2
 53 29 l 2
 91 32 105 44 111 72 c 2
 208 571 l 2
 209 576 210 581 210 585 c 0
 210 606 197 614 167 616 c 2
 139 618 l 2
 132 618 132 622 133 625 c 2
 137 645 l 1
 139 647 l 1
 184 646 223 645 260 645 c 2
 503 645 l 2
 526 645 532 646 549 649 c 0
 552 649 553 648 553 646 c 0
279 -120 m 0
 300 -120 317 -110 341 -68 c 1
 363 -74 l 1
 337 -134 302 -164 255 -164 c 0
 233 -164 216 -152 198 -138 c 1
 182 -127 166 -116 148 -116 c 0
 122 -116 106 -131 89 -164 c 1
 66 -159 l 1
 94 -100 123 -70 166 -70 c 0
 197 -70 215 -84 232 -98 c 0
 245 -110 260 -120 279 -120 c 0
EndSplineSet
LCarets2: 1 0 
EndChar

StartChar: uni1E1B
Encoding: 7707 7707 157
Width: 411
VWidth: 999
Flags: HW
HStem: -162 44<237 324> -114 46<119 210> -75 10 -10 49<195.372 321.672> 248 39<117 314.997> 405 34<173.337 282.104>
VStem: 34 80<137.009 248> 315 80<259.5 367.016>
LayerCount: 2
Fore
SplineSet
365 370 m 0
 365 399 349 408 313 408 c 0
 265 408 206 377 171 226 c 1
 248 232 365 275 365 370 c 0
167 199 m 1
 166 191 166 170 166 165 c 0
 166 74 204 38 249 38 c 0
 297 38 330 66 384 124 c 1
 396 124 401 119 406 108 c 1
 350 31 294 -10 213 -10 c 0
 111 -10 83 57 83 142 c 0
 83 269 165 439 336 439 c 0
 417 439 435 404 435 369 c 0
 435 331 428 250 167 199 c 1
271 -118 m 0
 292 -118 309 -108 333 -66 c 1
 355 -72 l 1
 329 -132 294 -162 247 -162 c 0
 225 -162 208 -150 190 -136 c 1
 174 -125 158 -114 140 -114 c 0
 114 -114 98 -129 81 -162 c 1
 58 -157 l 1
 86 -98 115 -68 158 -68 c 0
 189 -68 207 -82 224 -96 c 0
 237 -108 252 -118 271 -118 c 0
EndSplineSet
LCarets2: 1 0 
EndChar

StartChar: uni1E1C
Encoding: 7708 7708 158
Width: 526
VWidth: 999
Flags: HW
HStem: -181 25<154.812 258.484> -80 32<228.019 280.577> -2 29<13.5 53> 0 39<187.07 414.098> 323 38<245 398.75> 416 20<437 463> 605 40<289.999 488.076> 618 29<139 167> 692 52<334 484> 795 10<285 313 522 556>
VStem: 283 55<-141.671 -82.0497> 285 28<791 805> 398 31<255 293.293> 517 28<501 562.787>
DStem2: 111 72 188 72 0.190817 0.981626<4.37501 270.431 309.259 522.297> 256 7 253 -51 0.561269 0.827634<-49.6866 0>
LayerCount: 2
Fore
SplineSet
553 646 m 0
 553 638 549 542 545 501 c 1
 517 496 l 1
 509 565 499 605 427 605 c 2
 327 605 l 2
 304 605 290 595 285 571 c 2
 245 361 l 1
 367 361 l 2
 400 361 414 375 423 403 c 1
 430 428 l 2
 431 432 435 436 439 436 c 2
 460 436 l 1
 463 432 l 1
 452 392 445 362 442 342 c 0
 438 322 433 295 429 255 c 1
 424 252 l 1
 403 252 l 2
 398 252 397 257 398 260 c 2
 400 285 l 2
 400 288 400 291 400 293 c 0
 400 316 389 323 359 323 c 2
 237 323 l 1
 188 72 l 2
 187 68 187 65 187 62 c 0
 187 43 199 39 217 39 c 2
 347 39 l 2
 420 39 469 98 502 170 c 1
 531 165 l 1
 509 113 484 50 463 -2 c 1
 463 -2 387 0 341 0 c 2
 286 -0 l 1
 253 -51 l 1
 261 -49 270 -48 279 -48 c 0
 311 -48 338 -63 338 -95 c 0
 338 -146 280 -181 213 -181 c 0
 182 -181 165 -175 142 -164 c 1
 156 -146 l 1
 182 -155 189 -156 212 -156 c 0
 246 -156 283 -138 283 -106 c 0
 283 -90 268 -80 248 -80 c 0
 228 -80 219 -82 202 -86 c 1
 197 -80 l 1
 251 -0 l 1
 135 0 l 2
 98 0 58 -1 13 -2 c 1
 11 0 l 1
 15 20 l 2
 16 23 18 27 24 27 c 2
 53 29 l 2
 91 32 105 44 111 72 c 2
 208 571 l 2
 209 576 210 581 210 585 c 0
 210 606 197 614 167 616 c 2
 139 618 l 2
 132 618 132 622 133 625 c 2
 137 645 l 1
 139 647 l 1
 184 646 223 645 260 645 c 2
 503 645 l 2
 526 645 532 646 549 649 c 0
 552 649 553 648 553 646 c 0
401 692 m 0
 321 692 285 737 285 794 c 0
 285 798 285 802 285 805 c 1
 313 805 l 1
 313 801 315 744 410 744 c 0
 461 744 515 768 529 805 c 1
 556 805 l 1
 539 730 462 692 401 692 c 0
EndSplineSet
EndChar

StartChar: uni1E1D
Encoding: 7709 7709 159
Width: 411
VWidth: 999
Flags: HW
HStem: -200 29<152.047 252.231> -96 32<227.31 257.355> -10 49<195.372 321.672> 248 39<117 314.997> 405 34<173.337 282.104> 501 57<150.968 287.898>
VStem: 34 80<137.009 248> 85 26<607.805 639.769> 262 62<-165.259 -97.4563> 315 80<259.5 367.016> 328 27<609.333 639.63>
DStem2: 178 -96 227 -67 0.384615 0.923077<45.6154 104>
LayerCount: 2
Fore
SplineSet
365 370 m 0
 365 399 349 408 313 408 c 0
 265 408 206 377 171 226 c 1
 248 232 365 275 365 370 c 0
167 199 m 1
 166 191 166 170 166 165 c 0
 166 74 204 38 249 38 c 0
 297 38 330 66 384 124 c 1
 396 124 401 119 406 108 c 1
 356 39 305 -1 237 -9 c 1
 207 -56 l 1
 215 -54 224 -53 233 -53 c 0
 265 -53 292 -68 292 -100 c 0
 292 -151 234 -186 167 -186 c 0
 136 -186 119 -180 96 -169 c 1
 110 -151 l 1
 136 -160 143 -161 166 -161 c 0
 200 -161 237 -143 237 -111 c 0
 237 -95 222 -85 202 -85 c 0
 182 -85 173 -87 156 -91 c 1
 151 -85 l 1
 202 -10 l 1
 109 -5 83 60 83 142 c 0
 83 269 165 439 336 439 c 0
 417 439 435 404 435 369 c 0
 435 331 428 250 167 199 c 1
278 650 m 1
 277 644 277 639 277 634 c 0
 277 590 312 558 366 558 c 0
 412 558 478 588 495 650 c 1
 518 636 l 1
 485 535 403 501 353 501 c 0
 284 501 246 546 246 611 c 0
 246 619 247 627 248 636 c 1
 278 650 l 1
EndSplineSet
EndChar

StartChar: uni1E1E
Encoding: 7710 7710 160
Width: 457
VWidth: 999
Flags: HW
HStem: -2 29<15 47 237 270> 323 38<182 352.245> 416 20<367 392.5> 605 40<183.485 390.274> 618 28<14 50> 704 96<245.332 324.668>
VStem: 101 81<35.9118 323 361 603.225> 237 96<712.332 791.668> 361 34<252 316.054 403 436> 438 29<499.793 534.346>
LayerCount: 2
Fore
SplineSet
359 323 m 2
 237 323 l 1
 189 74 l 2
 188 69 188 65 188 61 c 0
 188 40 201 32 233 29 c 2
 257 27 l 2
 262 27 265 24 264 19 c 2
 260 0 l 1
 258 -2 l 1
 213 -1 174 0 135 0 c 0
 98 0 59 -1 14 -2 c 1
 12 0 l 1
 16 19 l 2
 17 24 20 27 25 27 c 2
 51 29 l 2
 92 32 106 46 111 74 c 2
 208 571 l 2
 209 576 210 581 210 586 c 0
 210 606 197 614 167 616 c 2
 139 618 l 2
 132 618 132 622 133 625 c 2
 137 645 l 1
 139 647 l 1
 184 646 223 645 260 645 c 2
 504 645 l 2
 527 645 532 646 550 649 c 0
 552 649 553 648 553 646 c 0
 553 638 548 542 545 501 c 1
 517 496 l 1
 509 565 499 605 427 605 c 2
 327 605 l 2
 304 605 290 595 285 571 c 2
 245 361 l 1
 367 361 l 2
 400 361 414 375 423 403 c 1
 430 428 l 2
 431 432 435 436 439 436 c 2
 460 436 l 1
 463 432 l 1
 452 392 445 362 442 342 c 0
 438 322 433 295 429 255 c 1
 424 252 l 1
 403 252 l 2
 398 252 397 257 398 260 c 2
 400 285 l 2
 400 288 400 291 400 293 c 0
 400 316 389 323 359 323 c 2
411 800 m 0
 433 800 452 784 452 759 c 0
 452 729 425 704 397 704 c 0
 372 704 355 722 355 744 c 0
 355 772 379 800 411 800 c 0
EndSplineSet
LCarets2: 1 0 
EndChar

StartChar: uni1E1F
Encoding: 7711 7711 161
Width: 314
VWidth: 999
Flags: HW
HStem: -2 29<28 53 214 253> 390 39<22.0149 96 171 289> 664 34<211.957 296.231> 736 96<214.332 293.668>
VStem: 96 75<32.84 390 429 583.188> 206 96<744.332 823.668>
LayerCount: 2
Fore
SplineSet
196 390 m 1
 115 390 l 2
 112 390 110 390 110 392 c 0
 110 394 113 406 114 409 c 0
 116 417 124 429 142 429 c 2
 203 429 l 1
 258 680 366 698 408 698 c 0
 479 698 511 664 511 626 c 0
 511 617 504 594 475 594 c 0
 443 594 435 620 431 641 c 0
 427 660 423 669 400 669 c 0
 383 669 342 647 317 585 c 1
 305 558 296 523 287 486 c 1
 276 429 l 1
 386 429 l 2
 391 429 393 427 393 424 c 0
 393 423 388 402 388 402 c 2
 386 394 371 390 362 390 c 2
 269 390 l 1
 266 373 l 2
 251 289 232 208 216 130 c 0
 177 -60 153 -136 125 -175 c 0
 96 -216 65 -238 24 -238 c 0
 -44 -238 -72 -206 -72 -189 c 0
 -72 -173 -63 -155 -37 -155 c 0
 -19 -155 -5 -170 3 -181 c 0
 10 -192 17 -205 33 -205 c 0
 52 -205 68 -192 79 -175 c 0
 115 -118 132 46 148 141 c 0
 161 216 172 276 196 390 c 1
410 832 m 0
 432 832 451 816 451 791 c 0
 451 761 424 736 396 736 c 0
 371 736 354 754 354 776 c 0
 354 804 378 832 410 832 c 0
EndSplineSet
LCarets2: 1 0 
EndChar

StartChar: uni1E20
Encoding: 7712 7712 162
Width: 664
VWidth: 999
Flags: HW
HStem: -10 36<299.692 489.453> 271 36<453 485 626.062 672> 621 37<278.364 463.377> 733 44<227.088 505.515>
VStem: 32 87<215.673 431.42> 226 281<733.205 777> 540 81<83.4212 262.951> 585 30<457.6 492.683>
LayerCount: 2
Fore
SplineSet
487 658 m 0
 604 658 630 613 688 613 c 1
 681 541 679 501 679 459 c 1
 649 453 l 1
 641 539 606 621 467 621 c 0
 337 621 211 502 177 327 c 0
 173 308 172 288 172 268 c 0
 172 149 236 26 382 26 c 0
 434 26 493 42 532 74 c 1
 562 227 l 2
 563 232 563 236 563 240 c 0
 563 260 549 266 517 269 c 2
 493 271 l 2
 489 271 486 274 487 279 c 2
 492 305 l 1
 494 307 l 1
 539 306 578 305 615 305 c 0
 654 305 675 306 704 307 c 1
 706 305 l 1
 701 279 l 2
 700 274 696 272 691 271 c 0
 663 268 646 262 640 227 c 2
 617 111 l 2
 615 100 618 92 627 83 c 1
 550 25 466 -10 353 -10 c 0
 184 -10 84 100 84 243 c 0
 84 264 86 285 90 307 c 0
 133 527 322 658 487 658 c 0
600 733 m 2
 355 733 l 2
 349 733 346 738 346 744 c 0
 346 745 346 747 347 748 c 0
 350 760 364 777 375 777 c 2
 620 777 l 2
 628 777 631 772 631 767 c 0
 631 765 631 764 630 763 c 0
 628 751 613 733 600 733 c 2
EndSplineSet
LCarets2: 1 0 
EndChar

StartChar: uni1E21
Encoding: 7713 7713 163
Width: 477
VWidth: 999
Flags: HW
HStem: -238 37<152.298 302.696> -12 61<172.809 359.728> 136 31<175.133 272.366> 408 31<167.815 264.598> 538 44<102.088 380.515>
VStem: 32 66<-157.965 -57.3985> 59 78<210.052 363.612> 101 281<538.205 582> 308 76<209.75 368.749> 401 52<-133.448 -47.7496>
LayerCount: 2
Fore
SplineSet
131 -9 m 1
 106 -27 74 -65 74 -113 c 0
 74 -165 138 -199 250 -199 c 0
 338 -199 392 -125 392 -87 c 0
 392 -52 373 -10 225 -10 c 1
 167 -12 l 2
 153 -12 144 -12 131 -9 c 1
438 305 m 0
 438 183 344 124 253 124 c 0
 216 124 195 131 174 145 c 1
 156 124 142 105 142 82 c 0
 142 54 163 43 193 43 c 0
 202 43 219 44 238 47 c 1
 262 49 289 51 305 51 c 0
 426 51 447 -24 447 -50 c 0
 447 -149 336 -238 199 -238 c 0
 118 -238 7 -217 7 -136 c 0
 7 -76 61 -30 114 -1 c 1
 88 14 86 40 86 50 c 0
 86 90 118 136 153 163 c 1
 132 196 123 228 123 271 c 0
 123 361 206 439 309 439 c 0
 355 439 376 424 397 407 c 1
 435 450 484 455 494 455 c 0
 517 455 533 440 533 421 c 0
 533 401 520 388 502 388 c 0
 484 388 479 397 474 405 c 0
 471 410 468 415 459 415 c 0
 451 415 432 403 416 386 c 1
 433 362 438 328 438 305 c 0
366 305 m 0
 366 365 347 412 296 412 c 0
 227 412 196 344 196 269 c 0
 196 219 199 152 263 152 c 0
 336 152 366 224 366 305 c 0
465 538 m 2
 220 538 l 2
 214 538 211 543 211 549 c 0
 211 550 211 552 212 553 c 0
 215 565 229 582 240 582 c 2
 485 582 l 2
 493 582 496 577 496 572 c 0
 496 570 496 569 495 568 c 0
 493 556 478 538 465 538 c 2
EndSplineSet
LCarets2: 1 0 
EndChar

StartChar: uni1E22
Encoding: 7714 7714 164
Width: 671
VWidth: 999
Flags: HW
HStem: -2 29<20 52 242 274 427 459 649 682> 321 42<187 513> 618 29<19 52 242 274 426 459 649 681> 697 96<314.332 393.668>
VStem: 106 81<35.58 321 363 609.207> 306 96<705.332 784.668> 513 81<35.748 321 363 609.203>
LayerCount: 2
Fore
SplineSet
490 793 m 0
 512 793 531 777 531 752 c 0
 531 722 504 697 476 697 c 0
 451 697 434 715 434 737 c 0
 434 765 458 793 490 793 c 0
507 74 m 2
 555 321 l 1
 242 321 l 1
 193 72 l 2
 192 67 192 63 192 59 c 0
 192 38 206 32 238 29 c 2
 262 27 l 2
 266 27 269 24 268 19 c 2
 265 0 l 1
 262 -2 l 1
 215 -1 188 0 140 0 c 0
 92 0 67 -1 18 -2 c 1
 17 0 l 1
 21 19 l 2
 22 24 25 27 29 27 c 2
 55 29 l 2
 95 32 110 44 115 72 c 2
 213 574 l 2
 214 578 214 582 214 586 c 0
 214 607 200 613 169 616 c 2
 144 618 l 2
 140 618 137 621 138 626 c 2
 141 645 l 1
 144 647 l 1
 191 646 217 645 265 645 c 0
 313 645 340 646 388 647 c 1
 390 645 l 1
 386 626 l 2
 385 621 382 618 377 618 c 2
 352 616 l 2
 313 613 296 602 291 574 c 2
 250 363 l 1
 563 363 l 1
 604 574 l 2
 605 579 605 583 605 586 c 0
 605 607 591 613 560 616 c 2
 535 618 l 2
 531 618 527 621 528 626 c 2
 532 645 l 1
 534 647 l 1
 582 646 609 645 657 645 c 0
 705 645 731 646 779 647 c 1
 781 645 l 1
 777 626 l 2
 776 621 773 618 768 618 c 2
 742 616 l 2
 703 613 687 602 681 574 c 2
 584 74 l 2
 583 69 583 65 583 61 c 0
 583 40 596 32 628 29 c 2
 653 27 l 2
 658 27 661 24 660 19 c 2
 656 0 l 1
 654 -2 l 1
 606 -1 580 0 532 0 c 0
 484 0 457 -1 409 -2 c 1
 408 0 l 1
 411 19 l 2
 412 24 416 27 421 27 c 2
 446 29 l 2
 488 32 501 46 507 74 c 2
EndSplineSet
LCarets2: 1 0 
EndChar

StartChar: uni1E23
Encoding: 7715 7715 165
Width: 510
VWidth: 999
Flags: HW
HStem: -2 29<21 45 206 231 293 318 479 504> 392 47<245.141 344.739> 523 96<248.332 327.668> 678 20<140.465 157.5>
VStem: 88 75<33.5257 337.568 356 639.899> 240 96<531.332 610.668> 361 75<33.5163 375.24>
LayerCount: 2
Fore
SplineSet
434 619 m 0
 456 619 475 603 475 578 c 0
 475 548 448 523 420 523 c 0
 395 523 378 541 378 563 c 0
 378 591 402 619 434 619 c 0
207 238 m 1
 156 12 l 1
 83 -12 l 1
 78 0 l 1
 205 563 l 2
 210 585 212 602 212 613 c 0
 212 635 204 641 191 641 c 2
 160 643 l 2
 156 643 155 645 155 648 c 2
 158 672 l 1
 199 675 271 688 298 698 c 1
 307 698 310 695 310 688 c 1
 310 688 300 648 285 583 c 2
 222 304 l 1
 281 394 356 439 417 439 c 0
 456 439 486 421 486 361 c 0
 486 340 480 309 472 280 c 2
 431 124 l 2
 422 89 419 71 419 61 c 0
 419 51 423 43 430 43 c 0
 445 43 465 62 499 102 c 1
 521 85 l 1
 463 14 420 -10 384 -10 c 0
 361 -10 340 5 340 35 c 0
 340 57 344 78 354 116 c 2
 396 272 l 2
 405 305 408 327 408 345 c 0
 408 376 390 390 369 390 c 0
 345 390 276 343 207 238 c 1
EndSplineSet
LCarets2: 1 0 
EndChar

StartChar: uni1E24
Encoding: 7716 7716 166
Width: 671
VWidth: 999
Flags: HW
HStem: -163 96<314.332 393.668> -2 29<20 52 242 274 427 459 649 682> 321 42<187 513> 618 29<19 52 242 274 426 459 649 681>
VStem: 106 81<35.58 321 363 609.207> 306 96<-154.668 -75.332> 513 81<35.748 321 363 609.203>
LayerCount: 2
Fore
SplineSet
330 -67 m 0
 352 -67 371 -83 371 -108 c 0
 371 -138 344 -163 316 -163 c 0
 291 -163 274 -145 274 -123 c 0
 274 -95 298 -67 330 -67 c 0
507 74 m 2
 555 321 l 1
 242 321 l 1
 193 72 l 2
 192 67 192 63 192 59 c 0
 192 38 206 32 238 29 c 2
 262 27 l 2
 266 27 269 24 268 19 c 2
 265 0 l 1
 262 -2 l 1
 215 -1 188 0 140 0 c 0
 92 0 67 -1 18 -2 c 1
 17 0 l 1
 21 19 l 2
 22 24 25 27 29 27 c 2
 55 29 l 2
 95 32 110 44 115 72 c 2
 213 574 l 2
 214 578 214 582 214 586 c 0
 214 607 200 613 169 616 c 2
 144 618 l 2
 140 618 137 621 138 626 c 2
 141 645 l 1
 144 647 l 1
 191 646 217 645 265 645 c 0
 313 645 340 646 388 647 c 1
 390 645 l 1
 386 626 l 2
 385 621 382 618 377 618 c 2
 352 616 l 2
 313 613 296 602 291 574 c 2
 250 363 l 1
 563 363 l 1
 604 574 l 2
 605 579 605 583 605 586 c 0
 605 607 591 613 560 616 c 2
 535 618 l 2
 531 618 527 621 528 626 c 2
 532 645 l 1
 534 647 l 1
 582 646 609 645 657 645 c 0
 705 645 731 646 779 647 c 1
 781 645 l 1
 777 626 l 2
 776 621 773 618 768 618 c 2
 742 616 l 2
 703 613 687 602 681 574 c 2
 584 74 l 2
 583 69 583 65 583 61 c 0
 583 40 596 32 628 29 c 2
 653 27 l 2
 658 27 661 24 660 19 c 2
 656 0 l 1
 654 -2 l 1
 606 -1 580 0 532 0 c 0
 484 0 457 -1 409 -2 c 1
 408 0 l 1
 411 19 l 2
 412 24 416 27 421 27 c 2
 446 29 l 2
 488 32 501 46 507 74 c 2
EndSplineSet
LCarets2: 1 0 
EndChar

StartChar: uni1E25
Encoding: 7717 7717 167
Width: 510
VWidth: 999
Flags: HW
HStem: -164 96<220.332 299.668> -2 29<21 45 206 231 293 318 479 504> 392 47<245.141 344.739> 678 20<140.465 157.5>
VStem: 88 75<33.5257 337.568 356 639.899> 212 96<-155.668 -76.332> 361 75<33.5163 375.24>
LayerCount: 2
Fore
SplineSet
256 -68 m 0
 278 -68 297 -84 297 -109 c 0
 297 -139 270 -164 242 -164 c 0
 217 -164 200 -146 200 -124 c 0
 200 -96 224 -68 256 -68 c 0
207 238 m 1
 156 12 l 1
 83 -12 l 1
 78 0 l 1
 205 563 l 2
 210 585 212 602 212 613 c 0
 212 635 204 641 191 641 c 2
 160 643 l 2
 156 643 155 645 155 648 c 2
 158 672 l 1
 199 675 271 688 298 698 c 1
 307 698 310 695 310 688 c 1
 310 688 300 648 285 583 c 2
 222 304 l 1
 281 394 356 439 417 439 c 0
 456 439 486 421 486 361 c 0
 486 340 480 309 472 280 c 2
 431 124 l 2
 422 89 419 71 419 61 c 0
 419 51 423 43 430 43 c 0
 445 43 465 62 499 102 c 1
 521 85 l 1
 463 14 420 -10 384 -10 c 0
 361 -10 340 5 340 35 c 0
 340 57 344 78 354 116 c 2
 396 272 l 2
 405 305 408 327 408 345 c 0
 408 376 390 390 369 390 c 0
 345 390 276 343 207 238 c 1
EndSplineSet
LCarets2: 1 0 
EndChar

StartChar: uni1E26
Encoding: 7718 7718 168
Width: 671
VWidth: 999
Flags: HW
HStem: -2 29<19.6875 55 238 262 411.049 446 628 654> 321 42<250 555> 618 29<144 169 352 387.312 534 560 742 778.312> 704 91<348 415 537 604>
DStem2: 98.5946 -2 176.595 -2 0.21644 0.976296<80.0285 346.382 389.118 599.002> 555 321 584 74 0.190449 0.981697<-250.265 0 42.7549 270.044>
LayerCount: 2
Fore
SplineSet
335 749 m 0
 340 774 365 794 390 794 c 0
 412 794 427 779 427 758 c 0
 427 755 426 752 426 749 c 0
 421 724 397 704 372 704 c 0
 350 704 334 720 334 741 c 0
 334 743 335 746 335 749 c 0
525 750 m 0
 530 774 554 795 579 795 c 0
 601 795 616 779 616 759 c 0
 616 756 616 752 615 750 c 0
 611 725 587 704 562 704 c 0
 540 704 524 720 524 742 c 0
 524 744 524 747 525 750 c 0
507 74 m 2
 555 321 l 1
 242 321 l 1
 193 72 l 2
 192 67 192 63 192 59 c 0
 192 38 206 32 238 29 c 2
 262 27 l 2
 266 27 269 24 268 19 c 2
 265 0 l 1
 262 -2 l 1
 215 -1 188 0 140 0 c 0
 92 0 67 -1 18 -2 c 1
 17 0 l 1
 21 19 l 2
 22 24 25 27 29 27 c 2
 55 29 l 2
 95 32 110 44 115 72 c 2
 213 574 l 2
 214 578 214 582 214 586 c 0
 214 607 200 613 169 616 c 2
 144 618 l 2
 140 618 137 621 138 626 c 2
 141 645 l 1
 144 647 l 1
 191 646 217 645 265 645 c 0
 313 645 340 646 388 647 c 1
 390 645 l 1
 386 626 l 2
 385 621 382 618 377 618 c 2
 352 616 l 2
 313 613 296 602 291 574 c 2
 250 363 l 1
 563 363 l 1
 604 574 l 2
 605 579 605 583 605 586 c 0
 605 607 591 613 560 616 c 2
 535 618 l 2
 531 618 527 621 528 626 c 2
 532 645 l 1
 534 647 l 1
 582 646 609 645 657 645 c 0
 705 645 731 646 779 647 c 1
 781 645 l 1
 777 626 l 2
 776 621 773 618 768 618 c 2
 742 616 l 2
 703 613 687 602 681 574 c 2
 584 74 l 2
 583 69 583 65 583 61 c 0
 583 40 596 32 628 29 c 2
 653 27 l 2
 658 27 661 24 660 19 c 2
 656 0 l 1
 654 -2 l 1
 606 -1 580 0 532 0 c 0
 484 0 457 -1 409 -2 c 1
 408 0 l 1
 411 19 l 2
 412 24 416 27 421 27 c 2
 446 29 l 2
 488 32 501 46 507 74 c 2
EndSplineSet
LCarets2: 1 0 
EndChar

StartChar: uni1E27
Encoding: 7719 7719 169
Width: 510
VWidth: 999
Flags: HW
HStem: -2 29<21 45 206 231 293 318 479 504> 392 47<245.141 344.739> 527 91<215.053 290.947 352.053 428.653> 678 20<140.465 157.5>
VStem: 88 75<33.5257 337.568 356 639.899> 208 90<533.481 611.246> 345 91<534.053 610.653> 361 75<33.5163 375.24>
LayerCount: 2
Fore
SplineSet
465 572 m 0
 465 597 485 618 510 618 c 0
 535 618 556 597 556 572 c 0
 556 547 535 527 510 527 c 0
 485 527 465 547 465 572 c 0
328 572 m 0
 328 597 348 618 373 618 c 0
 398 618 418 597 418 572 c 0
 418 547 398 527 373 527 c 0
 348 527 328 547 328 572 c 0
207 238 m 1
 156 12 l 1
 83 -12 l 1
 78 0 l 1
 205 563 l 2
 210 585 212 602 212 613 c 0
 212 635 204 641 191 641 c 2
 160 643 l 2
 156 643 155 645 155 648 c 2
 158 672 l 1
 199 675 271 688 298 698 c 1
 307 698 310 695 310 688 c 1
 310 688 300 648 285 583 c 2
 222 304 l 1
 281 394 356 439 417 439 c 0
 456 439 486 421 486 361 c 0
 486 340 480 309 472 280 c 2
 431 124 l 2
 422 89 419 71 419 61 c 0
 419 51 423 43 430 43 c 0
 445 43 465 62 499 102 c 1
 521 85 l 1
 463 14 420 -10 384 -10 c 0
 361 -10 340 5 340 35 c 0
 340 57 344 78 354 116 c 2
 396 272 l 2
 405 305 408 327 408 345 c 0
 408 376 390 390 369 390 c 0
 345 390 276 343 207 238 c 1
EndSplineSet
LCarets2: 1 0 
EndChar

StartChar: uni1E28
Encoding: 7720 7720 170
Width: 671
VWidth: 999
Flags: HW
HStem: -200 29<67.047 167.231> -96 32<142.31 172.355> -2 29<20 52 242 274 427 459 649 682> 321 42<187 513> 618 29<19 52 242 274 426 459 649 681>
VStem: 106 81<35.58 321 363 609.207> 177 62<-165.259 -97.4563> 513 81<35.748 321 363 609.203>
DStem2: 93 -96 142 -67 0.384615 0.923077<45.6154 104>
LayerCount: 2
Fore
SplineSet
117 -80 m 0
 97 -80 88 -82 71 -86 c 1
 66 -80 l 1
 120 -0 l 1
 84 -0 60 -1 18 -2 c 1
 17 0 l 1
 21 19 l 2
 22 24 25 27 29 27 c 2
 55 29 l 2
 95 32 110 44 115 72 c 2
 213 574 l 2
 214 578 214 582 214 586 c 0
 214 607 200 613 169 616 c 2
 144 618 l 2
 140 618 137 621 138 626 c 2
 141 645 l 1
 144 647 l 1
 191 646 217 645 265 645 c 0
 313 645 340 646 388 647 c 1
 390 645 l 1
 386 626 l 2
 385 621 382 618 377 618 c 2
 352 616 l 2
 313 613 296 602 291 574 c 2
 250 363 l 1
 563 363 l 1
 604 574 l 2
 605 579 605 583 605 586 c 0
 605 607 591 613 560 616 c 2
 535 618 l 2
 531 618 527 621 528 626 c 2
 532 645 l 1
 534 647 l 1
 582 646 609 645 657 645 c 0
 705 645 731 646 779 647 c 1
 781 645 l 1
 777 626 l 2
 776 621 773 618 768 618 c 2
 742 616 l 2
 703 613 687 602 681 574 c 2
 584 74 l 2
 583 69 583 65 583 61 c 0
 583 40 596 32 628 29 c 2
 653 27 l 2
 658 27 661 24 660 19 c 2
 656 0 l 1
 654 -2 l 1
 606 -1 580 0 532 0 c 0
 484 0 457 -1 409 -2 c 1
 408 0 l 1
 411 19 l 2
 412 24 416 27 421 27 c 2
 446 29 l 2
 488 32 501 46 507 74 c 2
 555 321 l 1
 242 321 l 1
 193 72 l 2
 192 67 192 63 192 59 c 0
 192 38 206 32 238 29 c 2
 262 27 l 2
 266 27 269 24 268 19 c 2
 265 0 l 1
 262 -2 l 1
 220 -1 194 -0 155 -0 c 1
 122 -51 l 1
 130 -49 139 -48 148 -48 c 0
 180 -48 207 -63 207 -95 c 0
 207 -146 149 -181 82 -181 c 0
 51 -181 34 -175 11 -164 c 1
 25 -146 l 1
 51 -155 58 -156 81 -156 c 0
 115 -156 152 -138 152 -106 c 0
 152 -90 137 -80 117 -80 c 0
EndSplineSet
LCarets2: 1 0 
EndChar

StartChar: uni1E29
Encoding: 7721 7721 171
Width: 510
VWidth: 999
Flags: HW
HStem: -200 29<40.047 140.231> -96 32<115.31 145.355> -2 29<21 45 206 231 293 318 479 504> 392 47<245.141 344.739> 678 20<140.465 157.5>
VStem: 88 75<33.5257 337.568 356 639.899> 150 62<-165.259 -97.4563> 361 75<33.5163 375.24>
DStem2: 66 -96 115 -67 0.384615 0.923077<45.6154 104>
LayerCount: 2
Fore
SplineSet
90 -80 m 0
 70 -80 61 -82 44 -86 c 1
 39 -80 l 1
 86 -11 l 1
 83 -12 l 1
 78 0 l 1
 205 563 l 2
 210 585 212 602 212 613 c 0
 212 635 204 641 191 641 c 2
 160 643 l 2
 156 643 155 645 155 648 c 2
 158 672 l 1
 199 675 271 688 298 698 c 1
 307 698 310 695 310 688 c 1
 310 688 300 648 285 583 c 2
 222 304 l 1
 281 394 356 439 417 439 c 0
 456 439 486 421 486 361 c 0
 486 340 480 309 472 280 c 2
 431 124 l 2
 422 89 419 71 419 61 c 0
 419 51 423 43 430 43 c 0
 445 43 465 62 499 102 c 1
 521 85 l 1
 463 14 420 -10 384 -10 c 0
 361 -10 340 5 340 35 c 0
 340 57 344 78 354 116 c 2
 396 272 l 2
 405 305 408 327 408 345 c 0
 408 376 390 390 369 390 c 0
 345 390 276 343 207 238 c 1
 156 12 l 1
 130 3 l 1
 95 -51 l 1
 103 -49 112 -48 121 -48 c 0
 153 -48 180 -63 180 -95 c 0
 180 -146 122 -181 55 -181 c 0
 24 -181 7 -175 -16 -164 c 1
 -2 -146 l 1
 24 -155 31 -156 54 -156 c 0
 88 -156 125 -138 125 -106 c 0
 125 -90 110 -80 90 -80 c 0
EndSplineSet
LCarets2: 1 0 
EndChar

